<svg xmlns="http://www.w3.org/2000/svg" width="675" height="692.611" viewBox="0 0 675 692.611"><defs><style>.a,.f,.l{fill:#1c80c2;}.b,.e{fill:#fff;}.b{opacity:0.8;}.c,.g,.i{fill:none;}.c,.d,.e,.f,.g,.i,.j,.k,.m,.n{stroke:#263238;}.c,.m{stroke-miterlimit:10;}.d,.h,.m{fill:#263238;}.d,.e,.f,.g,.i,.j,.k,.n{stroke-linecap:round;stroke-linejoin:round;}.i{stroke-width:2px;}.j{fill:#586166;}.k{fill:#a3a3a3;}.l{opacity:0.4;}.n{fill:#4f4f4f;}</style></defs><g transform="translate(-38.5 -29.046)"><g transform="translate(69.918 29.046)"><path class="a" d="M667.657,324.843S683.88,446.407,601.622,543.1,387.9,668.072,281.99,693.833,83.2,669.378,54.817,574.618s48.842-137.106,75.093-254.95,16.286-153.459,99.2-237.241S465.891,15.51,562.151,118.8,667.657,324.843,667.657,324.843Z" transform="translate(-48.645 -29.046)"/><path class="b" d="M667.657,324.843S683.88,446.407,601.622,543.1,387.9,668.072,281.99,693.833,83.2,669.378,54.817,574.618s48.842-137.106,75.093-254.95,16.286-153.459,99.2-237.241S465.891,15.51,562.151,118.8,667.657,324.843,667.657,324.843Z" transform="translate(-47.645 -29.046)"/></g><g transform="translate(48.375 87.688)"><line class="c" x2="632.285" transform="translate(16.539 531.175)"/><line class="c" x2="632.285" transform="translate(16.539 391.585)"/><line class="c" x2="632.285" transform="translate(16.539 251.976)"/><line class="c" x2="632.285" transform="translate(16.539 112.368)"/><line class="c" y2="498.427" transform="translate(158.518 33.096)"/><line class="c" y2="498.427" transform="translate(522.314 33.096)"/><line class="c" x1="5.47" y2="5.781" transform="translate(167.766 217.856)"/><line class="c" x1="86.846" y2="91.603" transform="translate(174.61 119.283)"/><line class="c" x1="48.793" y2="50.146" transform="translate(213.363 134.193)"/><line class="c" x1="5.47" y2="5.781" transform="translate(535.797 217.856)"/><line class="c" x1="86.846" y2="91.603" transform="translate(547.89 119.283)"/><line class="c" x1="48.793" y2="50.146" transform="translate(591.359 134.193)"/><line class="c" x1="5.47" y2="5.781" transform="translate(0 499.781)"/><line class="c" x1="86.846" y2="91.621" transform="translate(12.093 401.19)"/><line class="c" x1="48.793" y2="50.146" transform="translate(55.562 416.1)"/><line class="c" x1="5.488" y2="5.781" transform="translate(71.826 98.591)"/><line class="c" x1="86.846" y2="91.603" transform="translate(83.919)"/><line class="c" x1="48.793" y2="50.146" transform="translate(108.417 14.91)"/><line class="c" x1="5.488" y2="5.781" transform="translate(410.858 98.591)"/><line class="c" x1="86.846" y2="91.603" transform="translate(412.86)"/><line class="c" x1="48.793" y2="50.146" transform="translate(454.032 14.91)"/><line class="c" x1="5.47" y2="5.781" transform="translate(302.915 362.88)"/><line class="c" x1="86.846" y2="91.603" transform="translate(307.067 264.307)"/><line class="c" x1="48.793" y2="50.146" transform="translate(347.156 279.217)"/></g><g transform="translate(250.264 143.53)"><path class="d" d="M220.226,156.68H322.568a33.846,33.846,0,0,1,33.846,33.846V486.007H186.38v-295.5a33.846,33.846,0,0,1,33.846-33.827Z" transform="translate(-168.033 -109.141)"/><path class="d" d="M383.548,505.722,293.738,479.3V449.9h-5.068V341.36H272.718V449.9H267.65v28.613l-89.81,27.2v4.3h1.207A8.506,8.506,0,0,0,178,514.156a8.745,8.745,0,1,0,13.483-7.318l.183-.183,82.327-9.9v11.855a8.745,8.745,0,1,0,13.5,0V496.757l82.144,9.879a8.745,8.745,0,1,0,12.148,3.4h1.829Z" transform="translate(-175.117 44.05)"/><rect class="e" width="182.986" height="40.048" rx="7.28" transform="translate(13.444 376.683)"/><rect class="e" width="127.095" height="70.673" transform="translate(42.917 311.736)"/><path class="e" d="M237.006,189.91l-19.466,7.629s7.044,43.743,16.465,66.319,43.743,58.416,43.743,58.416,17.783-25.96,23.985-46.561-.274-78.467-.274-78.467a40.925,40.925,0,0,0-14.4-5.086C278.224,190.752,237.006,189.91,237.006,189.91Z" transform="translate(-142.186 -81.577)"/><path class="d" d="M241.208,212.495l9,17.289L235.28,262.733l23.985,36.114,14.673-33.022-17.783-36.681,9.312-16.1L252.2,199.78Z" transform="translate(-127.471 -73.39)"/><path class="e" d="M235.238,188.83l-6.22,1.7L223.09,200.96l14.636,41.493,24-24.826,26.235,26.8s3.11-41.767,3.11-46.561-4.226-6.495-7.318-7.318S235.238,188.83,235.238,188.83Z" transform="translate(-137.582 -82.473)"/><path class="f" d="M267.147,189.76s2.689,37.523,18.295,70.545c8.068,17.014,23.143,40.926,23.143,40.084s14.947-45.152,15.514-60.117,3.385-46.853,3.385-46.853,28.943,11.526,35.858,15.532c10.721,6.2,24.259,7.611,23.985,14.947-.11,2.671,1.72,20.124,4.043,41.4.366,3.385,18.533,32.419,18.917,35.931,3.9,35.437-9.33,50.366-9.989,50.531-1.116.274-24.552,0-24.552,0s12.715,57.849,14.636,60.959l1.976,3.092H291.534l-4.208-12.7-3.75,12.7H179.935l13.831-62.935h-15.24s-3.952-7.9,1.409-37.541,23.436-103.86,23.436-106.385S261.219,195.962,267.147,189.76Z" transform="translate(-175.711 -81.701)"/><line class="e" x1="1.372" y2="66.722" transform="translate(111.615 254.692)"/><path class="f" d="M294.386,311.322c16.667-15.514,24-46.561,24-46.561l-14.965-6.495,14.4-7.062L305.381,198.15c-7.044-6.074-11.178-5.909-10.977-4.574,0,0-2.817,31.888-3.385,46.853s-15.551,59.33-15.551,60.172-16.594-22.43-23.143-40.084c-15.258-41.09-18.185-65.862-18.624-70.6a.439.439,0,0,0-.7-.329c-2.1,1.244-7.318,2.269-10.977,5.488-1.025,7.318-2.342,17.929-3.256,29.6C217.09,246.412,217.09,256,217.09,256l19.466,4.812-13.831,7.9s15.24,15.514,27.936,27.095S271.81,311.6,271.81,311.6l-16.264,25.009S277.738,326.855,294.386,311.322Z" transform="translate(-142.559 -81.913)"/><path class="e" d="M228.18,178.65v24.277s6.22,20.307,28.229,21.716c23.143,1.5,27.095-20.875,27.095-20.875v-21.46S240.657,192.755,228.18,178.65Z" transform="translate(-133.36 -90.917)"/><path class="e" d="M261.607,165.727s.841-10.977,7.611-10.977,6.787,12.7,5.086,17.783-10.446,8.745-13.264,4.793" transform="translate(-106.103 -110.742)"/><path class="e" d="M264.371,130.74s-24.936-.915-33.553,5.488-6.806,23.582-6.806,29.016,4.08,52.141,6.806,58.946,22.576,17.161,39.883,13.172,22.667-16.319,23.564-22.667.915-54.885,0-67.545S276.592,132.094,264.371,130.74Z" transform="translate(-136.949 -130.695)"/><path class="d" d="M294.529,152.109c0-2.012-.146-3.659-.256-5.049-.9-12.7-17.673-14.965-29.912-16.319,0,0-24.936-.915-33.553,5.488S224,159.811,224,165.245c0,2.177.659,10.977,1.628,21.149a3.22,3.22,0,0,0,4.72-2.086c1.829-4.994-.9-9.513,1.372-15.862s3.165-10.428,8.617-13.611a46.727,46.727,0,0,1,10.867-4.519s-11.325,13.136,13.611,12.678C281.009,162.629,290.138,159.262,294.529,152.109Z" transform="translate(-136.957 -130.695)"/><path class="g" d="M253.055,155.05s4.226,20.033.274,21.954-6.476,2.543-9.879-4.226" transform="translate(-120.694 -110.493)"/><path class="g" d="M236.673,166.92s-.86,9.33,18.057,7.9" transform="translate(-126.32 -100.647)"/><path class="h" d="M241.569,156.881c0,1.939-.823,3.531-1.83,3.531s-1.829-1.592-1.829-3.531.823-3.531,1.829-3.531S241.569,154.923,241.569,156.881Z" transform="translate(-125.289 -111.903)"/><path class="h" d="M257.069,156.881c0,1.939-.823,3.531-1.829,3.531s-1.83-1.592-1.83-3.531.823-3.531,1.83-3.531S257.069,154.923,257.069,156.881Z" transform="translate(-112.432 -111.903)"/><path class="i" d="M251.652,165.977H236.32a3.421,3.421,0,0,1-3.348-2.781L230.96,152.42h25.393l-1.317,10.574a3.421,3.421,0,0,1-3.385,2.982Z" transform="translate(-131.054 -112.675)"/><path class="i" d="M269.56,165.977H254.229a3.4,3.4,0,0,1-3.348-2.781L248.85,152.42h25.412l-1.354,10.574a3.421,3.421,0,0,1-3.348,2.982Z" transform="translate(-116.214 -112.675)"/><line class="i" x2="7.336" transform="translate(125.299 39.745)"/><line class="i" x1="12.13" y2="5.36" transform="translate(87.776 39.745)"/><path class="e" d="M232.058,165.727s-.842-10.977-7.629-10.977-6.769,12.7-5.068,17.783,10.428,8.745,13.264,4.793" transform="translate(-141.464 -110.742)"/><path class="e" d="M283.44,243.63a31.668,31.668,0,0,0-13.538-7.556,10.208,10.208,0,0,0-5.1-.4c-2.269,0-13.52-4.061-16.337-4.9s-4.519,1.976-3.659,5.086,6.879,5.745,9.147,6.312,1.3.622,1.3.622,3.659,9.038,1.976,12.422-7.629,10.977-5.653,16.374,5.086,8.178,11.288,8.178,9.879.274,11.288,0,26.528,12.13,23.783,12.422-1.134-25.119-1.134-25.119Z" transform="translate(-119.758 -47.81)"/><path class="e" d="M234.66,258.324s13.264-6.495,19.759-12.989,8.745-8.178,10.977-8.745,11.288-3.11,13.538-5.086,3.952,1.7.567,4.519a55.191,55.191,0,0,1-7.9,5.36c-1.409.86-2.817,4.812-2.817,4.812s13.831-5.928,18.624-4.519,9.55,5.69,9.257,8.214-1.171,1.317-4.281,1.025-7.519-1.628-10.977-.22-7.318,4.812-7.318,6.22,3.952,2.25,7.062,1.976,5.36-1.134,8.452-.567,5.653,2.25,5.928,3.952-1.116,1.683-4.519,1.976-9.312.567-11.288,1.976-12.13,6.2-10.428,7.9,2.708,1.7,6.092,1.7,7.007-2.6,8.983-2.452c2.653.2,4.08.4,4.08.4s4.7.2,4.281,2.049c-.659,2.964-2.232,3.055-9.056,3.366-5.342.256-6.769-.274-11.562.86a47.563,47.563,0,0,1-12.7,2.25c-8.2.567-22.869-3.385-22.869-3.385Z" transform="translate(-127.985 -47.539)"/><path class="e" d="M274.628,238.329s-5.708-5.324-8.983-5.488-13.264,8.58-14.636,11.855,1.829,2.031,4.482,1.226,9.806-4.1,12.258-5.1a9.385,9.385,0,0,1,6.458-.677" transform="translate(-114.696 -45.968)"/><path class="e" d="M278.988,243.336s-8.16-4.08-13.264-1.83-11.434,6.751-11.434,8.782,1.025,1.647,5.488,1.427,12.532-1.518,13.611-1.573a28.34,28.34,0,0,1,4.775.97" transform="translate(-111.702 -39.339)"/><path class="f" d="M229.13,250.066l-7.062,37.816s61.251-12.148,63.5-10.446,4.3,46.579,4.3,46.579-79.089,13.813-88.4,16.923-18.917,3.659-22.3.841S175.507,331.9,178.032,318s26.82-114.856,26.82-114.856" transform="translate(-176.351 -70.603)"/><path class="f" d="M291.74,227.4l2.543,43.176-20.326-.842L272,305.519s56.019,13.044,59.129,14.636,2.543-1.683,6.2-7.062,6.787-16.923,6.495-21.954-11.855-21.954-12.13-21.167" transform="translate(-97.012 -50.479)"/><line class="g" x2="18.917" transform="translate(197.272 220.097)"/><line class="g" x1="25.119" y2="8.745" transform="translate(20.597 217.279)"/><path class="d" d="M213.909,418.257s-4.1,17.618-9.824,23.783-10.977,10.245-10.648,15.148l.4,4.921h58.946V447.328c0-8.6-3.659-23.783-3.659-29.876s-36.846.4-36.846.4" transform="translate(-162.192 105.005)"/><path class="j" d="M194.843,435.29a7.867,7.867,0,0,0-1.409,4.9l.4,4.921h58.946V435.29Z" transform="translate(-162.189 121.964)"/><path class="j" d="M273.33,361.521s5.726-36.425-4.1-53.2-44.219-17.2-63.447-5.745-26.711,30.242-19.759,54.391,23.033,24.625,23.033,24.625-4.1,33.15-4.1,46.25,13.922,94.567,13.922,94.567h40.56S272.506,378.718,273.33,361.521Z" transform="translate(-170.442 5.374)"/><line class="e" y1="33.571" x2="4.08" transform="translate(38.618 353.394)"/><path class="d" d="M287.377,418.257s4.1,17.618,9.824,23.783,10.977,10.245,10.648,15.148l-.4,4.921H248.5V447.328c0-8.6,3.659-23.783,3.659-29.876s36.846.4,36.846.4" transform="translate(-116.505 105.005)"/><path class="j" d="M306.422,435.29a7.886,7.886,0,0,1,1.427,4.9l-.4,4.921H248.5V435.29Z" transform="translate(-116.505 121.964)"/><path class="j" d="M242.532,361.521s-5.726-36.425,4.1-53.2,44.219-17.2,63.447-5.745,26.875,30.242,19.9,54.391-23.18,24.625-23.18,24.625,4.1,33.15,4.1,46.25-13.922,94.567-13.922,94.567H256.455S243.355,378.718,242.532,361.521Z" transform="translate(-122.831 5.374)"/><line class="e" x1="4.098" y1="33.571" transform="translate(179.873 353.394)"/></g><g transform="translate(82.404 76.707)"><path class="d" d="M291.535,94.17h80.973a8.635,8.635,0,0,1,8.635,8.635v37.578a8.635,8.635,0,0,1-8.635,8.635H348.195l6.348,17.2-20-17.2H291.535a8.635,8.635,0,0,1-8.635-8.635V102.805a8.635,8.635,0,0,1,8.635-8.635Z" transform="translate(61.179 -94.17)"/><circle class="a" cx="4.702" cy="4.702" r="4.702" transform="translate(408.193 21.698)"/><circle class="a" cx="4.702" cy="4.702" r="4.702" transform="translate(389.072 21.698)"/><circle class="a" cx="4.702" cy="4.702" r="4.702" transform="translate(369.966 21.698)"/><path class="d" d="M122.115,261.3,107.9,291.322h40.3l14.215-28.558Z" transform="translate(-11.98 44.463)"/><path class="e" d="M204.163,261.3H115.67L129.9,291.322h88.474Z" transform="translate(-24.734 44.463)"/><rect class="k" width="19.941" height="256.66" transform="translate(21.423 377.132)"/><rect class="k" width="19.941" height="256.66" transform="translate(554.641 377.791)"/><rect class="k" width="566.258" height="247.366" transform="translate(17.087 334.962)"/><rect class="d" width="566.258" height="25.741" transform="translate(17.087 334.962)"/><rect class="e" width="600.452" height="15.349" transform="translate(0 334.962)"/></g><g transform="translate(39 157.069)"><path class="a" d="M94.476,623.868S49.16,527.344,59.021,524.545s30.534,12.587,30.534,12.587S28.926,374.8,44.6,362.287s44.951,51.756,44.951,51.756-31.266-99.323-27.589-137.1,43.4-1.39,43.4-1.39-31.815-135.694-2.287-142.7,28.558,155.287,28.558,155.287,9.7-116.1,21.533-83.937-13.044,139.9-13.044,139.9,16.228-36.37,25.247-2.8S147.44,510.549,147.44,510.549s22.905-22.375,25.046,5.6-47.4,114.783-47.4,114.783l-28.028,2.726Z" transform="translate(-42.014 -132.629)"/><path class="l" d="M94.476,623.868S49.16,527.344,59.021,524.545s30.534,12.587,30.534,12.587S28.926,374.8,44.6,362.287s44.951,51.756,44.951,51.756-31.266-99.323-27.589-137.1,43.4-1.39,43.4-1.39-31.815-135.694-2.287-142.7,28.558,155.287,28.558,155.287,9.7-116.1,21.533-83.937-13.044,139.9-13.044,139.9,16.228-36.37,25.247-2.8S147.44,510.549,147.44,510.549s22.905-22.375,25.046,5.6-47.4,114.783-47.4,114.783l-28.028,2.726Z" transform="translate(-42.012 -126.629)"/><path class="g" d="M96,589.351s-37.779-67.142-30.772-79.729,27.936,16.74,27.936,16.74S45.592,407.444,52.6,396.284s29.272,37.761,29.272,37.761-8.379-163.666,5.6-158.068,15.478,83.9,15.478,83.9-8.4-186.06,4.208-180.461S118.333,392.04,118.333,392.04s25.229-79.729,29.382-43.286-32.181,134.285-32.181,134.285,34.98-76.93,39.169-36.37-27.973,116.1-27.973,116.1S139.317,532,139.317,548.791s-9.788,37.761-9.788,37.761" transform="translate(-33.818 -93.923)"/><rect class="m" width="79.967" height="69.191" transform="translate(33.234 494.897)"/></g><g transform="translate(420.023 138.807)"><path class="e" d="M352.326,152.5s-8.2,13.52-9.422,19.649.823,8.6-.823,13.1-8.58,4.519-8.58,9.019,4.9,8.6,6.55,9.824-1.244,6.55,1.628,14.325,4.1,17.6,9,17.6a137.22,137.22,0,0,0,15.148-1.647l2.451,14.947,33.827-3.074s-.4-14.636,8.6-20.875,26.82-41.347,16.173-64.27S371.553,133.677,352.326,152.5Z" transform="translate(-267.558 -117.621)"/><path class="d" d="M338.285,146.018a31.1,31.1,0,0,0-1.317,11.123,44.876,44.876,0,0,0,6.55,20.381c4.171,6.9,14.16,11.288,16.63,18.643.8,2.452,2.854,9,8.58,10.648s4.519,1.628,2.872,12.678,3.275,22.1,13.1,24.973a29.272,29.272,0,0,0,27.022-5.726c7.775-6.147,22.5-31.522,22.924-54.446.714-40.56-39.261-60.373-75.32-55.434A24.57,24.57,0,0,0,338.285,146.018Z" transform="translate(-264.733 -128.114)"/><path class="e" d="M383.6,194.385a38.547,38.547,0,0,0-15.77,3.659c-4.574,2.415-20.472,17.6-24.57,20.124s-11.873,1.226-7.318,3.275,7.775,2.452,15.551-.4,24.149-8.6,29.052-8.6,22.924,2.452,24.57,2.872,12.276,5.306,12.276,5.306-5.324-11.453-11.453-17.179S392.2,193.964,383.6,194.385Z" transform="translate(-266.686 -73.169)"/><path class="e" d="M355.492,166.6a4.208,4.208,0,0,0-2.616,4.446A56.185,56.185,0,0,1,352.6,187.3c-1.628,6.952,7.062,6.952,8.965-4.446C362.81,175.313,359.956,165.013,355.492,166.6Z" transform="translate(-251.881 -96.322)"/><path class="e" d="M329.207,218.11s-4.9,2.452-5.306,14.325-20.893,95.39-22.119,108.489,5.745,21.68,17.6,26.2,34.395,11.855,38.419,9.824,11.873-44.219,14.727-62.642-31.522-82.327-33.15-84.724S332.079,218.531,329.207,218.11Z" transform="translate(-293.982 -53.462)"/><line class="g" x1="22.521" y2="33.571" transform="translate(39.323 262.489)"/><path class="e" d="M355,354.593l28.43,157.336a3.531,3.531,0,0,0,4.537,2.726h0a3.549,3.549,0,0,0,2.415-3.824L369.4,351.19Z" transform="translate(-249.724 56.927)"/><path class="e" d="M347.555,340.555s-10.648,143.67-10.648,147.768S325.93,535.4,325.93,535.4h29.4s2.854-5.726,2.854-17.6,1.244-37.248,1.244-39.7,32.748-129.364,32.748-129.364-1.647-12.7-17.618-20.124S350.006,337.28,347.555,340.555Z" transform="translate(-273.837 36.589)"/><path class="d" d="M358.176,449.916c0-10.849,1.025-32.931,1.207-38.566-13.63-7.647-22.082,2.543-22.082,2.543h0c-.238,3.659-.384,6.037-.384,6.513,0,4.1-10.977,47.073-10.977,47.073h29.382S358.176,461.789,358.176,449.916Z" transform="translate(-273.829 104.469)"/><path class="n" d="M353.928,458.573s2.854-5.726,2.854-17.6c0-4.409.183-10.7.384-16.978-2.836-3.311-8.965-8.379-15.514-.622-2.872,3.385-10.428,24.753-14.032,35.2Z" transform="translate(-272.436 113.411)"/><path class="d" d="M335.29,423.767l2.452,35.2h7.318l6.165-36.023S343.065,413.119,335.29,423.767Z" transform="translate(-266.073 113.018)"/><path class="e" d="M311.4,324.963s-12.7,13.922-13.922,25.8S340.054,488.3,340.054,488.3a32.216,32.216,0,0,1-6.952,14.325c-6.147,7.775-14.746,18.826-15.972,26.2s0,9.824,0,9.824H346.2s10.227-26.2,14.325-32.748,1.628-19.246.4-24.973-12.276-137.944-12.276-137.944S340.054,315.065,311.4,324.963Z" transform="translate(-297.456 33.41)"/><path class="d" d="M351.853,434.34c3.549-5.69,2.177-15.99.933-22.356a12.806,12.806,0,0,0-11.16-2.616c-8.6,2.049-10.245,7.318-10.245,7.318a32.216,32.216,0,0,1-6.952,14.325c-6.147,7.775-14.746,18.825-15.972,26.2s0,9.824,0,9.824h29.071S347.754,440.89,351.853,434.34Z" transform="translate(-288.783 104.896)"/><path class="n" d="M315.93,456.953h14.947s9.147-23.308,13.575-31.449c-2.2-2.012-8.836-7.153-15.221-2.122-7.775,6.147-8.6,21.3-10.629,27.022C317.631,453.092,316.662,455.324,315.93,456.953Z" transform="translate(-282.132 115.032)"/><path class="d" d="M323.2,423.8l1.647,33.571h5.306l9-32.748S330.975,416.446,323.2,423.8Z" transform="translate(-276.102 114.612)"/><path class="e" d="M342.4,285.694c6.806,22.978,12.916,66.063,12.916,70.088,0,7.318-21.405,49.634-21.405,49.634s-23.783,12.276-29.473,20.875a25.3,25.3,0,0,0-1.628,26.2c4.1,8.178,10.227,11.873,23.783,14.325s139.17,0,139.17,0,13.1-15.972,6.952-41.347c-2.854-11.819-5.964-22.082-9.4-36.425,0,0,13.5.4,23.326-7.794s10.245-20.875,10.245-30.278-6.184-88.035-6.184-95.792-.366-17.6-7.684-23.344S458.357,217.2,442.77,208.929c-12.258-6.458-21.277-5.324-31.1-5.324s-21.7,7.318-21.7,7.318-54.446,14.325-58.544,16.776-2.634,4.94-1.134,13.977" transform="translate(-295.416 -65.558)"/><path class="g" d="M400.388,230.64S383.63,328.006,383.63,333.329s10.209,33.224,10.209,33.224" transform="translate(-225.975 -43.069)"/><path class="m" d="M354.442,289c-4.025,12.935-20.527,45.518-20.527,45.518s-23.783,12.276-29.473,20.875a25.3,25.3,0,0,0-1.628,26.2c4.1,8.178,10.227,11.873,23.783,14.325s139.17,0,139.17,0,13.1-15.972,6.952-41.347c-2.854-11.819-5.964-22.082-9.4-36.425L453.07,289Z" transform="translate(-295.416 5.341)"/><path class="e" d="M320.061,352.14,298.894,510.666a3.513,3.513,0,0,0,3.494,3.97h0a3.494,3.494,0,0,0,3.458-2.872l28.943-158.4Z" transform="translate(-296.289 57.715)"/><path class="e" d="M393.636,352.14,414.8,510.666a3.513,3.513,0,0,1-3.494,3.97h0a3.494,3.494,0,0,1-3.458-2.872L379,353.366Z" transform="translate(-229.816 57.715)"/><path class="e" d="M351.611,352.14,330.444,510.666a3.513,3.513,0,0,0,3.494,3.97h0a3.512,3.512,0,0,0,3.458-2.872l28.943-158.4Z" transform="translate(-270.118 57.715)"/><path class="f" d="M479.306,253H347.088s-3.659,31.1-1.628,57.721,6.55,60.575,5.726,82.327-13.1,33.571-13.1,33.571H308.614a5.305,5.305,0,0,0-5.324,5.306h0a5.324,5.324,0,0,0,5.324,5.324H467.78a90.632,90.632,0,0,0,13.5-51.976c-1.226-31.1-13.5-66.319-9.422-91.292S479.306,253,479.306,253Z" transform="translate(-292.617 -24.521)"/><path class="d" d="M391.727,149.774s-8.178,3.275-8.6,10.977-2.854,34.376-12.678,49.524,0,39.3,24.149,42.975,43.8-32.748,34.76-70.4S399.923,146.5,391.727,149.774Z" transform="translate(-240.037 -111.398)"/></g><g transform="translate(39 711.158)"><line class="g" x2="674" transform="translate(0 -0.111)"/></g></g></svg>