<?xml version="1.0" encoding="utf-8"?>
<!-- Generator: Adobe Illustrator 25.2.0, SVG Export Plug-In . SVG Version: 6.00 Build 0)  -->
<svg version="1.1" id="Capa_1" xmlns="http://www.w3.org/2000/svg" xmlns:xlink="http://www.w3.org/1999/xlink" x="0px" y="0px"
	 viewBox="0 0 150 150" style="enable-background:new 0 0 150 150;" xml:space="preserve">
<style type="text/css">
	.st0{clip-path:url(#SVGID_2_);}
	.st1{fill:#6D6C6A;}
</style>
<g>
	<defs>
		<rect id="SVGID_1_" x="13.1" y="19.8" width="125.4" height="103.6"/>
	</defs>
	<clipPath id="SVGID_2_">
		<use xlink:href="#SVGID_1_"  style="overflow:visible;"/>
	</clipPath>
	<g class="st0">
		<path class="st1" d="M97.6,123.4c-1.6,0-2.7-1.1-2.7-2.7v-10.9c0-10.4-8.7-19.1-19.1-19.1H37.6c-10.4,0-19.1,8.7-19.1,19.1v10.9
			c0,1.6-1.1,2.7-2.7,2.7c-1.6,0-2.7-1.1-2.7-2.7v-10.9c0-13.6,10.9-24.5,24.5-24.5h38.2c13.6,0,24.5,10.9,24.5,24.5v10.9
			C100.3,122.3,99.2,123.4,97.6,123.4z"/>
		<path class="st1" d="M56.7,68.8c-13.6,0-24.5-10.9-24.5-24.5c0-13.6,10.9-24.5,24.5-24.5c13.6,0,24.5,10.9,24.5,24.5
			C81.2,57.9,70.3,68.8,56.7,68.8z M56.7,25.2c-10.4,0-19.1,8.7-19.1,19.1s8.7,19.1,19.1,19.1c10.4,0,19.1-8.7,19.1-19.1
			S67.1,25.2,56.7,25.2z"/>
		<path class="st1" d="M119.4,85.2c-1.6,0-2.7-1.1-2.7-2.7V49.8c0-1.6,1.1-2.7,2.7-2.7c1.6,0,2.7,1.1,2.7,2.7v32.7
			C122.1,84.1,121.1,85.2,119.4,85.2z"/>
		<path class="st1" d="M135.8,68.8h-32.7c-1.6,0-2.7-1.1-2.7-2.7c0-1.6,1.1-2.7,2.7-2.7h32.7c1.6,0,2.7,1.1,2.7,2.7
			C138.5,67.7,137.4,68.8,135.8,68.8z"/>
	</g>
</g>
</svg>
