<svg xmlns="http://www.w3.org/2000/svg" width="581.474" height="554.336" viewBox="0 0 581.474 554.336">
  <g id="Group_6193" data-name="Group 6193" transform="translate(-1147.526 -260.832)">
    <path id="Path_59482" data-name="Path 59482" d="M48.869,453.878c-11.217,11.22-16.606,24.465-16.606,37.838,0,56.214,104.244,101.78,232.834,101.78s232.831-45.57,232.831-101.78c0-26.141,5.089-61.978,38.987-80.352S623.3,284.14,524.129,178.415,323.38,70.076,232.362,74.616,40.258,119.744,31.318,193.092s31.169,91.543-3.878,126.6C-56.049,403.168,80.619,422.118,48.869,453.878Z" transform="translate(1147.527 215.467)" fill="#00ab67" opacity="0.08"/>
    <g id="Layer_2" data-name="Layer 2" transform="translate(1190.587 260.832)">
      <g id="Layer_1" data-name="Layer 1" transform="translate(0 0)">
        <path id="Path_58582" data-name="Path 58582" d="M628.285,514.27v2.846l-106,57.875v-2.846Z" transform="translate(-135.2 -133.126)" fill="#2a7f38"/>
        <path id="Path_58583" data-name="Path 58583" d="M443.54,549.37v2.853L501.9,584.077v-2.846Z" transform="translate(-114.817 -142.212)" fill="#2a7f38"/>
        <path id="Path_58584" data-name="Path 58584" d="M443.54,529.158,501.9,561.019l106-57.875-58.35-31.854Z" transform="translate(-114.817 -122)" fill="#329345"/>
        <path id="Path_58585" data-name="Path 58585" d="M456.18,530.9,505.7,557.924l97.163-53.1L553.343,477.8Z" transform="translate(-118.089 -123.685)" fill="#4bb75d"/>
        <path id="Path_58586" data-name="Path 58586" d="M543.769,513.75c13.9,0,25.161,6,25.161,13.392s-11.265,13.392-25.161,13.392-25.2-6-25.2-13.392S529.872,513.75,543.769,513.75Z" transform="translate(-134.239 -132.992)" fill="#58c468"/>
        <path id="Path_58587" data-name="Path 58587" d="M505.919,544.77c7.2,0,13.029,3.105,13.029,6.93s-5.833,6.937-13.029,6.937-13.029-3.105-13.029-6.937S498.723,544.77,505.919,544.77Z" transform="translate(-127.592 -141.021)" fill="#58c468"/>
        <path id="Path_58588" data-name="Path 58588" d="M508.091,549.23c3.765,0,6.811,1.623,6.811,3.624s-3.046,3.624-6.811,3.624-6.811-1.623-6.811-3.624S504.334,549.23,508.091,549.23Z" transform="translate(-129.764 -142.176)" fill="#6fd17d"/>
        <path id="Path_58589" data-name="Path 58589" d="M595.239,496.06c7.2,0,13.029,3.105,13.029,6.937s-5.833,6.937-13.029,6.937S582.21,506.829,582.21,503,588.043,496.06,595.239,496.06Z" transform="translate(-150.714 -128.412)" fill="#58c468"/>
        <path id="Path_58590" data-name="Path 58590" d="M597.414,500.53c3.765,0,6.811,1.623,6.811,3.624s-3.046,3.624-6.811,3.624-6.8-1.623-6.8-3.624S593.656,500.53,597.414,500.53Z" transform="translate(-152.888 -129.569)" fill="#6fd17d"/>
        <path id="Path_58591" data-name="Path 58591" d="M559.992,533.827a7.412,7.412,0,0,0,3.305-3.313l-5.41-2.965-2.965,1.334,2.1,1.149c.652.356.83.541.586.912a3.433,3.433,0,0,1-1.156.949l-6.789-3.706c1.593-1.86,2.438-3.869-1.771-6.166a14.022,14.022,0,0,0-11.376-1.008l-3.342-1.823L531.14,520.3l3.261,1.786a6.945,6.945,0,0,0-2.839,3.061l5.121,2.794,2.89-1.341-1.964-1.067c-.652-.356-.83-.541-.578-.912a3.6,3.6,0,0,1,.741-.689l6.4,3.491h0c-1.423,1.838-2.505,3.98,1.89,6.381a14.585,14.585,0,0,0,11.791,1.06l3.743,2.038,2.046-1.112Zm-11.48-4.039,5.662,3.091a6.478,6.478,0,0,1-4.565-.793C548.231,531.33,548.082,530.574,548.512,529.788Zm-3.224-3.987-5.232-2.861a5.929,5.929,0,0,1,4.106.7c1.3.711,1.453,1.386,1.126,2.164Z" transform="translate(-137.493 -134.4)" fill="#fff"/>
        <path id="Path_58592" data-name="Path 58592" d="M623.674,520.835l14.7-8.027-3.624-1.979-14.7,8.027Z" transform="translate(-160.509 -132.236)" fill="#fff"/>
        <path id="Path_58593" data-name="Path 58593" d="M522.367,575.815l14.7-8.027-3.617-1.979-14.7,8.026Z" transform="translate(-134.286 -146.468)" fill="#fff"/>
        <path id="Path_58594" data-name="Path 58594" d="M569.964,493.345l14.7-8.027-3.624-1.979-14.7,8.034Z" transform="translate(-146.605 -125.119)" fill="#fff"/>
        <path id="Path_58595" data-name="Path 58595" d="M468.657,548.325l14.7-8.027-3.617-1.979-14.7,8.026Z" transform="translate(-120.382 -139.352)" fill="#fff"/>
        <path id="Path_58596" data-name="Path 58596" d="M628.285,506.27v2.846l-106,57.875v-2.846Z" transform="translate(-135.2 -131.055)" fill="#2a7f38"/>
        <path id="Path_58597" data-name="Path 58597" d="M443.54,541.37v2.853L501.9,576.077v-2.846Z" transform="translate(-114.817 -140.141)" fill="#2a7f38"/>
        <path id="Path_58598" data-name="Path 58598" d="M443.54,521.158,501.9,553.019l106-57.875-58.35-31.854Z" transform="translate(-114.817 -119.929)" fill="#329345"/>
        <path id="Path_58599" data-name="Path 58599" d="M456.18,522.895,505.7,549.924l97.163-53.095L553.343,469.8Z" transform="translate(-118.089 -121.614)" fill="#4bb75d"/>
        <path id="Path_58600" data-name="Path 58600" d="M543.769,505.75c13.9,0,25.161,6,25.161,13.392s-11.265,13.392-25.161,13.392-25.2-6-25.2-13.392S529.872,505.75,543.769,505.75Z" transform="translate(-134.239 -130.921)" fill="#58c468"/>
        <path id="Path_58601" data-name="Path 58601" d="M505.919,536.77c7.2,0,13.029,3.105,13.029,6.93s-5.833,6.937-13.029,6.937-13.029-3.105-13.029-6.937S498.723,536.77,505.919,536.77Z" transform="translate(-127.592 -138.951)" fill="#58c468"/>
        <path id="Path_58602" data-name="Path 58602" d="M508.091,541.23c3.765,0,6.811,1.623,6.811,3.624s-3.046,3.624-6.811,3.624-6.811-1.623-6.811-3.624S504.334,541.23,508.091,541.23Z" transform="translate(-129.764 -140.105)" fill="#6fd17d"/>
        <path id="Path_58603" data-name="Path 58603" d="M595.239,488.06c7.2,0,13.029,3.105,13.029,6.937s-5.833,6.937-13.029,6.937S582.21,498.829,582.21,495,588.043,488.06,595.239,488.06Z" transform="translate(-150.714 -126.341)" fill="#58c468"/>
        <path id="Path_58604" data-name="Path 58604" d="M597.414,492.53c3.765,0,6.811,1.623,6.811,3.624s-3.046,3.624-6.811,3.624-6.8-1.623-6.8-3.624S593.656,492.53,597.414,492.53Z" transform="translate(-152.888 -127.498)" fill="#6fd17d"/>
        <path id="Path_58605" data-name="Path 58605" d="M559.992,525.828a7.411,7.411,0,0,0,3.305-3.313l-5.41-2.965-2.965,1.334,2.1,1.149c.652.356.83.541.586.912a3.433,3.433,0,0,1-1.156.949l-6.789-3.706c1.593-1.86,2.438-3.869-1.771-6.166a14.023,14.023,0,0,0-11.376-1.008l-3.342-1.823L531.14,512.3l3.261,1.786a6.944,6.944,0,0,0-2.839,3.061l5.121,2.794,2.89-1.341-1.964-1.067c-.652-.356-.83-.541-.578-.912a3.6,3.6,0,0,1,.741-.689l6.4,3.491h0c-1.423,1.838-2.505,3.98,1.89,6.381a14.587,14.587,0,0,0,11.791,1.06l3.743,2.038,2.046-1.112Zm-11.48-4.039,5.662,3.09a6.478,6.478,0,0,1-4.565-.793C548.231,523.33,548.082,522.574,548.512,521.788Zm-3.224-3.987-5.232-2.861a5.928,5.928,0,0,1,4.106.7c1.3.711,1.453,1.386,1.126,2.164Z" transform="translate(-137.493 -132.329)" fill="#fff"/>
        <path id="Path_58606" data-name="Path 58606" d="M623.674,512.835l14.7-8.027-3.624-1.979-14.7,8.027Z" transform="translate(-160.509 -130.165)" fill="#fff"/>
        <path id="Path_58607" data-name="Path 58607" d="M522.367,567.815l14.7-8.026-3.617-1.979-14.7,8.026Z" transform="translate(-134.286 -144.397)" fill="#fff"/>
        <path id="Path_58608" data-name="Path 58608" d="M569.964,485.345l14.7-8.027-3.624-1.979-14.7,8.034Z" transform="translate(-146.605 -123.049)" fill="#fff"/>
        <path id="Path_58609" data-name="Path 58609" d="M468.657,540.325l14.7-8.027-3.617-1.979-14.7,8.026Z" transform="translate(-120.382 -137.281)" fill="#fff"/>
        <path id="Path_58610" data-name="Path 58610" d="M628.285,498.27v2.846l-106,57.875v-2.846Z" transform="translate(-135.2 -128.984)" fill="#2a7f38"/>
        <path id="Path_58611" data-name="Path 58611" d="M443.54,533.37v2.853L501.9,568.078v-2.846Z" transform="translate(-114.817 -138.071)" fill="#2a7f38"/>
        <path id="Path_58612" data-name="Path 58612" d="M443.54,513.158,501.9,545.019l106-57.875-58.35-31.854Z" transform="translate(-114.817 -117.858)" fill="#329345"/>
        <path id="Path_58613" data-name="Path 58613" d="M456.18,514.895,505.7,541.924l97.163-53.095L553.343,461.8Z" transform="translate(-118.089 -119.544)" fill="#4bb75d"/>
        <path id="Path_58614" data-name="Path 58614" d="M543.769,497.75c13.9,0,25.161,6,25.161,13.392s-11.265,13.392-25.161,13.392-25.2-6-25.2-13.392S529.872,497.75,543.769,497.75Z" transform="translate(-134.239 -128.85)" fill="#58c468"/>
        <path id="Path_58615" data-name="Path 58615" d="M505.919,528.77c7.2,0,13.029,3.105,13.029,6.93s-5.833,6.937-13.029,6.937-13.029-3.105-13.029-6.937S498.723,528.77,505.919,528.77Z" transform="translate(-127.592 -136.88)" fill="#58c468"/>
        <path id="Path_58616" data-name="Path 58616" d="M508.091,533.23c3.765,0,6.811,1.623,6.811,3.624s-3.046,3.624-6.811,3.624-6.811-1.623-6.811-3.624S504.334,533.23,508.091,533.23Z" transform="translate(-129.764 -138.034)" fill="#6fd17d"/>
        <path id="Path_58617" data-name="Path 58617" d="M595.239,480.06c7.2,0,13.029,3.105,13.029,6.937s-5.833,6.937-13.029,6.937S582.21,490.829,582.21,487,588.043,480.06,595.239,480.06Z" transform="translate(-150.714 -124.27)" fill="#58c468"/>
        <path id="Path_58618" data-name="Path 58618" d="M597.414,484.53c3.765,0,6.811,1.623,6.811,3.624s-3.046,3.624-6.811,3.624-6.8-1.623-6.8-3.624S593.656,484.53,597.414,484.53Z" transform="translate(-152.888 -125.428)" fill="#6fd17d"/>
        <path id="Path_58619" data-name="Path 58619" d="M559.992,517.828a7.411,7.411,0,0,0,3.305-3.313l-5.41-2.965-2.965,1.334,2.1,1.149c.652.356.83.541.586.912a3.434,3.434,0,0,1-1.156.949l-6.789-3.706c1.593-1.86,2.438-3.869-1.771-6.166a14.022,14.022,0,0,0-11.376-1.008l-3.342-1.823L531.14,504.3l3.261,1.786a6.944,6.944,0,0,0-2.839,3.061l5.121,2.794,2.89-1.342-1.964-1.067c-.652-.356-.83-.541-.578-.912a3.6,3.6,0,0,1,.741-.689l6.4,3.491h0c-1.423,1.838-2.505,3.98,1.89,6.381a14.585,14.585,0,0,0,11.791,1.06l3.743,2.038,2.046-1.112Zm-11.48-4.039,5.662,3.091a6.478,6.478,0,0,1-4.565-.793C548.231,515.33,548.082,514.574,548.512,513.788Zm-3.224-3.987-5.232-2.861a5.929,5.929,0,0,1,4.106.7c1.3.711,1.453,1.386,1.126,2.164Z" transform="translate(-137.493 -130.258)" fill="#fff"/>
        <path id="Path_58620" data-name="Path 58620" d="M623.674,504.835l14.7-8.027-3.624-1.979-14.7,8.034Z" transform="translate(-160.509 -128.094)" fill="#fff"/>
        <path id="Path_58621" data-name="Path 58621" d="M522.367,559.815l14.7-8.027-3.617-1.979-14.7,8.027Z" transform="translate(-134.286 -142.326)" fill="#fff"/>
        <path id="Path_58622" data-name="Path 58622" d="M569.964,477.345l14.7-8.026-3.624-1.979-14.7,8.034Z" transform="translate(-146.605 -120.978)" fill="#fff"/>
        <path id="Path_58623" data-name="Path 58623" d="M468.657,532.325l14.7-8.027-3.617-1.979-14.7,8.026Z" transform="translate(-120.382 -135.21)" fill="#fff"/>
        <path id="Path_58624" data-name="Path 58624" d="M628.285,490.27v2.846l-106,57.875v-2.846Z" transform="translate(-135.2 -126.913)" fill="#2a7f38"/>
        <path id="Path_58625" data-name="Path 58625" d="M443.54,525.37v2.853L501.9,560.077v-2.846Z" transform="translate(-114.817 -135.999)" fill="#2a7f38"/>
        <path id="Path_58626" data-name="Path 58626" d="M443.54,505.158,501.9,537.019l106-57.875-58.35-31.854Z" transform="translate(-114.817 -115.787)" fill="#329345"/>
        <path id="Path_58627" data-name="Path 58627" d="M456.18,506.895,505.7,533.924l97.163-53.095L553.343,453.8Z" transform="translate(-118.089 -117.473)" fill="#4bb75d"/>
        <path id="Path_58628" data-name="Path 58628" d="M543.769,489.75c13.9,0,25.161,6,25.161,13.392s-11.265,13.392-25.161,13.392-25.2-6-25.2-13.392S529.872,489.75,543.769,489.75Z" transform="translate(-134.239 -126.779)" fill="#58c468"/>
        <path id="Path_58629" data-name="Path 58629" d="M505.919,520.77c7.2,0,13.029,3.105,13.029,6.93s-5.833,6.937-13.029,6.937-13.029-3.105-13.029-6.937S498.723,520.77,505.919,520.77Z" transform="translate(-127.592 -134.809)" fill="#58c468"/>
        <path id="Path_58630" data-name="Path 58630" d="M508.091,525.23c3.765,0,6.811,1.623,6.811,3.624s-3.046,3.624-6.811,3.624-6.811-1.623-6.811-3.624S504.334,525.23,508.091,525.23Z" transform="translate(-129.764 -135.963)" fill="#6fd17d"/>
        <path id="Path_58631" data-name="Path 58631" d="M595.239,472.06c7.2,0,13.029,3.105,13.029,6.937s-5.833,6.937-13.029,6.937S582.21,482.829,582.21,479,588.043,472.06,595.239,472.06Z" transform="translate(-150.714 -122.2)" fill="#58c468"/>
        <path id="Path_58632" data-name="Path 58632" d="M597.414,476.53c3.765,0,6.811,1.623,6.811,3.624s-3.046,3.624-6.811,3.624-6.8-1.623-6.8-3.624S593.656,476.53,597.414,476.53Z" transform="translate(-152.888 -123.357)" fill="#6fd17d"/>
        <path id="Path_58633" data-name="Path 58633" d="M559.992,509.828a7.412,7.412,0,0,0,3.305-3.313l-5.41-2.965-2.965,1.334,2.1,1.149c.652.356.83.541.586.912a3.433,3.433,0,0,1-1.156.949l-6.789-3.706c1.593-1.86,2.438-3.869-1.771-6.166a14.022,14.022,0,0,0-11.376-1.008l-3.342-1.823L531.14,496.3l3.261,1.786a6.945,6.945,0,0,0-2.839,3.061l5.121,2.794,2.89-1.341-1.964-1.067c-.652-.356-.83-.541-.578-.912a3.6,3.6,0,0,1,.741-.689l6.4,3.491h0c-1.423,1.838-2.505,3.98,1.89,6.381a14.585,14.585,0,0,0,11.791,1.06l3.743,2.038,2.046-1.112Zm-11.48-4.039,5.662,3.091a6.478,6.478,0,0,1-4.565-.793C548.231,507.33,548.082,506.574,548.512,505.788Zm-3.224-3.987-5.232-2.861a5.929,5.929,0,0,1,4.106.7c1.3.711,1.453,1.386,1.126,2.164Z" transform="translate(-137.493 -128.187)" fill="#fff"/>
        <path id="Path_58634" data-name="Path 58634" d="M623.674,496.835l14.7-8.026-3.624-1.979-14.7,8.034Z" transform="translate(-160.509 -126.023)" fill="#fff"/>
        <path id="Path_58635" data-name="Path 58635" d="M522.367,551.815l14.7-8.026-3.617-1.979-14.7,8.026Z" transform="translate(-134.286 -140.255)" fill="#fff"/>
        <path id="Path_58636" data-name="Path 58636" d="M569.964,469.345l14.7-8.027-3.624-1.979-14.7,8.034Z" transform="translate(-146.605 -118.907)" fill="#fff"/>
        <path id="Path_58637" data-name="Path 58637" d="M468.657,524.325l14.7-8.026-3.617-1.979-14.7,8.026Z" transform="translate(-120.382 -133.139)" fill="#fff"/>
        <path id="Path_58638" data-name="Path 58638" d="M628.285,482.27v2.846l-106,57.875v-2.846Z" transform="translate(-135.2 -124.843)" fill="#2a7f38"/>
        <path id="Path_58639" data-name="Path 58639" d="M443.54,517.37v2.853L501.9,552.077v-2.846Z" transform="translate(-114.817 -133.929)" fill="#2a7f38"/>
        <path id="Path_58640" data-name="Path 58640" d="M443.54,497.158,501.9,529.019l106-57.875-58.35-31.854Z" transform="translate(-114.817 -113.717)" fill="#329345"/>
        <path id="Path_58641" data-name="Path 58641" d="M456.18,498.9,505.7,525.924l97.163-53.095L553.343,445.8Z" transform="translate(-118.089 -115.402)" fill="#4bb75d"/>
        <path id="Path_58642" data-name="Path 58642" d="M543.769,481.75c13.9,0,25.161,6,25.161,13.392s-11.265,13.392-25.161,13.392-25.2-6-25.2-13.392S529.872,481.75,543.769,481.75Z" transform="translate(-134.239 -124.708)" fill="#58c468"/>
        <path id="Path_58643" data-name="Path 58643" d="M505.919,512.77c7.2,0,13.029,3.105,13.029,6.93s-5.833,6.937-13.029,6.937-13.029-3.105-13.029-6.937S498.723,512.77,505.919,512.77Z" transform="translate(-127.592 -132.738)" fill="#58c468"/>
        <path id="Path_58644" data-name="Path 58644" d="M508.091,517.23c3.765,0,6.811,1.623,6.811,3.624s-3.046,3.624-6.811,3.624-6.811-1.623-6.811-3.624S504.334,517.23,508.091,517.23Z" transform="translate(-129.764 -133.892)" fill="#6fd17d"/>
        <path id="Path_58645" data-name="Path 58645" d="M595.239,464.06c7.2,0,13.029,3.105,13.029,6.937s-5.833,6.937-13.029,6.937S582.21,474.829,582.21,471,588.043,464.06,595.239,464.06Z" transform="translate(-150.714 -120.129)" fill="#58c468"/>
        <path id="Path_58646" data-name="Path 58646" d="M597.414,468.53c3.765,0,6.811,1.623,6.811,3.624s-3.046,3.624-6.811,3.624-6.8-1.623-6.8-3.624S593.656,468.53,597.414,468.53Z" transform="translate(-152.888 -121.286)" fill="#6fd17d"/>
        <path id="Path_58647" data-name="Path 58647" d="M559.992,501.827a7.411,7.411,0,0,0,3.305-3.313l-5.41-2.965-2.965,1.334,2.1,1.149c.652.356.83.541.586.912a3.431,3.431,0,0,1-1.156.949l-6.789-3.706c1.593-1.86,2.438-3.869-1.771-6.166a14.022,14.022,0,0,0-11.376-1.008l-3.342-1.823L531.14,488.3l3.261,1.786a6.945,6.945,0,0,0-2.839,3.061l5.121,2.794,2.89-1.341-1.964-1.067c-.652-.356-.83-.541-.578-.911a3.6,3.6,0,0,1,.741-.689l6.4,3.491h0c-1.423,1.838-2.505,3.98,1.89,6.381a14.586,14.586,0,0,0,11.791,1.06l3.743,2.038,2.046-1.112Zm-11.48-4.039,5.662,3.091a6.478,6.478,0,0,1-4.565-.793C548.231,499.33,548.082,498.574,548.512,497.788Zm-3.224-3.987-5.232-2.861a5.929,5.929,0,0,1,4.106.7c1.3.711,1.453,1.386,1.126,2.164Z" transform="translate(-137.493 -126.116)" fill="#fff"/>
        <path id="Path_58648" data-name="Path 58648" d="M623.674,488.835l14.7-8.026-3.624-1.979-14.7,8.034Z" transform="translate(-160.509 -123.952)" fill="#fff"/>
        <path id="Path_58649" data-name="Path 58649" d="M522.367,543.815l14.7-8.026-3.617-1.979-14.7,8.026Z" transform="translate(-134.286 -138.184)" fill="#fff"/>
        <path id="Path_58650" data-name="Path 58650" d="M569.964,461.345l14.7-8.027-3.624-1.979-14.7,8.034Z" transform="translate(-146.605 -116.836)" fill="#fff"/>
        <path id="Path_58651" data-name="Path 58651" d="M468.657,516.325l14.7-8.027-3.617-1.979-14.7,8.027Z" transform="translate(-120.382 -131.068)" fill="#fff"/>
        <path id="Path_58652" data-name="Path 58652" d="M627.285,474.27v2.846l-106,57.875v-2.846Z" transform="translate(-134.941 -122.772)" fill="#2a7f38"/>
        <path id="Path_58653" data-name="Path 58653" d="M442.54,509.37v2.853L500.9,544.077v-2.846Z" transform="translate(-114.558 -131.858)" fill="#2a7f38"/>
        <path id="Path_58654" data-name="Path 58654" d="M442.54,489.158,500.9,521.019l106-57.875L548.552,431.29Z" transform="translate(-114.558 -111.646)" fill="#329345"/>
        <path id="Path_58655" data-name="Path 58655" d="M455.18,490.895,504.7,517.924l97.163-53.095L552.343,437.8Z" transform="translate(-117.83 -113.331)" fill="#4bb75d"/>
        <path id="Path_58656" data-name="Path 58656" d="M542.769,473.75c13.9,0,25.162,6,25.162,13.392s-11.265,13.392-25.162,13.392-25.2-6-25.2-13.392S528.872,473.75,542.769,473.75Z" transform="translate(-133.981 -122.637)" fill="#58c468"/>
        <path id="Path_58657" data-name="Path 58657" d="M504.919,504.77c7.2,0,13.029,3.105,13.029,6.93s-5.833,6.937-13.029,6.937-13.029-3.105-13.029-6.937S497.723,504.77,504.919,504.77Z" transform="translate(-127.333 -130.667)" fill="#58c468"/>
        <path id="Path_58658" data-name="Path 58658" d="M507.091,509.23c3.765,0,6.811,1.623,6.811,3.624s-3.046,3.624-6.811,3.624-6.811-1.623-6.811-3.624S503.334,509.23,507.091,509.23Z" transform="translate(-129.505 -131.822)" fill="#6fd17d"/>
        <path id="Path_58659" data-name="Path 58659" d="M594.239,456.06c7.2,0,13.029,3.105,13.029,6.937s-5.833,6.937-13.029,6.937S581.21,466.829,581.21,463,587.043,456.06,594.239,456.06Z" transform="translate(-150.455 -118.058)" fill="#58c468"/>
        <path id="Path_58660" data-name="Path 58660" d="M596.414,460.53c3.765,0,6.811,1.623,6.811,3.624s-3.046,3.624-6.811,3.624-6.8-1.623-6.8-3.624S592.656,460.53,596.414,460.53Z" transform="translate(-152.629 -119.215)" fill="#6fd17d"/>
        <path id="Path_58661" data-name="Path 58661" d="M558.992,493.828a7.411,7.411,0,0,0,3.305-3.313l-5.41-2.964-2.964,1.334,2.1,1.149c.652.356.83.541.586.912a3.431,3.431,0,0,1-1.156.949l-6.789-3.706c1.593-1.86,2.438-3.869-1.771-6.166a14.023,14.023,0,0,0-11.377-1.008l-3.342-1.823L530.14,480.3l3.261,1.786a6.944,6.944,0,0,0-2.839,3.061l5.121,2.794,2.89-1.341-1.964-1.067c-.652-.356-.83-.541-.578-.912a3.6,3.6,0,0,1,.741-.689l6.4,3.491h0c-1.423,1.838-2.505,3.98,1.89,6.381a14.585,14.585,0,0,0,11.791,1.06l3.743,2.038,2.046-1.112Zm-11.48-4.039,5.662,3.091a6.477,6.477,0,0,1-4.565-.793C547.231,491.33,547.082,490.574,547.512,489.788Zm-3.224-3.987-5.232-2.861a5.929,5.929,0,0,1,4.106.7c1.3.711,1.453,1.386,1.126,2.164Z" transform="translate(-137.234 -124.045)" fill="#fff"/>
        <path id="Path_58662" data-name="Path 58662" d="M622.674,480.835l14.7-8.026-3.624-1.979-14.7,8.034Z" transform="translate(-160.25 -121.881)" fill="#fff"/>
        <path id="Path_58663" data-name="Path 58663" d="M521.367,535.815l14.7-8.026-3.617-1.979-14.7,8.026Z" transform="translate(-134.027 -136.113)" fill="#fff"/>
        <path id="Path_58664" data-name="Path 58664" d="M568.964,453.345l14.7-8.027-3.624-1.979-14.7,8.034Z" transform="translate(-146.346 -114.765)" fill="#fff"/>
        <path id="Path_58665" data-name="Path 58665" d="M467.657,508.325l14.7-8.026-3.617-1.979-14.7,8.026Z" transform="translate(-120.123 -128.997)" fill="#fff"/>
        <path id="Path_58666" data-name="Path 58666" d="M627.285,466.27v2.846l-106,57.875v-2.846Z" transform="translate(-134.941 -120.701)" fill="#2a7f38"/>
        <path id="Path_58667" data-name="Path 58667" d="M442.54,501.37v2.853L500.9,536.078v-2.846Z" transform="translate(-114.558 -129.787)" fill="#2a7f38"/>
        <path id="Path_58668" data-name="Path 58668" d="M442.54,481.158,500.9,513.019l106-57.875L548.552,423.29Z" transform="translate(-114.558 -109.575)" fill="#329345"/>
        <path id="Path_58669" data-name="Path 58669" d="M455.18,482.9,504.7,509.924l97.163-53.095L552.343,429.8Z" transform="translate(-117.83 -111.26)" fill="#4bb75d"/>
        <path id="Path_58670" data-name="Path 58670" d="M542.769,465.75c13.9,0,25.162,6,25.162,13.392s-11.265,13.392-25.162,13.392-25.2-6-25.2-13.392S528.872,465.75,542.769,465.75Z" transform="translate(-133.981 -120.566)" fill="#58c468"/>
        <path id="Path_58671" data-name="Path 58671" d="M504.919,496.77c7.2,0,13.029,3.105,13.029,6.93s-5.833,6.937-13.029,6.937-13.029-3.105-13.029-6.937S497.723,496.77,504.919,496.77Z" transform="translate(-127.333 -128.596)" fill="#58c468"/>
        <path id="Path_58672" data-name="Path 58672" d="M507.091,501.23c3.765,0,6.811,1.623,6.811,3.624s-3.046,3.624-6.811,3.624-6.811-1.623-6.811-3.624S503.334,501.23,507.091,501.23Z" transform="translate(-129.505 -129.751)" fill="#6fd17d"/>
        <path id="Path_58673" data-name="Path 58673" d="M594.239,448.06c7.2,0,13.029,3.105,13.029,6.937s-5.833,6.937-13.029,6.937S581.21,458.829,581.21,455,587.043,448.06,594.239,448.06Z" transform="translate(-150.455 -115.987)" fill="#58c468"/>
        <path id="Path_58674" data-name="Path 58674" d="M596.414,452.53c3.765,0,6.811,1.623,6.811,3.624s-3.046,3.624-6.811,3.624-6.8-1.623-6.8-3.624S592.656,452.53,596.414,452.53Z" transform="translate(-152.629 -117.144)" fill="#6fd17d"/>
        <path id="Path_58675" data-name="Path 58675" d="M558.992,485.827a7.411,7.411,0,0,0,3.305-3.313l-5.41-2.965-2.964,1.334,2.1,1.149c.652.356.83.541.586.912a3.429,3.429,0,0,1-1.156.949l-6.789-3.706c1.593-1.86,2.438-3.869-1.771-6.166a14.023,14.023,0,0,0-11.377-1.008l-3.342-1.823L530.14,472.3l3.261,1.786a6.944,6.944,0,0,0-2.839,3.061l5.121,2.794,2.89-1.341-1.964-1.067c-.652-.356-.83-.541-.578-.912a3.6,3.6,0,0,1,.741-.689l6.4,3.491h0c-1.423,1.838-2.505,3.98,1.89,6.381a14.585,14.585,0,0,0,11.791,1.06l3.743,2.038,2.046-1.112Zm-11.48-4.039,5.662,3.091a6.477,6.477,0,0,1-4.565-.793C547.231,483.33,547.082,482.574,547.512,481.788Zm-3.224-3.987-5.232-2.861a5.93,5.93,0,0,1,4.106.7c1.3.712,1.453,1.386,1.126,2.164Z" transform="translate(-137.234 -121.974)" fill="#fff"/>
        <path id="Path_58676" data-name="Path 58676" d="M622.674,472.835l14.7-8.026-3.624-1.979-14.7,8.034Z" transform="translate(-160.25 -119.81)" fill="#fff"/>
        <path id="Path_58677" data-name="Path 58677" d="M521.367,527.815l14.7-8.027-3.617-1.979-14.7,8.026Z" transform="translate(-134.027 -134.043)" fill="#fff"/>
        <path id="Path_58678" data-name="Path 58678" d="M568.964,445.345l14.7-8.026-3.624-1.979-14.7,8.034Z" transform="translate(-146.346 -112.694)" fill="#fff"/>
        <path id="Path_58679" data-name="Path 58679" d="M467.657,500.325l14.7-8.027-3.617-1.979-14.7,8.027Z" transform="translate(-120.123 -126.926)" fill="#fff"/>
        <path id="Path_58680" data-name="Path 58680" d="M112.478,173.511c-.837-2.223,13.637-3.921,13.637-3.921s0,10.806.422,15.349c.593,6.863.459,10.146-1.519,19.358-.875,4.084-1.979,19.559-1.682,25.006.43,7.982,4.113,11.754,5.358,13.726s-3.506,3.832-6.515.956-3.32-3.439-5.017-4.336-1.119-3.053-1-7.56c.1-3.491-1.416-15.1-1.994-22.538-.823-10.561,1.482-10.791,1.334-16.135A80.129,80.129,0,0,0,112.478,173.511Z" transform="translate(-29.107 -43.901)" fill="#f99"/>
        <path id="Path_58681" data-name="Path 58681" d="M115.536,256.192v-.059a2.723,2.723,0,0,1,.1-.282h0a6.612,6.612,0,0,1,1.275-1.971s.741,6.389,4.447,9.02c4.195,2.965,6.07,3.387,8.064,1.92a42.737,42.737,0,0,0,3.32,4.061c1.238,1.371.2,2.757-3.454,2.49a9.205,9.205,0,0,1-6.226-3.076c-1.6-2.053-2.846-4.262-4.343-5.6-.237-.208-.43-.393-.637-.578h0c-.111,1.7-.059,2.779-.141,4-.356.563-.9.422-1.327,0-.245-1.349.074-2.594-.682-5.077A9.469,9.469,0,0,1,115.536,256.192Z" transform="translate(-29.868 -65.72)" fill="#669"/>
        <path id="Path_58682" data-name="Path 58682" d="M97.4,181.271c-.837-2.223,13.644-3.921,13.644-3.921s0,10.806.422,15.349c.593,6.863.46,10.146-1.482,19.358-.882,4.084-1.986,19.559-1.69,25.006.437,7.982,4.113,11.754,5.358,13.726s-3.506,3.832-6.507.956-3.32-3.431-5.017-4.336-1.127-3.053-1-7.56c.1-3.491-1.416-15.1-1.994-22.538-.823-10.561,1.482-10.791,1.334-16.135A80.754,80.754,0,0,0,97.4,181.271Z" transform="translate(-25.204 -45.91)" fill="#fcc"/>
        <path id="Path_58683" data-name="Path 58683" d="M100.517,263.745v-.059a1.707,1.707,0,0,1,.089-.274h0a6.559,6.559,0,0,1,1.282-1.971s.741,6.389,4.447,9.027c4.187,2.965,6.062,3.38,8.056,1.912a42.287,42.287,0,0,0,3.328,4.061c1.23,1.378.193,2.757-3.461,2.5a9.22,9.22,0,0,1-6.218-3.083c-1.608-2.046-2.846-4.262-4.35-5.6l-.637-.578h0c-.111,1.69-.052,2.772-.141,3.995-.348.563-.9.43-1.319,0-.245-1.349.074-2.587-.689-5.077A9.61,9.61,0,0,1,100.517,263.745Z" transform="translate(-25.981 -67.678)" fill="#669"/>
        <path id="Path_58684" data-name="Path 58684" d="M139.519,103.7c-.5-.808-1-1.6-1.482-2.327-3.765-5.692-8.99-18.573-15.816-21.078-7-2.564-8.271,2.335-8.271,2.335L130.7,110.61A16.424,16.424,0,0,0,139.519,103.7Z" transform="translate(-29.498 -20.592)" fill="#669"/>
        <path id="Path_58685" data-name="Path 58685" d="M104.274,68.18s-3.387,3.795-4.513,12.6S98.982,92,98.982,92s7.537.941,9.235-2.92S104.274,68.18,104.274,68.18Z" transform="translate(-25.61 -17.649)" fill="#633"/>
        <path id="Path_58686" data-name="Path 58686" d="M124.815,139.48a70.178,70.178,0,0,1,.986,11.5c.178,9.131-.949,27.555-.949,27.555s-2.223,3.128-7.723,4.662c-3.661,1.015-9.776,1.253-14-.371-.934-4.084-1.749-10.242-1.749-10.242-.259,2.89-1.482,6.952-1.579,9.635a8.271,8.271,0,0,1-3.9-2.1s-.741-7.411-1.423-15.49c-.682-7.73-.311-14.927,3.039-23.294C102.767,128.23,124.519,132.388,124.815,139.48Z" transform="translate(-24.384 -34.38)" fill="#669"/>
        <path id="Path_58687" data-name="Path 58687" d="M92.779,96.68C93.52,91.766,104.637,85.1,104.637,85.1s1.831,5.477,3.55,6.826a44.046,44.046,0,0,1,4.61,4.862h0a37.273,37.273,0,0,0-2.06-9.524c-.541-1.482.274-5.729.274-5.729s.682-.17,1.668-.348c1.482,1.638,4.388,5.988,5.929,7.8s6,7.767,4.632,13.466a62.882,62.882,0,0,0-1.653,13.652c.141,2.75,3.053,11.5,3.053,11.5s-2.883,7.189-13.452,5.544a30.949,30.949,0,0,1-13.541-5.929s1.9-11.984,1.645-16.928A13.185,13.185,0,0,1,92.779,96.68Z" transform="translate(-23.972 -21.017)" fill="#fff"/>
        <path id="Path_58688" data-name="Path 58688" d="M119.93,86.884s2.424,6.893,4.677,12.962,2.223,22.931,2.868,25.436c1.075,4.1,4,5.7,5.974,4.291,0,0-4.514-19.8-3.024-26.577s-.141-8.493-4.758-14.615-4.491-4.98-4.491-4.98Z" transform="translate(-31.046 -21.568)" fill="#66c"/>
        <path id="Path_58689" data-name="Path 58689" d="M120.606,85.168l5.188,7-1.327,1.853a7.175,7.175,0,0,1,2.038,1.875c.044,3.083-.934,11.74-.934,11.74a60.941,60.941,0,0,0-6.9-17.676c-1.608-2.594-.667-2.624-.667-2.624S119.768,85.042,120.606,85.168Z" transform="translate(-30.476 -22.046)" fill="#669"/>
        <path id="Path_58690" data-name="Path 58690" d="M115.1,79.424a44.747,44.747,0,0,0,1.26,7.878,1.549,1.549,0,0,1-1.282,1.823c-1.3.237-3.884.059-4.7-.593-3.706-2.965-4.232-4.491-4.232-4.491s.741-3.439.838-4.684c.148-2.068,0-8.827,0-8.827Z" transform="translate(-27.478 -18.258)" fill="#f99"/>
        <path id="Path_58691" data-name="Path 58691" d="M118.978,94.481a8.435,8.435,0,0,1,.252,2.69c-.163,1.1-.875,1.482-1.979.585a5.514,5.514,0,0,1-1.571-2.164A2.625,2.625,0,0,1,118.978,94.481Z" transform="translate(-29.945 -24.392)" fill="#f69"/>
        <path id="Path_58692" data-name="Path 58692" d="M119.6,98.3a25.324,25.324,0,0,1,3.217,7.367,158.365,158.365,0,0,1,3.528,16.127,13.341,13.341,0,0,1-2.223,4.343l-3.55-3.083L118.46,98.885Z" transform="translate(-30.665 -25.446)" fill="#f69"/>
        <path id="Path_58693" data-name="Path 58693" d="M119.28,86.259s1.141.823,1.994,4.832a6,6,0,0,1-.519,4.3l-2.965-3.38a9.086,9.086,0,0,0,.437-5.751C117.946,84.9,119.28,86.259,119.28,86.259Z" transform="translate(-30.492 -22.173)" fill="#ccc"/>
        <path id="Path_58694" data-name="Path 58694" d="M108.287,58.31c3.068-2.6,10.613-3.78,13.785,3.913,3.328,8.056-3.572,18.7-7.619,17.165-2.268-.86-6.87-2.965-8.4-7.219C104.344,67.36,105.9,60.319,108.287,58.31Z" transform="translate(-27.266 -14.583)" fill="#fcc"/>
        <path id="Path_58695" data-name="Path 58695" d="M102.727,86.47a43.616,43.616,0,0,1,9.635,19.64c.66,3.261,2.29,10.428,2.616,16.661.348,6.589-.7,12.214-3.224,14.185-7.634,5.929-16.92-3.053-16.92-3.053s3.706-12.429,3.053-16.268-5.455-20.559-3.913-23.279S102.727,86.47,102.727,86.47Z" transform="translate(-24.248 -22.384)" fill="#66c"/>
        <path id="Path_58696" data-name="Path 58696" d="M105.855,85.17s-.3,3.283,3.706,7.745c6.144,6.855,5.981,17.365,5.981,17.365l-8.034-10.161,1.371-2.965-3.15-.193a17,17,0,0,1-2.779-8.53C102.987,86.1,105.855,85.17,105.855,85.17Z" transform="translate(-26.65 -22.047)" fill="#669"/>
        <path id="Path_58697" data-name="Path 58697" d="M113.85,97.726a27.333,27.333,0,0,0,1.127-5.373s-5.47-2.527-7.938-5.373C106.675,90.434,109.381,96.081,113.85,97.726Z" transform="translate(-27.7 -22.516)" fill="#ccc"/>
        <path id="Path_58698" data-name="Path 58698" d="M88.875,147.969s2.038,1.482,4.262-.793,3.372-4.447,2.157-5.6-3.231-1.349-5.521.674A4.714,4.714,0,0,0,88.875,147.969Z" transform="translate(-22.854 -36.428)" fill="#339"/>
        <path id="Path_58699" data-name="Path 58699" d="M92.3,93.847c-2.512-.274-6,5.41-10.376,12.97S76.215,119.238,76,123.122a8,8,0,0,0,1.542,4.01c2.127,3.142,5.751,7.337,8.152,8.731.252-2.416.9-4.336,2.624-5.67a6.251,6.251,0,0,1,3.795-.741l-5.358-8.723s6.352-7.315,8.679-13.585C97.493,101.7,95.351,94.173,92.3,93.847Z" transform="translate(-19.674 -24.291)" fill="#669"/>
        <path id="Path_58700" data-name="Path 58700" d="M115.366,63.229s-5.188,6.033-10.761,7.411c-2.579-5.914-3.12-7.537-1.838-11.273a6.274,6.274,0,0,1,5.929-4.21s4.521-5.047,10.91-.452c9.279,6.67,2.179,14.556,2.179,14.556S121.407,65.363,115.366,63.229Z" transform="translate(-26.43 -13.661)" fill="#633"/>
        <path id="Path_58701" data-name="Path 58701" d="M110.625,75.12a7.263,7.263,0,0,0-1.3-1.4c-.571-.445-1.668-.571-1.986,1.1a2.816,2.816,0,0,0,1.393,3.15Z" transform="translate(-27.766 -19.009)" fill="#fcc"/>
        <path id="Path_58702" data-name="Path 58702" d="M139.506,106.983c.393,0,16.475-2.164,18.528-2.223-.637,3.372-1.43,4.4,1.571,7.5-1.334,1.712-7.523,2.846-11.8,4.047-3.342.949-6.151,1.912-8.278,2.031a3.713,3.713,0,0,1-3.343-1.186C132.791,112.927,139.506,106.983,139.506,106.983Z" transform="translate(-35.005 -27.119)" fill="#669"/>
        <path id="Path_58703" data-name="Path 58703" d="M176.546,0,130.61,35.115l12.94,8.908L109.191,114.6,80.532,95.355,0,257.841l31.306-18.076L85.712,130.388,114.127,149.7l45.98-94.332,11.517,7.8Z" fill="#5aad66"/>
        <path id="Path_58704" data-name="Path 58704" d="M186.646,5.86,140.7,40.968l12.948,8.916-34.359,70.578-28.66-19.247L10.1,263.694l31.306-18.069L95.812,136.248l28.415,19.314L170.2,61.223l11.525,7.812Z" transform="translate(-2.615 -1.517)" fill="#329345"/>
        <path id="Path_58705" data-name="Path 58705" d="M7.485,295.482,0,291.147,80.532,128.66,88.017,133Z" transform="translate(0 -33.305)" fill="#5aad66"/>
        <path id="Path_58706" data-name="Path 58706" d="M154.069,201.1l-7.485-4.343-21.2-14.415.274-.556Z" transform="translate(-32.456 -47.059)" fill="#066"/>
        <path id="Path_58707" data-name="Path 58707" d="M229.651,4.343,222.166,0,176.23,35.115l7.478,4.336Z" transform="translate(-45.62)" fill="#5aad66"/>
        <path id="Path_58708" data-name="Path 58708" d="M176.23,47.38l7.478,4.336,12.948,8.916-7.485-4.343Z" transform="translate(-45.62 -12.265)" fill="#066"/>
        <path id="Path_58709" data-name="Path 58709" d="M230.066,84.029l7.485,4.343L226.027,80.56l-.267.556Z" transform="translate(-58.441 -20.854)" fill="#066"/>
        <path id="Path_58710" data-name="Path 58710" d="M165.5,103.013s1.482-1.66,3-3.091,2.127-3.513,2.735-4.239,1.668.422.786,2.223l-1.934,3.965-3.565,7.33S163.59,108.008,165.5,103.013Z" transform="translate(-42.674 -24.712)" fill="#f99"/>
        <path id="Path_58711" data-name="Path 58711" d="M89.46,146.839a6.977,6.977,0,0,0,1.882,2.26c1.215.593,2.223.534,3.335,1.141a11.784,11.784,0,0,0,5.025,1.934,3.082,3.082,0,0,0,2.9-4.98c-2.164-2.416-3.15-3.809-4.41-4.047a15.217,15.217,0,0,1-4.447-1.253C89.46,141.592,89.46,146.839,89.46,146.839Z" transform="translate(-23.158 -36.728)" fill="#fcc"/>
        <path id="Path_58712" data-name="Path 58712" d="M164.11,573.8v59.439c1.008,13.785,12.214,27.489,32.877,37.124,26.829,12.518,62.181,14.734,90.863,7.456V573.8Z" transform="translate(-42.482 -148.536)" fill="#156823"/>
        <path id="Path_58713" data-name="Path 58713" d="M379.2,633.252V594.713L331.1,573.85V677.832c11.325-2.868,21.641-7.174,29.927-12.977C374.123,655.672,379.993,644.429,379.2,633.252Z" transform="translate(-85.71 -148.549)" fill="#38683f"/>
        <path id="Path_58714" data-name="Path 58714" d="M182.249,525.182c-13.111,9.183-18.98,20.418-18.165,31.6h85.89V508.107C224.449,507.536,199.2,513.317,182.249,525.182Z" transform="translate(-42.456 -131.521)" fill="#329345"/>
        <path id="Path_58715" data-name="Path 58715" d="M164.11,613.15c1.008,13.792,12.214,27.5,32.877,37.131,26.829,12.518,62.181,14.734,90.863,7.456L250,613.15Z" transform="translate(-42.482 -158.723)" fill="#2b993b"/>
        <path id="Path_58716" data-name="Path 58716" d="M365.969,577.091c-1.03-13.785-12.244-27.489-32.906-37.124C317.3,532.608,298.57,528.85,279.99,528.42v48.67l37.857,44.587c11.325-2.868,21.641-7.174,29.927-12.985C360.892,599.517,366.762,588.274,365.969,577.091Z" transform="translate(-72.479 -136.789)" fill="#3e9e49"/>
        <rect id="Rectangle_40342" data-name="Rectangle 40342" width="85.883" height="29.164" transform="translate(121.628 425.264)" fill="#30773b"/>
        <path id="Path_58717" data-name="Path 58717" d="M317.847,638.679,279.99,594.1v14.119l37.857,44.587Z" transform="translate(-72.479 -153.791)" fill="#316035"/>
        <path id="Path_58718" data-name="Path 58718" d="M198.466,557.088c-2.535,6.352-5.974,22.857-5.788,24.85.415,4.262,7.626,8.582,8.849,5.262,1.482-4.024,4.173-13.125,5.069-15.46a192.647,192.647,0,0,0,5.759-19.27c.4-7.078,3.943-19.04,8.59-23.872,0,0-3.98-2.06-6.959.66a43.256,43.256,0,0,0-7.856,10.139C205.143,541.339,200.452,552.115,198.466,557.088Z" transform="translate(-49.876 -136.642)" fill="#669"/>
        <path id="Path_58719" data-name="Path 58719" d="M148.255,711.462c-3.068,2.965-4.017,3.854-6.863,6.67-1.66,1.623-.3,3.113,2.876,2.964a57.585,57.585,0,0,0,12.6-2.727,63.735,63.735,0,0,0,9.449-4.921,6.248,6.248,0,0,0,2.8-3.55V704.91l-15.082.645S151.567,708.23,148.255,711.462Z" transform="translate(-36.417 -182.476)" fill="#633"/>
        <path id="Path_58720" data-name="Path 58720" d="M184.073,731.376c-3.068,2.964-4.017,3.854-6.863,6.626-1.668,1.623-.3,3.12,2.876,2.964a57.69,57.69,0,0,0,12.6-2.727,64.17,64.17,0,0,0,9.449-4.929,6.263,6.263,0,0,0,2.8-3.543V721l-15.082,4.447S187.386,728.152,184.073,731.376Z" transform="translate(-45.689 -186.641)" fill="#633"/>
        <path id="Path_58721" data-name="Path 58721" d="M232.423,613.6,202.281,602a85.7,85.7,0,0,1-14.022,10.235c-5.3,3.2-19.907,11.791-24.583,15.089-2.883,2.038-4.18,6.433-5.3,16.3-1.853,16.3-3.217,35-3.217,35s3.261,4.565,10.65,4.536a28.68,28.68,0,0,0,9.916-1.786l1.149-37.613,24.68-14.252s-14,8.664-16.008,16.357a75.622,75.622,0,0,0-2.4,18.625c-.526,16.616-.7,27.481-.7,27.481s1.089,5.514,8.479,5.485c5.677,0,10.376-4.64,10.376-4.64l1.482-38.072s21.315-15.193,26.9-21.619C235.929,625.968,232.423,613.6,232.423,613.6Z" transform="translate(-40.165 -155.836)" fill="#669"/>
        <path id="Path_58722" data-name="Path 58722" d="M216.758,530.714s-9.02,7.286-10.087,17.572c-.534,5.107.845,22.619.889,33.9-4.343,2.964-16.72,10.2-16.72,10.2s9.968,3.068,13.874,9.939a33.765,33.765,0,0,0,7.226-4.239s-.408,1.141-2.668,5.684c2.713.823,12-1.341,20.626,2.394s14.615,2.068,14.615,2.068a47.6,47.6,0,0,0,.437-14.289c-.949-6.225-3.268-13.111-2.794-16.772,1.482-11.428,3.706-29.9,3.305-32.929-.674-5.062-12.14-10.539-12.14-10.539S225.184,527.4,216.758,530.714Z" transform="translate(-49.402 -137.134)" fill="#66c"/>
        <path id="Path_58723" data-name="Path 58723" d="M227.9,529.75s-5.262,0-9.716,8.671c-1.6,3.1-2.661,4.773-2.661,4.773l2.661,2.594-3.772,1.808s-1.371,13.207-.274,18.669c1.208,6.04,7.337,17.046,7.337,17.046s3.98-12.333,5.729-15.408,8.338-11.577,8.338-11.577l-3.305-4.988,5.4-1.764s7.6-9.524,6.8-12.392a9.338,9.338,0,0,0-6.67-6.47Z" transform="translate(-55.324 -137.133)" fill="#669"/>
        <path id="Path_58724" data-name="Path 58724" d="M223.246,542.819a122.231,122.231,0,0,0-3.335,12.347c-1.171,5.87,2.09,25.028,2.09,25.028s2.905-18.721,6.729-24.146a123.749,123.749,0,0,1,10.45-12.54S227.145,541.337,223.246,542.819Z" transform="translate(-56.862 -140.383)" fill="#eee"/>
        <path id="Path_58725" data-name="Path 58725" d="M225.868,544.33l-.637,5.01a13.6,13.6,0,0,0-3.595,6.352c-.63,3.5-.445,16.587-.445,16.587l1.215,8.219,1.764-5.655s1.356-7.789,2.512-12.6a30.218,30.218,0,0,1,.526-4.358,34.261,34.261,0,0,0,.971-7.226l3.128-3.706-2.965-3.483Z" transform="translate(-57.252 -140.685)" fill="#f69"/>
        <path id="Path_58726" data-name="Path 58726" d="M229.961,527.972l-.541,7.923a21.026,21.026,0,0,0,3.706,3.832c2.861-.889,9.509-7.056,9.509-7.056l-2.223-12.31Z" transform="translate(-59.389 -134.703)" fill="#f99"/>
        <path id="Path_58727" data-name="Path 58727" d="M239.077,500.742c-2.965-3.795-11.554-7-17.135,1.267-5.855,8.657-.319,22.827,4.81,22,2.868-.459,9.331-3.083,12.169-7.708C242.086,511.1,241.39,503.7,239.077,500.742Z" transform="translate(-56.802 -128.61)" fill="#fcc"/>
        <path id="Path_58728" data-name="Path 58728" d="M228.406,533.55l.645,7.322-5.188,2.134S223.262,535.24,228.406,533.55Z" transform="translate(-57.944 -138.117)" fill="#fff"/>
        <path id="Path_58729" data-name="Path 58729" d="M242.219,531.05a38.752,38.752,0,0,1-4.847,5.662,18.275,18.275,0,0,1-6.552,3.513l1.971,5.929s7.2-3.306,9.85-6.188C242.641,539.907,245.776,534.533,242.219,531.05Z" transform="translate(-59.751 -137.47)" fill="#fff"/>
        <path id="Path_58730" data-name="Path 58730" d="M219.637,503.9c1.193,1.9,3.046,4.128,7.819,4.38a19.146,19.146,0,0,0,7-.963l-.341,5.188a4.515,4.515,0,0,0,1.438-.2c.511-1.979,1.364-2.446,2.327-1.608,1.1.949.941,4.573.941,4.573a13.341,13.341,0,0,0,4.113-9.539c0-3.706-3.261-11.791-10.087-12.636s-11.673,2.72-13.34,6.366a4.818,4.818,0,0,0,.133,4.439Z" transform="translate(-56.698 -127.612)" fill="#633"/>
        <rect id="Rectangle_40343" data-name="Rectangle 40343" width="1.986" height="1.542" transform="translate(124.563 462.061)" fill="#aaa"/>
        <path id="Path_58731" data-name="Path 58731" d="M196.473,638.048l-27.422-15.831c-1.438-.838-1.26-2.3.408-3.268l18.313-10.576a6.314,6.314,0,0,1,5.655-.23l27.422,15.831c1.445.838,1.26,2.3-.408,3.261l-18.328,10.576A6.285,6.285,0,0,1,196.473,638.048Z" transform="translate(-43.51 -157.281)" fill="#aaa"/>
        <rect id="Rectangle_40344" data-name="Rectangle 40344" width="1.23" height="1.512" transform="translate(177.072 466.567)" fill="#aaa"/>
        <path id="Path_58732" data-name="Path 58732" d="M196.473,636.1l-27.422-15.831c-1.438-.83-1.26-2.3.408-3.261l18.313-10.576a6.316,6.316,0,0,1,5.655-.237l27.422,15.838c1.445.83,1.26,2.3-.408,3.261l-18.328,10.576A6.26,6.26,0,0,1,196.473,636.1Z" transform="translate(-43.51 -156.777)" fill="#ddd"/>
        <path id="Path_58733" data-name="Path 58733" d="M192.456,607.1,173.12,618.247l28.808,16.542,19.388-11.117Z" transform="translate(-44.815 -157.157)" fill="#aaa" opacity="0.5"/>
        <path id="Path_58734" data-name="Path 58734" d="M196.462,606.84l-1.482.86,28.808,16.542,1.534-.823Z" transform="translate(-50.473 -157.089)" fill="#ddd"/>
        <path id="Path_58735" data-name="Path 58735" d="M226.125,627.73l-1.475.852,4.358,2.483,1.534-.823Z" transform="translate(-58.154 -162.497)" fill="#ddd"/>
        <path id="Path_58736" data-name="Path 58736" d="M219.672,623.98l-1.482.86,3.061,1.764,1.534-.823Z" transform="translate(-56.482 -161.526)" fill="#ddd"/>
        <path id="Path_58737" data-name="Path 58737" d="M214.522,621.05l-1.482.86,3.061,1.771,1.534-.823Z" transform="translate(-55.149 -160.768)" fill="#ddd"/>
        <path id="Path_58738" data-name="Path 58738" d="M209.4,618.12l-1.482.86,3.061,1.764,1.534-.823Z" transform="translate(-53.823 -160.009)" fill="#ddd"/>
        <path id="Path_58739" data-name="Path 58739" d="M221.735,633.29l-1.475.852,2.149,1.245,1.534-.823Z" transform="translate(-57.017 -163.936)" fill="#ddd"/>
        <path id="Path_58740" data-name="Path 58740" d="M217.5,630.82l-1.482.86,2.149,1.238,1.534-.823Z" transform="translate(-55.92 -163.297)" fill="#ddd"/>
        <path id="Path_58741" data-name="Path 58741" d="M212.275,627.87l-1.475.852,3.061,1.771,1.534-.83Z" transform="translate(-54.569 -162.533)" fill="#ddd"/>
        <path id="Path_58742" data-name="Path 58742" d="M218.322,635.26l-1.482.86L219,637.365l1.527-.83Z" transform="translate(-56.132 -164.446)" fill="#ddd"/>
        <path id="Path_58743" data-name="Path 58743" d="M214.082,632.79l-1.482.86,2.157,1.245,1.527-.83Z" transform="translate(-55.035 -163.807)" fill="#ddd"/>
        <path id="Path_58744" data-name="Path 58744" d="M214.692,637.17l-1.482.86,2.157,1.245,1.534-.83Z" transform="translate(-55.192 -164.94)" fill="#ddd"/>
        <path id="Path_58745" data-name="Path 58745" d="M210.452,634.7l-1.482.86,2.157,1.245,1.527-.83Z" transform="translate(-54.095 -164.301)" fill="#ddd"/>
        <path id="Path_58746" data-name="Path 58746" d="M208.862,629.84l-1.482.86,3.061,1.764,1.534-.823Z" transform="translate(-53.683 -163.043)" fill="#ddd"/>
        <path id="Path_58747" data-name="Path 58747" d="M207.3,624.94l-1.475.86,3.061,1.764,1.534-.823Z" transform="translate(-53.282 -161.775)" fill="#ddd"/>
        <path id="Path_58748" data-name="Path 58748" d="M202.185,622.01l-1.475.852,3.061,1.771,1.527-.83Z" transform="translate(-51.957 -161.016)" fill="#ddd"/>
        <path id="Path_58749" data-name="Path 58749" d="M221.535,629.06l-1.475.86,5.092,2.913,1.534-.823Z" transform="translate(-56.966 -162.841)" fill="#ddd"/>
        <path id="Path_58750" data-name="Path 58750" d="M216.075,625.9l-1.475.852,3.061,1.771,1.534-.823Z" transform="translate(-55.552 -162.023)" fill="#ddd"/>
        <path id="Path_58751" data-name="Path 58751" d="M210.925,622.97l-1.475.86,3.061,1.764,1.534-.823Z" transform="translate(-54.219 -161.265)" fill="#ddd"/>
        <path id="Path_58752" data-name="Path 58752" d="M205.8,620.04l-1.475.852,3.061,1.771,1.534-.823Z" transform="translate(-52.894 -160.506)" fill="#ddd"/>
        <path id="Path_58753" data-name="Path 58753" d="M216.732,612.32s-4.5,2.327-7.337,3.706-11.273,8.679-9.472,10.376,6.211,3.6,7.411,3.357,4.076-3.254,4.536-3.935,5.929-2.779,7.515-5.188S216.732,612.32,216.732,612.32Z" transform="translate(-51.688 -158.508)" fill="#fcc"/>
        <path id="Path_58754" data-name="Path 58754" d="M201.51,605.059l.081,23.309a2.26,2.26,0,0,1-3.387,1.971L170.723,614.6a2.223,2.223,0,0,1-1.141-1.949l-.082-23.309a2.26,2.26,0,0,1,3.387-1.971L200.368,603.1a2.283,2.283,0,0,1,1.141,1.957Z" transform="translate(-43.878 -151.973)" fill="#888"/>
        <path id="Path_58755" data-name="Path 58755" d="M210.539,644.117l-1.46.852-1.779-1.853,3.506-2.157Z" transform="translate(-53.663 -165.922)" fill="#888"/>
        <path id="Path_58756" data-name="Path 58756" d="M170.5,587.59l-1,.586,2.616.037Z" transform="translate(-43.878 -152.106)" fill="#888"/>
        <path id="Path_58757" data-name="Path 58757" d="M199.98,605.956l.089,23.3a2.26,2.26,0,0,1-3.387,1.971L169.193,615.5a2.26,2.26,0,0,1-1.134-1.956L168,590.206a2.26,2.26,0,0,1,3.387-1.971l27.481,15.734A2.224,2.224,0,0,1,199.98,605.956Z" transform="translate(-43.489 -152.195)" fill="#ccc"/>
        <path id="Path_58758" data-name="Path 58758" d="M177.6,631.071l-6.492-3.75V624.49l6.492,3.75Z" transform="translate(-44.294 -161.658)" fill="#ddd"/>
        <path id="Path_58759" data-name="Path 58759" d="M201.48,644.871l-6.5-3.75V638.29l6.5,3.75Z" transform="translate(-50.473 -165.231)" fill="#ddd"/>
        <path id="Path_58760" data-name="Path 58760" d="M189.685,616.787c0,1.357-1.208,1.764-2.7.9a5.42,5.42,0,0,1-2.7-4.024c0-1.364,1.208-1.764,2.7-.9A5.421,5.421,0,0,1,189.685,616.787Z" transform="translate(-47.706 -158.506)" fill="#fff"/>
        <path id="Path_58761" data-name="Path 58761" d="M257.652,573.271c1.742-12.214,1.653-22.76-4.988-27.133-4.832-3.18-7.678,9.753-8.99,19.41-.319,2.32-2.505,12.992-3.039,15.512-3.231.778-20.752,12.169-22.975,14.252.548,1.1,4.632,4.15,5.818,10.769,7.278-1.608,18.773-8.686,26.414-12.6C255.576,590.555,256.836,578.993,257.652,573.271Z" transform="translate(-56.344 -141.249)" fill="#669"/>
        <path id="Path_58762" data-name="Path 58762" d="M627.285,459.27v2.846l-106,57.875v-2.846Z" transform="translate(-134.941 -118.889)" fill="#2a7f38"/>
        <path id="Path_58763" data-name="Path 58763" d="M442.54,494.37v2.853L500.9,529.077v-2.846Z" transform="translate(-114.558 -127.975)" fill="#2a7f38"/>
        <path id="Path_58764" data-name="Path 58764" d="M442.54,474.158,500.9,506.019l106-57.875L548.552,416.29Z" transform="translate(-114.558 -107.763)" fill="#329345"/>
        <path id="Path_58765" data-name="Path 58765" d="M455.18,475.895,504.7,502.924l97.163-53.1L552.343,422.8Z" transform="translate(-117.83 -109.448)" fill="#4bb75d"/>
        <path id="Path_58766" data-name="Path 58766" d="M542.769,458.75c13.9,0,25.162,6,25.162,13.392s-11.265,13.392-25.162,13.392-25.2-6-25.2-13.392S528.872,458.75,542.769,458.75Z" transform="translate(-133.981 -118.754)" fill="#58c468"/>
        <path id="Path_58767" data-name="Path 58767" d="M504.919,489.77c7.2,0,13.029,3.105,13.029,6.93s-5.833,6.937-13.029,6.937-13.029-3.105-13.029-6.937S497.723,489.77,504.919,489.77Z" transform="translate(-127.333 -126.784)" fill="#58c468"/>
        <path id="Path_58768" data-name="Path 58768" d="M507.091,494.23c3.765,0,6.811,1.623,6.811,3.624s-3.046,3.624-6.811,3.624-6.811-1.623-6.811-3.624S503.334,494.23,507.091,494.23Z" transform="translate(-129.505 -127.939)" fill="#6fd17d"/>
        <path id="Path_58769" data-name="Path 58769" d="M594.239,441.06c7.2,0,13.029,3.105,13.029,6.937s-5.833,6.937-13.029,6.937S581.21,451.829,581.21,448,587.043,441.06,594.239,441.06Z" transform="translate(-150.455 -114.175)" fill="#58c468"/>
        <path id="Path_58770" data-name="Path 58770" d="M596.414,445.53c3.765,0,6.811,1.623,6.811,3.624s-3.046,3.624-6.811,3.624-6.8-1.623-6.8-3.624S592.656,445.53,596.414,445.53Z" transform="translate(-152.629 -115.332)" fill="#6fd17d"/>
        <path id="Path_58771" data-name="Path 58771" d="M558.992,478.827a7.411,7.411,0,0,0,3.305-3.313l-5.41-2.965-2.964,1.334,2.1,1.149c.652.356.83.541.586.912a3.431,3.431,0,0,1-1.156.949l-6.789-3.706c1.593-1.86,2.438-3.869-1.771-6.166a14.023,14.023,0,0,0-11.377-1.008l-3.342-1.823L530.14,465.3l3.261,1.786a6.944,6.944,0,0,0-2.839,3.061l5.121,2.794,2.89-1.341-1.964-1.067c-.652-.356-.83-.541-.578-.912a3.6,3.6,0,0,1,.741-.689l6.4,3.491h0c-1.423,1.838-2.505,3.98,1.89,6.381a14.585,14.585,0,0,0,11.791,1.06l3.743,2.038,2.046-1.112Zm-11.48-4.039,5.662,3.091a6.478,6.478,0,0,1-4.565-.793C547.231,476.33,547.082,475.574,547.512,474.788Zm-3.224-3.987-5.232-2.861a5.929,5.929,0,0,1,4.106.7c1.3.711,1.453,1.386,1.126,2.164Z" transform="translate(-137.234 -120.162)" fill="#fff"/>
        <path id="Path_58772" data-name="Path 58772" d="M622.674,465.835l14.7-8.027-3.624-1.979-14.7,8.034Z" transform="translate(-160.25 -117.998)" fill="#fff"/>
        <path id="Path_58773" data-name="Path 58773" d="M521.367,520.815l14.7-8.027-3.617-1.979-14.7,8.026Z" transform="translate(-134.027 -132.23)" fill="#fff"/>
        <path id="Path_58774" data-name="Path 58774" d="M568.964,438.345l14.7-8.026-3.624-1.979-14.7,8.034Z" transform="translate(-146.346 -110.882)" fill="#fff"/>
        <path id="Path_58775" data-name="Path 58775" d="M467.657,493.325l14.7-8.027-3.617-1.979-14.7,8.027Z" transform="translate(-120.123 -125.114)" fill="#fff"/>
        <path id="Path_58776" data-name="Path 58776" d="M302.231,169.631l189.4,103.4c4.224,2.3,7.678-.163,7.678-5.484V124.511c0-5.321-3.454-11.562-7.678-13.867l-189.4-103.4c-4.217-2.3-7.671.163-7.671,5.484V155.809C294.56,161.093,298.014,167.334,302.231,169.631Z" transform="translate(-76.251 -1.653)" fill="#bbb"/>
        <path id="Path_58777" data-name="Path 58777" d="M563.472,364.858l-10.042,5.381.837-10.939Z" transform="translate(-143.263 -93.01)" fill="#bbb"/>
        <path id="Path_58778" data-name="Path 58778" d="M284.38,12.531,294.637,7.01l3.639,19.062Z" transform="translate(-73.616 -1.815)" fill="#bbb"/>
        <path id="Path_58779" data-name="Path 58779" d="M288.228,177.158l189.4,103.4c4.217,2.3,7.671-.163,7.671-5.484V132.038c0-5.321-3.454-11.554-7.671-13.859L288.228,14.768c-4.225-2.3-7.678.163-7.678,5.484V163.292C280.55,168.621,284,174.854,288.228,177.158Z" transform="translate(-72.625 -3.599)" fill="#ddd"/>
        <path id="Path_58780" data-name="Path 58780" d="M289.5,163.786,480.98,268.323v-138.5L289.5,25.29Z" transform="translate(-74.941 -6.547)" fill="#633"/>
        <path id="Path_58781" data-name="Path 58781" d="M390.37,280.48l24.383,13.34c1.26.689,2.3-.044,2.3-1.638h0a5.143,5.143,0,0,0-2.3-4.143L390.37,274.7c-1.26-.689-2.29.044-2.29,1.638h0a5.121,5.121,0,0,0,2.29,4.143Z" transform="translate(-100.46 -71.043)" fill="#633"/>
        <path id="Path_58782" data-name="Path 58782" d="M298.84,39.35l177.895,97.089V261.72L298.84,164.632Z" transform="translate(-77.359 -10.186)" fill="#fff"/>
        <path id="Path_58783" data-name="Path 58783" d="M77.85,344.417l182.92,99.868c4.884,2.661,13.5,2.327,19.136-.741l139.882-76.337c5.64-3.083,6.263-7.782,1.378-10.45l-182.92-99.905c-4.884-2.668-13.5-2.327-19.136.741L79.228,333.974C73.588,337.05,72.966,341.726,77.85,344.417Z" transform="translate(-19.3 -66.024)" fill="#bbb"/>
        <rect id="Rectangle_40345" data-name="Rectangle 40345" width="12.562" height="11.873" transform="translate(405.134 295.55) rotate(180)" fill="#bbb"/>
        <rect id="Rectangle_40346" data-name="Rectangle 40346" width="12.562" height="11.873" transform="translate(67.814 274.428) rotate(180)" fill="#bbb"/>
        <path id="Path_58784" data-name="Path 58784" d="M77.85,329.685l182.92,99.861c4.884,2.668,13.5,2.327,19.136-.741l139.882-76.337c5.64-3.076,6.263-7.775,1.378-10.443l-182.92-99.913c-4.884-2.661-13.5-2.327-19.136.741L79.228,319.235C73.588,322.348,72.966,327.017,77.85,329.685Z" transform="translate(-19.3 -62.209)" fill="#ddd"/>
        <path id="Path_58785" data-name="Path 58785" d="M156.74,301.679l181.274,98.971L430,350.431,248.722,251.46Z" transform="translate(-40.574 -65.094)" fill="#bbb"/>
        <path id="Path_58786" data-name="Path 58786" d="M170.47,391.909l64.145,35.026L268.93,408.2,204.785,373.18Z" transform="translate(-44.129 -96.603)" fill="#bbb"/>
        <path id="Path_58787" data-name="Path 58787" d="M507.152,382.317,494.5,375.41l-9.1,4.966,12.651,6.907Z" transform="translate(-125.653 -97.18)" fill="#888"/>
        <path id="Path_58788" data-name="Path 58788" d="M489.3,392.057l-12.651-6.907-9.1,4.973L480.2,397.03Z" transform="translate(-121.032 -99.702)" fill="#888"/>
        <path id="Path_58789" data-name="Path 58789" d="M469.914,400.964l-17.083-9.323-9.1,4.966,17.083,9.324Z" transform="translate(-114.866 -101.382)" fill="#888"/>
        <path id="Path_58790" data-name="Path 58790" d="M247.639,282.136l-8.256-4.506L217.06,289.814l8.249,4.506Z" transform="translate(-56.189 -71.869)" fill="#888"/>
        <path id="Path_58791" data-name="Path 58791" d="M452.067,410.7l-17.083-9.324-9.094,4.966,17.076,9.323Z" transform="translate(-110.248 -103.903)" fill="#888"/>
        <path id="Path_58792" data-name="Path 58792" d="M432.3,419.4,409.721,407.07l-9.1,4.966,22.575,12.333Z" transform="translate(-103.706 -105.376)" fill="#888"/>
        <path id="Path_58793" data-name="Path 58793" d="M241.665,315.322l-33.714-18.4-9.1,4.966,33.714,18.4Z" transform="translate(-51.475 -76.862)" fill="#888"/>
        <path id="Path_58794" data-name="Path 58794" d="M417.922,431.037l-12.659-6.907L396.17,429.1,408.821,436Z" transform="translate(-102.554 -109.792)" fill="#888"/>
        <path id="Path_58795" data-name="Path 58795" d="M485.8,370.665l-12.651-6.915-9.1,4.973L476.7,375.63Z" transform="translate(-120.126 -94.162)" fill="#888"/>
        <path id="Path_58796" data-name="Path 58796" d="M467.952,380.407,455.3,373.5l-9.1,4.966,12.651,6.907Z" transform="translate(-115.505 -96.686)" fill="#888"/>
        <path id="Path_58797" data-name="Path 58797" d="M464.232,358.887l-12.651-6.907-9.1,4.966,12.651,6.907Z" transform="translate(-114.542 -91.115)" fill="#888"/>
        <path id="Path_58798" data-name="Path 58798" d="M446.382,368.627l-12.651-6.907-9.1,4.973,12.659,6.907Z" transform="translate(-109.922 -93.636)" fill="#888"/>
        <path id="Path_58799" data-name="Path 58799" d="M442.882,347.235l-12.651-6.915-9.1,4.973,12.651,6.907Z" transform="translate(-109.016 -88.097)" fill="#888"/>
        <path id="Path_58800" data-name="Path 58800" d="M425.035,356.977l-12.651-6.907-9.094,4.966,12.651,6.907Z" transform="translate(-104.397 -90.621)" fill="#888"/>
        <path id="Path_58801" data-name="Path 58801" d="M421.372,335.487l-12.651-6.907-9.1,4.966,12.651,6.915Z" transform="translate(-103.447 -85.058)" fill="#888"/>
        <path id="Path_58802" data-name="Path 58802" d="M403.522,345.227l-12.651-6.907-9.1,4.973,12.659,6.907Z" transform="translate(-98.827 -87.579)" fill="#888"/>
        <path id="Path_58803" data-name="Path 58803" d="M400.022,323.837l-12.651-6.907-9.1,4.966,12.651,6.907Z" transform="translate(-97.921 -82.042)" fill="#888"/>
        <path id="Path_58804" data-name="Path 58804" d="M382.182,333.577l-12.659-6.907-9.094,4.966,12.651,6.907Z" transform="translate(-93.303 -84.563)" fill="#888"/>
        <path id="Path_58805" data-name="Path 58805" d="M378.452,312.057,365.8,305.15l-9.1,4.966,12.651,6.907Z" transform="translate(-92.337 -78.992)" fill="#888"/>
        <path id="Path_58806" data-name="Path 58806" d="M360.612,321.8l-12.659-6.907-9.094,4.973,12.651,6.907Z" transform="translate(-87.719 -81.514)" fill="#888"/>
        <path id="Path_58807" data-name="Path 58807" d="M443.582,386.587l-12.651-6.907-9.1,4.966,12.651,6.907Z" transform="translate(-109.197 -98.286)" fill="#888"/>
        <path id="Path_58808" data-name="Path 58808" d="M425.735,396.327l-12.651-6.907-9.094,4.973,12.651,6.907Z" transform="translate(-104.579 -100.807)" fill="#888"/>
        <path id="Path_58809" data-name="Path 58809" d="M422.012,374.807,409.361,367.9l-9.1,4.973,12.651,6.907Z" transform="translate(-103.613 -95.236)" fill="#888"/>
        <path id="Path_58810" data-name="Path 58810" d="M404.172,384.557l-12.659-6.907-9.094,4.966,12.651,6.907Z" transform="translate(-98.995 -97.76)" fill="#888"/>
        <path id="Path_58811" data-name="Path 58811" d="M400.662,363.157l-12.651-6.907-9.1,4.966,12.659,6.907Z" transform="translate(-98.086 -92.22)" fill="#888"/>
        <path id="Path_58812" data-name="Path 58812" d="M382.822,372.9l-12.659-6.907-9.094,4.966,12.651,6.907Z" transform="translate(-93.468 -94.742)" fill="#888"/>
        <path id="Path_58813" data-name="Path 58813" d="M379.152,351.407,366.5,344.5l-9.1,4.973,12.659,6.907Z" transform="translate(-92.518 -89.179)" fill="#888"/>
        <path id="Path_58814" data-name="Path 58814" d="M361.312,361.157l-12.659-6.907-9.094,4.966,12.651,6.907Z" transform="translate(-87.9 -91.703)" fill="#888"/>
        <path id="Path_58815" data-name="Path 58815" d="M357.8,339.757l-12.651-6.907-9.1,4.966,12.659,6.907Z" transform="translate(-86.991 -86.163)" fill="#888"/>
        <path id="Path_58816" data-name="Path 58816" d="M339.962,349.5l-12.651-6.907-9.1,4.973,12.651,6.907Z" transform="translate(-82.373 -88.684)" fill="#888"/>
        <path id="Path_58817" data-name="Path 58817" d="M336.235,327.977l-12.651-6.907-9.094,4.973,12.651,6.907Z" transform="translate(-81.41 -83.114)" fill="#888"/>
        <path id="Path_58818" data-name="Path 58818" d="M318.392,337.727l-12.651-6.907-9.1,4.966,12.651,6.907Z" transform="translate(-76.79 -85.638)" fill="#888"/>
        <path id="Path_58819" data-name="Path 58819" d="M314.812,316.287l-12.651-6.907-9.1,4.966,12.659,6.907Z" transform="translate(-75.863 -80.087)" fill="#888"/>
        <path id="Path_58820" data-name="Path 58820" d="M296.972,326.027l-12.651-6.907-9.1,4.966L287.871,331Z" transform="translate(-71.245 -82.609)" fill="#888"/>
        <path id="Path_58821" data-name="Path 58821" d="M399.4,401.437l-12.651-6.907-9.1,4.966L390.3,406.4Z" transform="translate(-97.76 -102.13)" fill="#888"/>
        <path id="Path_58822" data-name="Path 58822" d="M377.832,389.665l-12.651-6.915-9.1,4.973,12.651,6.907Z" transform="translate(-92.176 -99.08)" fill="#888"/>
        <path id="Path_58823" data-name="Path 58823" d="M356.482,378.007,343.831,371.1l-9.1,4.966,12.651,6.907Z" transform="translate(-86.65 -96.065)" fill="#888"/>
        <path id="Path_58824" data-name="Path 58824" d="M334.972,366.267l-12.651-6.907-9.1,4.966,12.651,6.907Z" transform="translate(-81.082 -93.025)" fill="#888"/>
        <path id="Path_58825" data-name="Path 58825" d="M313.622,354.607,300.971,347.7l-9.1,4.966,12.651,6.907Z" transform="translate(-75.555 -90.007)" fill="#888"/>
        <path id="Path_58826" data-name="Path 58826" d="M292.052,342.837,279.4,335.93l-9.1,4.966,12.659,6.907Z" transform="translate(-69.971 -86.96)" fill="#888"/>
        <path id="Path_58827" data-name="Path 58827" d="M270.632,331.137l-12.651-6.907-9.1,4.966,12.651,6.907Z" transform="translate(-64.426 -83.932)" fill="#888"/>
        <path id="Path_58828" data-name="Path 58828" d="M293.252,304.507,280.594,297.6l-9.094,4.973,12.651,6.907Z" transform="translate(-70.282 -77.038)" fill="#888"/>
        <path id="Path_58829" data-name="Path 58829" d="M275.4,314.257l-12.651-6.907-9.1,4.966,12.651,6.907Z" transform="translate(-65.661 -79.562)" fill="#888"/>
        <path id="Path_58830" data-name="Path 58830" d="M271.9,292.857l-12.659-6.907-9.094,4.966,12.651,6.907Z" transform="translate(-64.755 -74.022)" fill="#888"/>
        <path id="Path_58831" data-name="Path 58831" d="M254.052,302.6,241.4,295.69l-9.1,4.966,12.651,6.907Z" transform="translate(-60.134 -76.544)" fill="#888"/>
        <path id="Path_58832" data-name="Path 58832" d="M357.1,300.407,344.451,293.5l-9.1,4.966,12.659,6.907Z" transform="translate(-86.81 -75.977)" fill="#888"/>
        <path id="Path_58833" data-name="Path 58833" d="M339.262,310.147l-12.651-6.907-9.1,4.966,12.651,6.907Z" transform="translate(-82.192 -78.498)" fill="#888"/>
        <path id="Path_58834" data-name="Path 58834" d="M335.27,288.478l-12.659-6.907-9.1,4.966,12.659,6.915Z" transform="translate(-81.157 -72.889)" fill="#888"/>
        <path id="Path_58835" data-name="Path 58835" d="M317.422,298.225l-12.651-6.915-9.1,4.973,12.651,6.907Z" transform="translate(-76.538 -75.41)" fill="#888"/>
        <path id="Path_58836" data-name="Path 58836" d="M313.922,276.827l-12.659-6.907-9.094,4.966,12.651,6.907Z" transform="translate(-75.632 -69.873)" fill="#888"/>
        <path id="Path_58837" data-name="Path 58837" d="M296.072,286.567l-12.651-6.907-9.1,4.966,12.651,6.907Z" transform="translate(-71.012 -72.394)" fill="#888"/>
        <path id="Path_58838" data-name="Path 58838" d="M292.352,265.047,279.7,258.14l-9.1,4.966,12.651,6.915Z" transform="translate(-70.049 -66.823)" fill="#888"/>
        <path id="Path_58839" data-name="Path 58839" d="M274.5,274.787l-12.651-6.907-9.1,4.973L265.4,279.76Z" transform="translate(-65.428 -69.345)" fill="#888"/>
        <path id="Path_58840" data-name="Path 58840" d="M396.572,419.377l-12.651-6.907-9.1,4.966,12.651,6.915Z" transform="translate(-97.028 -106.774)" fill="#888"/>
        <path id="Path_58841" data-name="Path 58841" d="M375,407.607,362.351,400.7l-9.1,4.966,12.651,6.907Z" transform="translate(-91.444 -103.727)" fill="#888"/>
        <path id="Path_58842" data-name="Path 58842" d="M263.112,346.517l-12.659-6.907-9.094,4.966,12.651,6.907Z" transform="translate(-62.48 -87.913)" fill="#888"/>
        <path id="Path_58843" data-name="Path 58843" d="M241.762,334.857,229.1,327.95l-9.094,4.973,12.651,6.907Z" transform="translate(-56.953 -84.895)" fill="#888"/>
        <path id="Path_58844" data-name="Path 58844" d="M220.192,323.087l-12.651-6.907-9.1,4.966,12.651,6.907Z" transform="translate(-51.369 -81.848)" fill="#888"/>
        <path id="Path_58845" data-name="Path 58845" d="M200.121,312.13l-9.657-5.27-9.094,4.966,9.65,5.27Z" transform="translate(-46.95 -79.435)" fill="#888"/>
        <path id="Path_58846" data-name="Path 58846" d="M335.54,386.06l-63.879-34.87-9.1,4.966,63.878,34.87Z" transform="translate(-67.967 -90.911)" fill="#888"/>
        <path id="Path_58847" data-name="Path 58847" d="M505.79,416.477l17.995-9.82V401.18L505.79,411Z" transform="translate(-130.931 -103.851)" fill="#633"/>
        <path id="Path_58848" data-name="Path 58848" d="M477.7,431.834l17.995-9.82V416.53L477.7,426.357Z" transform="translate(-123.66 -107.825)" fill="#633"/>
        <path id="Path_58849" data-name="Path 58849" d="M313.44,190.529,460.1,270.594v-1.519L313.44,189.01Z" transform="translate(-81.139 -48.928)" fill="#ddd"/>
        <path id="Path_58850" data-name="Path 58850" d="M313.44,168.819,460.1,248.884v-1.519L313.44,167.3Z" transform="translate(-81.139 -43.308)" fill="#ddd"/>
        <path id="Path_58851" data-name="Path 58851" d="M313.44,147.559,460.1,227.624V226.1L313.44,146.04Z" transform="translate(-81.139 -37.805)" fill="#ddd"/>
        <path id="Path_58852" data-name="Path 58852" d="M313.44,125.857,460.1,205.914v-1.519L313.44,124.33Z" transform="translate(-81.139 -32.185)" fill="#ddd"/>
        <path id="Path_58853" data-name="Path 58853" d="M313.44,104.149,460.1,184.214v-1.519L313.44,102.63Z" transform="translate(-81.139 -26.567)" fill="#ddd"/>
        <path id="Path_58854" data-name="Path 58854" d="M313.44,83.119,460.1,163.184v-1.519L313.44,81.6Z" transform="translate(-81.139 -21.123)" fill="#ddd"/>
        <path id="Path_58855" data-name="Path 58855" d="M313.44,61.419,460.1,141.484v-1.519L313.44,59.9Z" transform="translate(-81.139 -15.506)" fill="#ddd"/>
        <path id="Path_58856" data-name="Path 58856" d="M482.83,272.221l9.82,5.358V185.448l-9.82-5.358Z" transform="translate(-124.988 -46.619)" fill="#3367a5"/>
        <path id="Path_58857" data-name="Path 58857" d="M509.01,167.4l1.712.934V281.468l-1.712-.934Z" transform="translate(-131.765 -43.334)" fill="#ddd"/>
        <path id="Path_58858" data-name="Path 58858" d="M313.44,60.8l1.712.941V174.876l-1.712-.934Z" transform="translate(-81.139 -15.739)" fill="#ddd"/>
        <path id="Path_58859" data-name="Path 58859" d="M469.58,279.057l9.82,5.358V232.558l-9.82-5.358Z" transform="translate(-121.558 -58.814)" fill="#329345"/>
        <path id="Path_58860" data-name="Path 58860" d="M436.79,252.825l9.82,5.366V182.5l-9.82-5.358Z" transform="translate(-113.069 -45.855)" fill="#3367a5"/>
        <path id="Path_58861" data-name="Path 58861" d="M423.54,234.567l9.82,5.358V132.668l-9.82-5.358Z" transform="translate(-109.639 -32.956)" fill="#329345"/>
        <path id="Path_58862" data-name="Path 58862" d="M391.21,236.267l9.82,5.358V189.768l-9.82-5.358Z" transform="translate(-101.27 -47.737)" fill="#3367a5"/>
        <path id="Path_58863" data-name="Path 58863" d="M377.96,222.118l9.82,5.358V155.808l-9.82-5.358Z" transform="translate(-97.84 -38.946)" fill="#329345"/>
        <path id="Path_58864" data-name="Path 58864" d="M345.17,217.622l9.82,5.366v-33.27l-9.82-5.358Z" transform="translate(-89.352 -47.724)" fill="#3367a5"/>
        <path id="Path_58865" data-name="Path 58865" d="M331.92,189.831l9.82,5.358V103.066L331.92,97.7Z" transform="translate(-85.922 -25.291)" fill="#329345"/>
        <path id="Path_58866" data-name="Path 58866" d="M313.44,215.55,460.1,295.37v-4.6L313.44,210.71Z" transform="translate(-81.139 -54.545)" fill="#633"/>
        <path id="Path_58867" data-name="Path 58867" d="M143.413,387.566l-11.754-6.307c-3.179-1.742-4.1.274-5.292,2.423l-10.42,18.81c-1.193,2.149-2.172,3.654.445,5.188l11.362,6.2c1.816,1.156,3.016,1.289,4.313-1L142.9,393.347C144.095,391.183,145.888,389.049,143.413,387.566Z" transform="translate(-29.7 -98.524)" fill="#633"/>
        <path id="Path_58868" data-name="Path 58868" d="M142.192,386.846l-11.754-6.307c-3.187-1.742-4.1.274-5.292,2.423l-10.42,18.81c-1.193,2.149-2.172,3.654.437,5.188l11.369,6.2c1.808,1.156,3.016,1.29,4.313-1l10.828-19.529C142.867,390.478,144.668,388.306,142.192,386.846Z" transform="translate(-29.384 -98.337)" fill="#633"/>
        <path id="Path_58869" data-name="Path 58869" d="M116.37,403.655l14.052,7.53,12.4-21.93L128.8,381.68Z" transform="translate(-30.124 -98.803)" fill="#fff"/>
        <path id="Path_58870" data-name="Path 58870" d="M121.73,417.219l3.276,1.786.667-1.127L122.4,416.1Z" transform="translate(-31.512 -107.714)" fill="#fff"/>
        <path id="Path_58871" data-name="Path 58871" d="M115.151,382.6a75.77,75.77,0,0,0,9.8,1.727c4.121.319,6.025.445,6.025.874,0,1.171-1.549,1.119-2.1,1.223a22.192,22.192,0,0,1-3.854.059s.334.682-.5,1.86c-.534.741-.7,1.616-1.482,2.312-2.9,2.624-11.747-.637-11.747-.637Z" transform="translate(-28.809 -99.042)" fill="#fcc"/>
        <path id="Path_58872" data-name="Path 58872" d="M76.654,344.386s-5.01-3.224-9.739-.311c-3.506,2.157-7.367,8.153-5.862,17.239,2.616,15.771,28.9,25.51,28.9,25.51Z" transform="translate(-15.718 -88.753)" fill="#669"/>
        <path id="Path_58873" data-name="Path 58873" d="M105.337,377.41s9.509,3.224,11.258,4.121,1.616,5.321,0,7.211-12.1.133-12.1.133Z" transform="translate(-27.051 -97.698)" fill="#22722e"/>
        <path id="Path_58874" data-name="Path 58874" d="M124.953,548.271c-1.8-1.067-13.474,2-13.474,2l-12.6,3.995.964,8.96s4.447,4.528,10.68.571c3.706-2.349,10.835-5.381,13.526-9.042C126.013,552.1,126.754,549.339,124.953,548.271Z" transform="translate(-25.596 -141.869)" fill="#633"/>
        <path id="Path_58875" data-name="Path 58875" d="M82.953,524.831c-1.8-1.067-13.474,2-13.474,2l-12.6,3.995.963,8.96s4.447,4.521,10.672.571c3.706-2.349,10.843-5.381,13.526-9.042C84.013,528.663,84.754,525.9,82.953,524.831Z" transform="translate(-14.724 -135.802)" fill="#633"/>
        <path id="Path_58876" data-name="Path 58876" d="M66.588,414.29s-5.788,5.366-6.67,16.639c-.4,5.069,2.461,26.681,2.461,26.681s-4.4,11.191-5.492,18.4c-1.3,8.568-.978,25.288-.978,25.288.741,2.223,3.2,4.343,8.1,3.995,5.04-.348,8.59-6.463,8.59-6.463s1.749-13.867,3.387-23.049c.934-5.232,1.994-8.694,2.52-13.044.208-5,.741-17.165.741-17.165s6.048,22.738,7.96,29.69c-3.706,11.584-.408,43.112-.067,45.617,7.471,5.566,12.073.3,15.164-4.254-.185-7.011,1-19.373,1.275-29.171.215-7.73.082-10.961.215-13.563.259-5.047-2.164-20.218-3.394-31.869-1.438-13.541-1.727-23.338-1.727-23.338Z" transform="translate(-14.464 -107.245)" fill="#669"/>
        <path id="Path_58877" data-name="Path 58877" d="M98.929,361.929c-.119,7.8-.23,17.787-.059,21.982a243.627,243.627,0,0,0,3.795,28.9c-2.653,2.512-13.437,8.894-22.456,7.07-6.426-1.3-16.468-4.625-20.248-10.709-.052-1.193,3.528-11.606,3.528-19.129,0-10.191-.919-20.24-1.156-27.852-.17-5.314,2.846-12.6,5.136-14.823,2.49-2.416,3.706-3.061,8-1.964,3.431.311,11.117,4.447,13.667,5.773C95.468,353.584,98.958,359.632,98.929,361.929Z" transform="translate(-15.521 -89.28)" fill="#66c"/>
        <path id="Path_58878" data-name="Path 58878" d="M77.31,348.4l1.371-7.248,10.7,2.386s-1.312,3.832,0,7.019C89.42,350.674,81.268,350.177,77.31,348.4Z" transform="translate(-20.013 -88.312)" fill="#f99"/>
        <path id="Path_58879" data-name="Path 58879" d="M73.719,318.471c2.223-4.41,10.376-9.487,18.113-2.616,8.152,7.2,4.943,21.7-1.06,22.7-3.053.5-9.138-.912-13.192-4.825C72.978,329.329,71.978,321.9,73.719,318.471Z" transform="translate(-18.875 -80.893)" fill="#fcc"/>
        <path id="Path_58880" data-name="Path 58880" d="M96.456,314.754a8.608,8.608,0,0,1-2.653,5.329c-2.372,1.979-6.981,3.595-6.981,3.595a17.418,17.418,0,0,0,.46,3.261,2.249,2.249,0,0,1-.7,2.527s-2.394-3.6-4.017-.741,1.3,4.528,1.3,4.528a11.667,11.667,0,0,1-2.594,3.654,39.4,39.4,0,0,1-3.357,2.512,41.991,41.991,0,0,0-4.825-8.679c-3.061-4.106-3.935-7.448-3.95-9.131,0-2.438.889-6.418,6.1-8.582,4.773-4.21,10.183-1.66,11.577-1.2s4.38,1.178,6.878-.341a9.22,9.22,0,0,1-1.445,4.032A29.288,29.288,0,0,0,96.456,314.754Z" transform="translate(-17.895 -80.414)" fill="#633"/>
        <path id="Path_58881" data-name="Path 58881" d="M84.842,347.523a10.724,10.724,0,0,1,8.249,3.528s-6.574,3.706-10.917,2c-2.3-.9-5.885-2.772-6.715-3.772-1.127-1.364,2.223-4.869,2.223-4.869S79.269,347.523,84.842,347.523Z" transform="translate(-19.474 -89.155)" fill="#669"/>
        <path id="Path_58882" data-name="Path 58882" d="M141.559,406.441a14.151,14.151,0,0,0,1.1-3.054c.17-.874-.482-1.994-1.564-.415a22.072,22.072,0,0,1-3.15,3.372l-4.039,6.722s4.551,4.447,9.123,1.742,1.8-7.478,1.171-7.952A6.276,6.276,0,0,0,141.559,406.441Z" transform="translate(-34.665 -104.11)" fill="#fcc"/>
        <path id="Path_58883" data-name="Path 58883" d="M116.011,386.167c-1.075-5.974-2.1-10.376-3.046-16.1-1.482-8.679-6.114-12.414-9.85-13a18.376,18.376,0,0,0-5.344,11.688c-.274,7,.4,13.022,4.565,19.855,1.482,2.364,5.751,8.019,9.8,9.894,3.8,1.764,14.082,5.722,16.246,5.759,3.083-1.816,5.284-6.366.83-10.843C126.587,392.155,119.094,387.516,116.011,386.167Z" transform="translate(-25.296 -92.433)" fill="#669"/>
        <path id="Path_58884" data-name="Path 58884" d="M569.191,467.3l11.858-6.744c3.217-1.868,4.143.289,5.351,2.594l10.546,20.129c1.208,2.3,2.224,3.906-.445,5.551l-11.473,6.633c-1.838,1.238-3.054,1.379-4.365-1.075l-10.961-20.9C568.5,471.188,566.686,468.853,569.191,467.3Z" transform="translate(-147.018 -119.037)" fill="#633"/>
        <path id="Path_58885" data-name="Path 58885" d="M570.421,466.556,582.28,459.8c3.224-1.86,4.15.3,5.358,2.594l10.546,20.129c1.208,2.3,2.223,3.913-.445,5.551l-11.5,6.633c-1.838,1.238-3.054,1.378-4.365-1.075l-10.961-20.893C569.74,470.439,567.917,468.119,570.421,466.556Z" transform="translate(-147.337 -118.844)" fill="#633"/>
        <path id="Path_58886" data-name="Path 58886" d="M597.782,484.536,583.568,492.6,571.02,469.128l14.185-8.108Z" transform="translate(-147.817 -119.342)" fill="#fff"/>
        <path id="Path_58887" data-name="Path 58887" d="M600.317,499.061l-3.313,1.9-.674-1.2,3.313-1.9Z" transform="translate(-154.369 -128.878)" fill="#fff"/>
        <path id="Path_58888" data-name="Path 58888" d="M601.409,462a71.7,71.7,0,0,1-9.916,1.845c-4.165.348-6.092.474-6.092.934,0,1.26,1.564,1.2,2.12,1.319a21.018,21.018,0,0,0,3.9.052s-.333.741.511,1.994a11.528,11.528,0,0,0,1.482,2.475c2.927,2.809,11.858-.682,11.858-.682Z" transform="translate(-151.539 -119.595)" fill="#fcc"/>
        <path id="Path_58889" data-name="Path 58889" d="M636.979,421.108s5.07-3.454,9.857-.333c3.55,2.312,7.411,8.723,5.929,18.447-2.646,16.883-29.275,27.311-29.275,27.311Z" transform="translate(-161.399 -108.586)" fill="#669"/>
        <path id="Path_58890" data-name="Path 58890" d="M613.577,456.45s-9.635,3.454-11.391,4.447-1.638,5.692,0,7.708,12.244.148,12.244.148Z" transform="translate(-155.555 -118.159)" fill="#669"/>
        <path id="Path_58891" data-name="Path 58891" d="M588.869,639.306c1.823-1.141,13.637,2.142,13.637,2.142l12.733,4.276-.978,9.6s-4.528,4.847-10.8.615c-3.706-2.52-10.976-5.759-13.689-9.679C587.8,643.4,587.053,640.447,588.869,639.306Z" transform="translate(-152.17 -165.431)" fill="#633"/>
        <path id="Path_58892" data-name="Path 58892" d="M631.369,614.217c1.823-1.134,13.637,2.142,13.637,2.142l12.733,4.306-.971,9.561s-4.528,4.84-10.8.615c-3.706-2.52-10.976-5.766-13.689-9.679C630.3,618.315,629.553,615.358,631.369,614.217Z" transform="translate(-163.171 -158.937)" fill="#633"/>
        <path id="Path_58893" data-name="Path 58893" d="M640.568,495.92s5.855,5.744,6.767,17.787c.408,5.433-2.49,28.593-2.49,28.593s4.447,11.977,5.559,19.692c1.312,9.168.986,27.059.986,27.059-.741,2.386-3.231,4.647-8.189,4.284-5.107-.378-8.7-6.922-8.7-6.922s-1.764-14.823-3.424-24.672c-.941-5.6-2.016-9.3-2.542-13.956-.215-5.351-.741-18.365-.741-18.365s-6.137,24.368-8.071,31.78c3.772,12.4.415,46.136.067,48.819-7.56,5.929-12.214.326-15.341-4.558.185-7.5-1.015-20.752-1.289-31.217-.222-8.271-.089-11.732-.222-14.511-.267-5.4,2.223-21.641,3.439-34.092,1.482-14.489,1.749-24.976,1.749-24.976Z" transform="translate(-156.073 -128.376)" fill="#669"/>
        <path id="Path_58894" data-name="Path 58894" d="M609.677,439.888c.118,8.345.23,19.04.059,23.524a273.614,273.614,0,0,1-3.846,30.957c2.69,2.683,13.6,9.516,22.731,7.56,6.507-1.393,16.668-4.943,20.492-11.458.045-1.275-3.572-12.421-3.572-20.47,0-10.9.934-21.663,1.171-29.8.17-5.692-2.883-13.533-5.188-15.9-2.527-2.579-3.787-3.269-8.1-2.1-3.476.334-11.28,4.736-13.83,6.181C613.19,430.957,609.677,437.428,609.677,439.888Z" transform="translate(-156.843 -109.149)" fill="#66c"/>
        <path id="Path_58895" data-name="Path 58895" d="M642.394,425.41,641,417.65l-10.82,2.557s1.326,4.1,0,7.508C630.135,427.826,638.384,427.314,642.394,425.41Z" transform="translate(-163.131 -108.115)" fill="#f99"/>
        <path id="Path_58896" data-name="Path 58896" d="M641.926,393.376c-2.223-4.714-10.465-10.146-18.336-2.8-8.249,7.708-5,23.227,1.075,24.294,3.1.548,9.257-.971,13.34-5.188C642.623,405,643.653,397.037,641.926,393.376Z" transform="translate(-160.144 -100.175)" fill="#fcc"/>
        <path id="Path_58897" data-name="Path 58897" d="M617.61,389.4a9.485,9.485,0,0,0,2.69,5.707c2.4,2.12,7.085,3.846,7.085,3.846a19.013,19.013,0,0,1-.46,3.483,2.451,2.451,0,0,0,.741,2.713s2.431-3.861,4.069-.741a3.528,3.528,0,0,1-1.29,4.81,12.634,12.634,0,0,0,2.624,3.913,40,40,0,0,0,3.394,2.683,45.691,45.691,0,0,1,4.854-9.323c3.1-4.395,3.98-7.975,3.995-9.776a9.6,9.6,0,0,0-6.174-9.183c-4.825-4.5-10.3-1.779-11.71-1.282s-4.447,1.26-6.967-.371a10.249,10.249,0,0,0,1.482,4.321,27.626,27.626,0,0,1-4.336-.8Z" transform="translate(-159.877 -99.657)" fill="#633"/>
        <path id="Path_58898" data-name="Path 58898" d="M632.725,424.475a10.591,10.591,0,0,0-8.345,3.78s6.67,3.965,11.05,2.134c2.32-.963,5.929-2.965,6.789-4.032,1.141-1.482-2.223-5.188-2.223-5.188S638.365,424.475,632.725,424.475Z" transform="translate(-161.63 -109.026)" fill="#669"/>
        <path id="Path_58899" data-name="Path 58899" d="M577.5,487.519a15.425,15.425,0,0,1-1.112-3.261c-.17-.941.489-2.134,1.586-.445a23.218,23.218,0,0,0,3.187,3.609l4.083,7.2s-4.6,4.78-9.234,1.86-1.816-8-1.178-8.516S577.5,487.519,577.5,487.519Z" transform="translate(-148.433 -125.022)" fill="#fcc"/>
        <path id="Path_58900" data-name="Path 58900" d="M595.443,465.825c1.09-6.389,2.127-11.117,3.083-17.224,1.482-9.294,6.188-13.289,9.968-13.911a20.055,20.055,0,0,1,5.4,12.51c.282,7.493-.4,13.933-4.617,21.241-1.482,2.527-5.818,8.582-9.916,10.591-3.847,1.883-14.274,6.122-16.438,6.166-3.12-1.942-5.351-6.818-.837-11.606C584.763,472.229,592.345,467.27,595.443,465.825Z" transform="translate(-150.021 -112.526)" fill="#669"/>
      </g>
    </g>
  </g>
</svg>
