<svg xmlns="http://www.w3.org/2000/svg" xmlns:xlink="http://www.w3.org/1999/xlink" width="533.966" height="570.648" viewBox="0 0 533.966 570.648"><defs><style>.a,.b,.e,.h,.p,.y{fill:#fff;}.b,.c,.m,.x{stroke:#263238;}.b,.c,.m,.u{stroke-linecap:round;stroke-linejoin:round;}.c,.j{fill:#263238;}.d{fill:#1c80c2;}.e{opacity:0.7;}.f{fill:#ccc;}.g{clip-path:url(#a);}.h,.i{opacity:0.75;}.k{clip-path:url(#b);}.l{fill:#d9d9d9;}.m,.u,.x{fill:none;}.n{clip-path:url(#c);}.o{clip-path:url(#d);}.p{opacity:0.17;}.q{clip-path:url(#e);}.r{fill:#b8b8b8;}.s{clip-path:url(#f);}.t{clip-path:url(#g);}.u{stroke:#fff;}.v{clip-path:url(#h);}.w{clip-path:url(#i);}.x{stroke-miterlimit:10;stroke-width:2px;}.y{opacity:0.5;}</style><clipPath id="a"><rect class="a" width="204.024" height="175.051"/></clipPath><clipPath id="b"><path class="b" d="M201.015,285.64s3.689,16.48,3.478,21.078-8.892,16.915-9.116,14.1a19.234,19.234,0,0,1,1.528-6.942s-3.043,4.123-4.123,3.952.869-5.862.869-5.862-3.254,3.254-4.347,2.635,2.384-5.427,2.384-5.427-3.952,4.123-4.11,2.819,3.465-6.719,3.465-6.719-3.689-7.812-3.952-11.066a10.539,10.539,0,0,1,2.16-6.284Z" transform="translate(-187.09 -285.64)"/></clipPath><clipPath id="c"><path class="b" d="M199.673,285.64s2.635,11.5,2.4,14.754-3.478,12.792-5.862,11.053,1.515-8.234,1.515-8.234-6.692-4.7-8.234-9.116-.659-6.284-.659-6.284Z" transform="translate(-188.579 -285.64)"/></clipPath><clipPath id="d"><path class="c" d="M163.958,165.226s-7.18,6.429-8.418,8.655-16.309,23.712-16.559,39.073,11.145,61.81,11.145,61.81L133,318.329l4.953,1.976,4.94-5.441v8.168s5.691,5.19,20.524,10.13,33.882-.738,33.882-.738l5.678-36.148v35.661l6.679-4.453.54-59.387s5.441-31.893,5.441-40.838-15.084-36.886-21.763-45-17.811-14.833-21.078-17.31S163.958,165.226,163.958,165.226Z" transform="translate(-133 -163.916)"/></clipPath><clipPath id="e"><path class="b" d="M197.526,135.9s6.007,4.611,6.758,9.063-1.489,9.406-1.238,11.132,4.69,5.691,4.453,7.667-3.952,2.714-3.952,2.714-4.031,14.675-5.019,17.126-5.941,1.726-9.643,1.238l-6.679,19.76L160.179,178.69l3.465-10.394s-9.393-11.369-10.144-23.489,8.905-20.524,22.751-22.25,25.478,4.94,26.953,7.667S197.526,135.9,197.526,135.9Z" transform="translate(-153.459 -122.276)"/></clipPath><clipPath id="f"><path class="b" d="M217.19,240.023s8.431-4.743,9.748-4.743,8.958,6.85,8.958,6.85l-3.162,4.743s10.012,5.006,8.958,6.85-5.006,4.743-9.221,5.269-16.072-7.114-16.072-7.114Z" transform="translate(-216.4 -235.28)"/></clipPath><clipPath id="g"><path class="c" d="M149.478,181.48s-7.114,13.7-7.9,20.551,28.192,61.389,30.3,63.233,63.747,3.689,63.747,3.689l2.635-13.437L185.561,240.5l-17.916-55.066" transform="translate(-141.558 -181.48)"/></clipPath><clipPath id="h"><path class="c" d="M327.092,181.094a48.936,48.936,0,0,0-4.4-6.929,26.346,26.346,0,0,0-6.508-4.835c-8.378-3.307-19.339,1.489-25.7,7.548-.843,1.871-7.483,17.02-10.631,29.4-3.359,13.174-2.938,29.825-2.938,29.825s11.132-14.28,26.242-31.077a200.355,200.355,0,0,1,24.635-23.146Z" transform="translate(-276.897 -168.251)"/></clipPath><clipPath id="i"><path class="b" d="M277.562,138.741s-5.045,14.333-4.571,16.388.948,5.19.948,5.19-7.9,9.762-6.929,10.868,5.348,2.358,5.348,2.358,3.623,15.123,5.045,16.533,10.236-1.726,10.236-1.726l9.445,11.962,19.365-18.575-2.358-9.762s10.236-17.956,10.078-26.466-17.626-19.839-30.075-19.681S270,130.56,272.359,133.866a17.837,17.837,0,0,0,5.2,4.874Z" transform="translate(-266.927 -125.829)"/></clipPath></defs><g transform="translate(-44.766 -62)"><g transform="translate(44.98 62)"><path class="d" d="M152.81,151.47S79.474,220.962,93.467,317.376s99.8,170.873,167.334,232.83,163.4,70.464,232.556,23.047,31.8-107.383,70.874-192.873,64.554-103.6,43.588-192.067S461.345,43.951,336.415,67.333,152.81,151.47,152.81,151.47Z" transform="translate(-91.692 -62)"/><path class="e" d="M152.81,151.47S79.474,220.962,93.467,317.376s99.8,170.873,167.334,232.83,163.4,70.464,232.556,23.047,31.8-107.383,70.874-192.873,64.554-103.6,43.588-192.067S461.345,43.951,336.415,67.333,152.81,151.47,152.81,151.47Z" transform="translate(-91.692 -62)"/></g><g transform="translate(383.371 120.614)"><path class="f" d="M371.252,115.68H267.69l1.047-15.1H372.3Z" transform="translate(-267.69 -100.58)"/><path class="f" d="M371.252,130.43H267.69l1.047-15.1H372.3Z" transform="translate(-267.69 -94.179)"/><path class="f" d="M371.252,145.194H267.69l1.047-15.114H372.3Z" transform="translate(-267.69 -79.259)"/><path class="f" d="M371.252,159.944H267.69l1.047-15.114H372.3Z" transform="translate(-267.69 -68.599)"/><path class="f" d="M371.252,174.694H267.69l1.047-15.114H372.3Z" transform="translate(-267.69 -57.939)"/><path class="f" d="M371.252,189.44H267.69l1.047-15.1H372.3Z" transform="translate(-267.69 -47.273)"/><path class="f" d="M371.252,204.19H267.69l1.047-15.1H372.3Z" transform="translate(-267.69 -36.613)"/><path class="f" d="M371.252,218.954H267.69l1.047-15.114H372.3Z" transform="translate(-267.69 -25.951)"/><path class="f" d="M371.252,233.7H267.69l1.047-15.114H372.3Z" transform="translate(-267.69 -15.29)"/><path class="f" d="M371.252,248.454H267.69l1.047-15.114H372.3Z" transform="translate(-267.69 -0.371)"/><path class="f" d="M371.252,263.2H267.69l1.047-15.114H372.3Z" transform="translate(-267.69 6.03)"/><path class="f" d="M447.627,115.68H344.05l1.047-15.1H448.674Z" transform="translate(-270.127 -100.58)"/><path class="f" d="M447.627,130.43H344.05l1.047-15.1H448.674Z" transform="translate(-270.127 -94.179)"/><path class="f" d="M447.627,145.194H344.05L345.1,130.08H448.674Z" transform="translate(-270.127 -79.259)"/><path class="f" d="M447.627,159.944H344.05L345.1,144.83H448.674Z" transform="translate(-270.127 -68.599)"/><path class="f" d="M447.627,174.694H344.05L345.1,159.58H448.674Z" transform="translate(-270.127 -57.939)"/><path class="f" d="M447.627,189.44H344.05l1.047-15.1H448.674Z" transform="translate(-270.127 -47.273)"/><path class="f" d="M447.627,204.19H344.05l1.047-15.1H448.674Z" transform="translate(-270.127 -36.613)"/><path class="f" d="M447.627,218.954H344.05L345.1,203.84H448.674Z" transform="translate(-270.127 -25.951)"/><path class="f" d="M447.627,233.7H344.05L345.1,218.59H448.674Z" transform="translate(-270.127 -15.29)"/><path class="f" d="M447.627,248.454H344.05L345.1,233.34H448.674Z" transform="translate(-270.127 -0.371)"/><path class="f" d="M447.627,263.2H344.05L345.1,248.09H448.674Z" transform="translate(-270.127 6.03)"/></g><g transform="translate(141.274 119.733)"><rect class="d" width="226.707" height="194.498" transform="translate(0)"/><rect class="a" width="204.024" height="175.051" transform="translate(11.334 9.723)"/><g class="g" transform="translate(11.334 9.723)"><path class="d" d="M319.824,141.33c-36.691,26.1-89.243,43.421-150.211,70.631A251.137,251.137,0,0,0,115.8,244.14v19.189H319.824Z" transform="translate(-115.8 -88.262)"/><path class="d" d="M298.073,106.4H216.2c-9.116,7.794-19.887,16.5-32.619,25.828-46.6,34.169-26.405,68.368,29.52,43.482,28.7-12.747,60.65-42.266,84.973-67.988Z" transform="translate(-94.049 -106.4)"/><path class="d" d="M151.021,121.576c0-14.266-17.76-3.039-35.171,11.3V168.9C132.79,152.28,151.021,134.338,151.021,121.576Z" transform="translate(-115.774 -101.947)"/><path class="d" d="M161.354,162.217A16.317,16.317,0,1,1,145.037,145.9,16.317,16.317,0,0,1,161.354,162.217Z" transform="translate(-109.091 -85.888)"/><path class="h" d="M319.824,141.33c-36.691,26.1-89.243,43.421-150.211,70.631A251.137,251.137,0,0,0,115.8,244.14v19.189H319.824Z" transform="translate(-115.8 -88.262)"/><path class="h" d="M298.073,106.4H216.2c-9.116,7.794-19.887,16.5-32.619,25.828-46.6,34.169-26.405,68.368,29.52,43.482,28.7-12.747,60.65-42.266,84.973-67.988Z" transform="translate(-94.049 -106.4)"/><g class="i" transform="translate(0.076 13.03)"><path class="a" d="M151.021,121.576c0-14.266-17.76-3.039-35.171,11.3V168.9C132.79,152.28,151.021,134.338,151.021,121.576Z" transform="translate(-115.85 -114.976)"/></g><path class="h" d="M161.354,162.217A16.317,16.317,0,1,1,145.037,145.9,16.317,16.317,0,0,1,161.354,162.217Z" transform="translate(-109.091 -85.888)"/></g><path class="a" d="M241.752,198.326a21.756,21.756,0,1,1-21.741-21.756,21.756,21.756,0,0,1,21.741,21.756Z" transform="translate(-61.657 -60.239)"/></g><g transform="translate(44.766 311.475)"><path class="j" d="M437.013,226.242l-44.712.38s-3.039-.38-3.692,1.838c0,0-7.764,19.6-8.128,26.618s1.519,5.91-1.519,15.193-11.455,31.039-16.256,48.784c-6.457,23.837-8.143,49.149-8.554,73.761,0,3.95-2.431,37.982,3.722,37.982,5.1,0,52.157,6.244,52.719-2.826,2.264-36.159-4.269-71.482,8.28-106.638,4.877-13.674,10.468-28.076,14.615-42.358s4.862-29.14,7.6-43.755C442.923,225.133,437.013,226.242,437.013,226.242Z" transform="translate(79.567 -226.206)"/><path class="d" d="M432.262,230.678c-.441-5.166-4.391-4.436-4.391-4.436l-44.712.38s-3.039-.38-3.692,1.838c0,0-7.764,19.6-8.128,26.618a32.206,32.206,0,0,0,.152,5.561l.942,1.519s1.519,12.929,19.219,13.673,27.727-7.4,31.419-15.193,5.181-20.328,8.128-27.727A24.523,24.523,0,0,1,432.262,230.678Z" transform="translate(88.709 -226.206)"/><path class="d" d="M413.1,245.027c-3.039,10.8-1.2,13.8-4.193,32.391s-13.8,39.5-18,58.781-2.385,86.964-1.793,89.972a26,26,0,0,1,.258,4.816c2.021-.76,3.236-1.793,3.327-3.206,2.264-36.159-4.269-71.482,8.28-106.638,4.877-13.674,10.468-28.076,14.615-42.358s4.862-29.14,7.6-43.755c1.139-6.077-.653-8.067-2.218-8.66h0A80.522,80.522,0,0,0,413.1,245.027Z" transform="translate(97.496 -226.121)"/><path class="j" d="M369.472,441.653l-.3-.243V399.66h6V373.27H352.988v26.39h5.986v42.464L305.89,459.049v4.193a4.8,4.8,0,0,0,9.6,0v-.593l44.393-5.166v6.366a4.193,4.193,0,1,0,8.386,0v-6.578l46.186,5.378v.593a4.8,4.8,0,1,0,9.6,0v-4.193Z" transform="translate(54.752 -149.839)"/><rect class="j" width="143.982" height="30.613" rx="4" transform="translate(349.612 197.694)"/><path class="j" d="M49.338,226.242l44.712.38s3.039-.38,3.707,1.838c0,0,7.764,19.6,8.128,26.618s-1.519,5.91,1.519,15.193,11.455,31.039,16.256,48.784c6.472,23.837,8.143,49.149,8.554,73.761,0,3.95,2.431,37.982-3.722,37.982-5.09,0-52.142,6.244-52.719-2.826-2.249-36.159,4.269-71.482-8.28-106.638-4.877-13.674-10.468-28.076-14.6-42.358s-4.862-29.14-7.6-43.755C43.5,225.133,49.338,226.242,49.338,226.242Z" transform="translate(-44.899 -226.206)"/><path class="d" d="M45,230.678c.441-5.166,4.376-4.436,4.376-4.436l44.712.38s3.039-.38,3.707,1.838c0,0,7.764,19.6,8.128,26.618a33.425,33.425,0,0,1-.167,5.561l-.942,1.519s-1.519,12.929-19.219,13.673-27.772-7.4-31.479-15.208S48.95,240.3,45.988,232.9A20.874,20.874,0,0,0,45,230.678Z" transform="translate(-44.876 -226.206)"/><path class="d" d="M55.343,245.027c3.039,10.8,1.2,13.8,4.193,32.391s13.81,39.5,18,58.781,2.446,86.964,1.793,89.972a27.347,27.347,0,0,0-.258,4.816c-2.005-.76-3.236-1.793-3.327-3.206-2.249-36.159,4.269-71.482-8.28-106.638C62.59,307.469,57,293.066,52.867,278.785s-4.862-29.14-7.6-43.755c-1.124-6.077.668-8.067,2.218-8.66h0a79.763,79.763,0,0,1,7.855,18.657Z" transform="translate(-44.918 -226.121)"/><path class="j" d="M127.3,441.653l.3-.243V399.66h-6.077V373.27h22.2v26.39h-6v42.464L190.8,459.049v4.193a4.8,4.8,0,0,1-9.6,0v-.593l-44.226-5.166v6.366a4.208,4.208,0,0,1-8.4,0v-6.578l-46.292,5.378v.593a4.8,4.8,0,1,1-9.587,0v-4.193Z" transform="translate(-30.5 -149.839)"/><rect class="j" width="143.982" height="30.613" rx="4" transform="translate(171.408 228.293) rotate(180)"/><rect class="f" width="360.981" height="207.473" transform="translate(100.1 111.718)"/><rect class="j" width="360.525" height="5.743" transform="translate(100.283 116.702)"/><rect class="f" width="371.692" height="9.07" transform="translate(92.063 108.315)"/></g><g transform="translate(178.739 216.981)"><path class="a" d="M201.015,285.64s3.689,16.48,3.478,21.078-8.892,16.915-9.116,14.1a19.234,19.234,0,0,1,1.528-6.942s-3.043,4.123-4.123,3.952.869-5.862.869-5.862-3.254,3.254-4.347,2.635,2.384-5.427,2.384-5.427-3.952,4.123-4.11,2.819,3.465-6.719,3.465-6.719-3.689-7.812-3.952-11.066a10.539,10.539,0,0,1,2.16-6.284Z" transform="translate(-115.834 -70.428)"/><g class="k" transform="translate(71.256 215.212)"><path class="l" d="M201.015,285.64s3.689,16.48,3.478,21.078-8.892,16.915-9.116,14.1a19.234,19.234,0,0,1,1.528-6.942s-3.043,4.123-4.123,3.952.869-5.862.869-5.862-3.254,3.254-4.347,2.635,2.384-5.427,2.384-5.427-3.952,4.123-4.11,2.819,3.465-6.719,3.465-6.719-3.689-7.812-3.952-11.066a10.539,10.539,0,0,1,2.16-6.284Z" transform="translate(-187.09 -285.64)"/></g><path class="m" d="M201.015,285.64s3.689,16.48,3.478,21.078-8.892,16.915-9.116,14.1a19.234,19.234,0,0,1,1.528-6.942s-3.043,4.123-4.123,3.952.869-5.862.869-5.862-3.254,3.254-4.347,2.635,2.384-5.427,2.384-5.427-3.952,4.123-4.11,2.819,3.465-6.719,3.465-6.719-3.689-7.812-3.952-11.066a10.539,10.539,0,0,1,2.16-6.284Z" transform="translate(-115.834 -70.428)"/><path class="a" d="M199.673,285.64s2.635,11.5,2.4,14.754-3.478,12.792-5.862,11.053,1.515-8.234,1.515-8.234-6.692-4.7-8.234-9.116-.659-6.284-.659-6.284Z" transform="translate(-115.361 -70.428)"/><g class="n" transform="translate(73.218 215.212)"><path class="l" d="M199.673,285.64s2.635,11.5,2.4,14.754-3.478,12.792-5.862,11.053,1.515-8.234,1.515-8.234-6.692-4.7-8.234-9.116-.659-6.284-.659-6.284Z" transform="translate(-188.579 -285.64)"/></g><path class="m" d="M199.673,285.64s2.635,11.5,2.4,14.754-3.478,12.792-5.862,11.053,1.515-8.234,1.515-8.234-6.692-4.7-8.234-9.116-.659-6.284-.659-6.284Z" transform="translate(-115.361 -70.428)"/><path class="c" d="M195.016,244.73l9.235,55-13.016,2.938L178.22,260.262Z" transform="translate(-118.649 -83.412)"/><path class="c" d="M204.017,268.777s.843,65.5,2.095,83.139-3.359,41.154-7.548,47.873-22.685,48.742-21.842,51.232,4.624,10.078,4.624,12.172v8.813s20.986,13.859,22.672,13.859,3.781,3.359-.422,5.889-51.232,2.516-53.327.83a10.17,10.17,0,0,1-2.938-4.611s-6.719,2.516-6.3-3.781S149,451.02,149,451.02s-4.611-29.4-2.938-48.294,7.562-41.576,7.562-46.187-5.875-35.279-6.719-40.311-13.016-19.326-7.562-30.655,9.656-29.4,11.342-30.655,24.358-2.108,33.593,0S203.6,257.013,204.017,268.777Z" transform="translate(-131.43 -80.584)"/><path class="j" d="M163.958,165.226s-7.18,6.429-8.418,8.655-16.309,23.712-16.559,39.073,11.145,61.81,11.145,61.81L133,318.329l4.953,1.976,4.94-5.441v8.168s5.691,5.19,20.524,10.13,33.882-.738,33.882-.738l5.678-36.148v35.661l6.679-4.453.54-59.387s5.441-31.893,5.441-40.838-15.084-36.886-21.763-45-17.811-14.833-21.078-17.31S163.958,165.226,163.958,165.226Z" transform="translate(-133 -109.059)"/><g class="o" transform="translate(0 54.857)"><path class="p" d="M163.958,165.226s-7.18,6.429-8.418,8.655-16.309,23.712-16.559,39.073,11.145,61.81,11.145,61.81L133,318.329l4.953,1.976,4.94-5.441v8.168s5.691,5.19,20.524,10.13,33.882-.738,33.882-.738l5.678-36.148v35.661l6.679-4.453.54-59.387s5.441-31.893,5.441-40.838-15.084-36.886-21.763-45-17.811-14.833-21.078-17.31S163.958,165.226,163.958,165.226Z" transform="translate(-133 -163.916)"/><path class="m" d="M140.46,204.88s8.984,6.363,14.965,8.6" transform="translate(-130.633 -150.915)"/><path class="m" d="M142.45,210s10.1,2.635,15.334,2.635" transform="translate(-130.001 -149.29)"/><path class="m" d="M153.53,255.42l28.429,3.372-1.871,5.981-26.189-2.99" transform="translate(-126.485 -134.876)"/></g><path class="m" d="M163.958,165.226s-7.18,6.429-8.418,8.655-16.309,23.712-16.559,39.073,11.145,61.81,11.145,61.81L133,318.329l4.953,1.976,4.94-5.441v8.168s5.691,5.19,20.524,10.13,33.882-.738,33.882-.738l5.678-36.148v35.661l6.679-4.453.54-59.387s5.441-31.893,5.441-40.838-15.084-36.886-21.763-45-17.811-14.833-21.078-17.31S163.958,165.226,163.958,165.226Z" transform="translate(-133 -109.059)"/><path class="b" d="M155.37,166l27.454,29.68L198.9,226.348s-3.465-22.751-6.429-28.982-16.322-21.671-17.824-25.135S155.37,166,155.37,166Z" transform="translate(-125.901 -108.397)"/><path class="c" d="M185.115,207.057l7.6,14.491s-2.358-15.505-4.861-24.4l-1.568-4.545a82.321,82.321,0,0,0-7.14-10.539l-4.308-.856,1.8,9.7,5.559,4.545Z" transform="translate(-119.722 -103.57)"/><path class="b" d="M177.785,174.49l1.423,1.647,4.466,5.269,2.635,13.384L174.86,183.369S176.362,176.479,177.785,174.49Z" transform="translate(-119.715 -105.703)"/><path class="a" d="M197.526,135.9s6.007,4.611,6.758,9.063-1.489,9.406-1.238,11.132,4.69,5.691,4.453,7.667-3.952,2.714-3.952,2.714-4.031,14.675-5.019,17.126-5.941,1.726-9.643,1.238l-6.679,19.76L160.179,178.69l3.465-10.394s-9.393-11.369-10.144-23.489,8.905-20.524,22.751-22.25,25.478,4.94,26.953,7.667S197.526,135.9,197.526,135.9Z" transform="translate(-126.507 -122.273)"/><g class="q" transform="translate(26.952 0.003)"><path class="l" d="M197.526,135.9s6.007,4.611,6.758,9.063-1.489,9.406-1.238,11.132,4.69,5.691,4.453,7.667-3.952,2.714-3.952,2.714-4.031,14.675-5.019,17.126-5.941,1.726-9.643,1.238l-6.679,19.76L160.179,178.69l3.465-10.394s-9.393-11.369-10.144-23.489,8.905-20.524,22.751-22.25,25.478,4.94,26.953,7.667S197.526,135.9,197.526,135.9Z" transform="translate(-153.459 -122.276)"/><path class="r" d="M171.876,190.723c3.715-.751,9.946-2.042,15.558-3.307l1.449-4.295c3.083.408,7.035.988,8.826-.263-4.216-1.739-14.649-4.782-16.783-8.695-2.635-4.861,6.587-19.01,6.587-26.084s-8.839-15.031-8.839-15.031c-4.255-4.044-12.014-5.269-18.9-5.269a18.548,18.548,0,0,0-6.3,15.347c.751,12.12,10.144,23.489,10.144,23.489l-3.465,10.394Z" transform="translate(-153.471 -120.53)"/></g><path class="m" d="M197.526,135.9s6.007,4.611,6.758,9.063-1.489,9.406-1.238,11.132,4.69,5.691,4.453,7.667-3.952,2.714-3.952,2.714-4.031,14.675-5.019,17.126-5.941,1.726-9.643,1.238l-6.679,19.76L160.179,178.69l3.465-10.394s-9.393-11.369-10.144-23.489,8.905-20.524,22.751-22.25,25.478,4.94,26.953,7.667S197.526,135.9,197.526,135.9Z" transform="translate(-126.507 -122.273)"/><path class="c" d="M197.526,135.9s7.166-2.964,5.678-5.678-13.108-9.406-26.953-7.667-23.489,10.13-22.751,22.25S163.643,168.3,163.643,168.3l-.527,1.581c5.125,2.5,10.42-1.581,10.42-1.581a5.1,5.1,0,0,1-5.941-.988c-2.964-2.714-3.214-11.369.5-12.12s6.178.751,6.178,3.465.738.988,2.727.738.237-6.178,1.475-7.166a19.353,19.353,0,0,0,5.19-4.7c2.226-2.964-4.2-5.428-4.94-8.154S197.526,135.9,197.526,135.9Z" transform="translate(-126.507 -122.274)"/><path class="m" d="M189.354,147.28l-4.584,1.528h4.15" transform="translate(-116.57 -114.338)"/><path class="m" d="M191.157,144.251s-1.963-2.832-4.15-1.528-2.4,2.187-2.4,2.187" transform="translate(-116.621 -115.893)"/><path class="m" d="M186,158.88a6.442,6.442,0,0,0,4.584,1.054" transform="translate(-116.18 -110.657)"/><path class="b" d="M158.822,161.53l27.691,27.2-2.463,11.619L154.62,168.7Z" transform="translate(-126.139 -109.816)"/><path class="b" d="M245.11,241.758s-9.748-5.8-11.329-5.269-16.862,11.593-15.808,14.227,9.221,6.06,13.964,7.9,14.491-2.108,14.491-2.108Z" transform="translate(-106.05 -86.038)"/><path class="a" d="M217.19,240.023s8.431-4.743,9.748-4.743,8.958,6.85,8.958,6.85l-3.162,4.743s10.012,5.006,8.958,6.85-5.006,4.743-9.221,5.269-16.072-7.114-16.072-7.114Z" transform="translate(-106.532 -86.411)"/><g class="s" transform="translate(109.868 148.869)"><path class="l" d="M217.19,240.023s8.431-4.743,9.748-4.743,8.958,6.85,8.958,6.85l-3.162,4.743s10.012,5.006,8.958,6.85-5.006,4.743-9.221,5.269-16.072-7.114-16.072-7.114Z" transform="translate(-216.4 -235.28)"/></g><path class="m" d="M217.19,240.023s8.431-4.743,9.748-4.743,8.958,6.85,8.958,6.85l-3.162,4.743s10.012,5.006,8.958,6.85-5.006,4.743-9.221,5.269-16.072-7.114-16.072-7.114Z" transform="translate(-106.532 -86.411)"/><path class="b" d="M212.877,237.28l7.377,1.317-2.371,12.647-6.323-2.108Z" transform="translate(-108.068 -85.776)"/><path class="j" d="M149.478,181.48s-7.114,13.7-7.9,20.551,28.192,61.389,30.3,63.233,63.747,3.689,63.747,3.689l2.635-13.437L185.561,240.5l-17.916-55.066" transform="translate(-130.284 -103.485)"/><g class="t" transform="translate(11.274 77.995)"><path class="p" d="M149.478,181.48s-7.114,13.7-7.9,20.551,28.192,61.389,30.3,63.233,63.747,3.689,63.747,3.689l2.635-13.437L185.561,240.5l-17.916-55.066" transform="translate(-141.558 -181.48)"/></g><path class="m" d="M149.478,181.48s-7.114,13.7-7.9,20.551,28.192,61.389,30.3,63.233,63.747,3.689,63.747,3.689l2.635-13.437L185.561,240.5l-17.916-55.066" transform="translate(-130.284 -103.485)"/><path class="b" d="M234.391,237.784s-3.689-3.162-5.006.527-9.485,12.647-5.8,12.91,10.539-7.377,10.539-7.377" transform="translate(-104.552 -86.016)"/><path class="b" d="M219.207,248.971s-.948,4.44,1.317,6.323c1.594,1.317,2.49-2.371,2.108-5.006S220,246.863,219.207,248.971Z" transform="translate(-105.704 -82.449)"/><path class="b" d="M222.047,249.771s-.949,4.439,1.317,6.323c1.594,1.317,2.49-2.371,2.108-5.006S222.785,247.663,222.047,249.771Z" transform="translate(-104.802 -82.195)"/><path class="b" d="M224.807,250.971s-.949,4.439,1.317,6.323c1.594,1.317,2.49-2.371,2.108-5.006S225.6,248.863,224.807,250.971Z" transform="translate(-103.927 -81.814)"/><path class="b" d="M227.573,252.507s-.869,2.99,1.212,4.255c1.462.9,2.292-1.594,1.937-3.372S228.3,251.084,227.573,252.507Z" transform="translate(-103.043 -81.203)"/><path class="m" d="M238.56,240.543l.79,16.862,5.8-1.581-1.317-15.545Z" transform="translate(-99.5 -84.824)"/><path class="c" d="M241.56,241.882l2.635,20.024,44-4.742,1.054-26.084Z" transform="translate(-98.547 -87.743)"/><path class="u" d="M187.957,299.87s-7.983,53.327-7.983,71.388S167.8,419.552,167.38,436.349" transform="translate(-122.089 -65.912)"/><path class="b" d="M148.008,439.957c2.095,1.686,49.124,1.686,53.327-.83s2.095-5.889.422-5.889-22.672-13.859-22.672-13.859-11.342,8.826-17.639,10.921-16.375,2.516-16.375,2.516v2.529A10.171,10.171,0,0,0,148.008,439.957Z" transform="translate(-129.169 -27.985)"/><path class="b" d="M201.246,435.371c2.213-1.317,2.635-2.9,2.371-4.071a103.873,103.873,0,0,1-18.746,1.963c-12.686.343-32.644-.435-39.521-.725a9.445,9.445,0,0,0,2.635,3.662C150.013,437.887,197.043,437.887,201.246,435.371Z" transform="translate(-129.081 -24.202)"/><path class="c" d="M145.367,440.751l1.225-2.859,1.673-34.423s-7.562,26.874-7.97,33.171C139.979,441.226,143.457,441.133,145.367,440.751Z" transform="translate(-130.691 -33.034)"/><path class="c" d="M282.259,291.9s-4.189,62.575,0,87.762S297,448.534,298.633,453.988a28.982,28.982,0,0,1,1.317,10.078l23.515,3.359s-7.14-82.717-7.14-92.373,7.983-81.887,7.983-81.887Z" transform="translate(-86.222 -68.442)"/><path class="c" d="M302.214,422.7s-25.609,10.921-28.56,13.016,6.31,5.045,17.639,5.045a225.687,225.687,0,0,0,22.685-1.317l4.611-2.516.422,2.938h12.172s2.108-10.078,1.317-12.594a46.442,46.442,0,0,0-2.095-5.045Z" transform="translate(-88.538 -27.08)"/><path class="c" d="M278.94,288.385s2.108,60.045,7.14,81.465,13.859,73.482,13.859,78.936a32.13,32.13,0,0,1-1.251,9.222L297,463.488a16.9,16.9,0,0,0,1.317,3.781s10.908,2.516,18.048,2.516A47.426,47.426,0,0,0,329.54,467.8s.224-13.174.645-19.431-1.673-46.608-1.673-56.264-2.529-15.123-2.529-26.874-2.095-43.249-1.673-48.294,6.3-10.539,7.562-16.8,2.516-13.016,2.516-13.016Z" transform="translate(-86.685 -69.959)"/><path class="u" d="M282.76,336s11.738,81.426,14.675,86.564a14.965,14.965,0,0,1,1.317,10.7" transform="translate(-85.472 -54.446)"/><path class="c" d="M271.7,252.568s-1.568,16.059-1.568,28.336c0,6.85-.066,15.808-.132,22.29a11.487,11.487,0,0,0,9.221,11.342,44.031,44.031,0,0,0,8.392,1.014l-9.867-61.1S273.28,246.9,271.7,252.568Z" transform="translate(-89.522 -81.593)"/><path class="c" d="M317.963,169.255a26.347,26.347,0,0,1,6.508,4.835,48.929,48.929,0,0,1,4.453,7.022s17.85,20.577,18.272,22.672-10.078,68.239-10.078,68.239l11.962,62.561s-19.312,10.71-34.014,11.342c-10.341.448-25.9-2.859-34.251-4.861a8.141,8.141,0,0,1-6.231-7.193c-.817-8.8-2.345-26.347-3.241-42.959-1.028-19.3,1.9-57.529,3.952-70.966s8.616-31.7,13.648-39.257S307.845,165.3,317.963,169.255Z" transform="translate(-89.164 -107.701)"/><path class="j" d="M327.092,181.094a48.936,48.936,0,0,0-4.4-6.929,26.346,26.346,0,0,0-6.508-4.835c-8.378-3.307-19.339,1.489-25.7,7.548-.843,1.871-7.483,17.02-10.631,29.4-3.359,13.174-2.938,29.825-2.938,29.825s11.132-14.28,26.242-31.077a200.355,200.355,0,0,1,24.635-23.146Z" transform="translate(-87.333 -107.683)"/><g class="v" transform="translate(189.564 60.568)"><path class="p" d="M327.092,181.094a48.936,48.936,0,0,0-4.4-6.929,26.346,26.346,0,0,0-6.508-4.835c-8.378-3.307-19.339,1.489-25.7,7.548-.843,1.871-7.483,17.02-10.631,29.4-3.359,13.174-2.938,29.825-2.938,29.825s11.132-14.28,26.242-31.077a200.355,200.355,0,0,1,24.635-23.146Z" transform="translate(-276.897 -168.251)"/></g><path class="m" d="M327.092,181.094a48.936,48.936,0,0,0-4.4-6.929,26.346,26.346,0,0,0-6.508-4.835c-8.378-3.307-19.339,1.489-25.7,7.548-.843,1.871-7.483,17.02-10.631,29.4-3.359,13.174-2.938,29.825-2.938,29.825s11.132-14.28,26.242-31.077a200.355,200.355,0,0,1,24.635-23.146Z" transform="translate(-87.333 -107.683)"/><path class="b" d="M288.361,186.087s-5.678,17.8-7.4,22.83-1.9,12.923-1.9,12.923,21.262-31.814,26.453-37.163,11.975-13.7,11.975-13.7l-4.571-1.317Z" transform="translate(-86.646 -107.236)"/><path class="b" d="M288.068,177.23s-2.516,7.4-2.516,7.9-.632,7.562-.632,7.562l8.971-12.133Z" transform="translate(-84.787 -104.833)"/><path class="b" d="M310.556,166,286,186l3.781,11.013,25.188-25.662Z" transform="translate(-84.444 -108.397)"/><path class="b" d="M303.474,286.4s-3.491,8.681-4.532,11.527-.514,13.99-.382,15.163,2.2,1.423,2.2,1.423.645,8.932,1.423,9.222a13.836,13.836,0,0,0,2.463.382s1.423,4.545,3.241,4.15a2.951,2.951,0,0,0,2.068-2.463,3.425,3.425,0,0,0,3.109-1.423,16.857,16.857,0,0,0,1.818-3.491s3.109-1.555,3.359-2.727,1.041-5.269,1.041-5.269.909-.263.909-2.977-2.068-19.431-2.068-19.431Z" transform="translate(-80.537 -70.187)"/><line class="m" y1="7.878" x2="0.382" transform="translate(220.223 236.448)"/><line class="m" y1="11.659" x2="0.843" transform="translate(224.109 242.244)"/><line class="m" y1="12.62" x2="0.606" transform="translate(229.418 242.968)"/><line class="m" y1="8.787" x2="0.751" transform="translate(234.345 241.888)"/><path class="c" d="M328.033,190.86l9.445,5.665-3.148,65.3-16.8,61.718-15.953-4.189,5.032-48.742L304.1,221.489s3.57-11.448,11.751-17.745" transform="translate(-79.499 -100.508)"/><path class="u" d="M308,199.23s-4.295,10.908-4.505,19.629" transform="translate(-78.893 -97.851)"/><path class="u" d="M312.147,203.17s-7.351,12-7.351,17.429,1.937,50.718,1.937,50.718l-5.032,39.1" transform="translate(-79.461 -96.601)"/><path class="a" d="M277.562,138.741s-5.045,14.333-4.571,16.388.948,5.19.948,5.19-7.9,9.762-6.929,10.868,5.348,2.358,5.348,2.358,3.623,15.123,5.045,16.533,10.236-1.726,10.236-1.726l9.445,11.962,19.365-18.575-2.358-9.762s10.236-17.956,10.078-26.466-17.626-19.839-30.075-19.681S270,130.56,272.359,133.866a17.837,17.837,0,0,0,5.2,4.874Z" transform="translate(-90.497 -121.146)"/><g class="w" transform="translate(176.43 4.683)"><path class="r" d="M315.178,133.3a27.664,27.664,0,0,0-6.969,1.976L289.648,142.8s-8.839,7.509-7.9,13.253,8.839,13.7,7.074,19.444S276,187.43,276,187.43l3.465.132c2.635-.619,5.348-1.581,5.348-1.581l1.449,1.831,17.89.646,9.472-9.09-2.358-9.762s10.236-17.956,10.078-26.466C321.238,140.005,318.814,136.488,315.178,133.3Z" transform="translate(-264.047 -123.458)"/></g><path class="m" d="M277.562,138.741s-5.045,14.333-4.571,16.388.948,5.19.948,5.19-7.9,9.762-6.929,10.868,5.348,2.358,5.348,2.358,3.623,15.123,5.045,16.533,10.236-1.726,10.236-1.726l9.445,11.962,19.365-18.575-2.358-9.762s10.236-17.956,10.078-26.466-17.626-19.839-30.075-19.681S270,130.56,272.359,133.866a17.837,17.837,0,0,0,5.2,4.874Z" transform="translate(-90.497 -121.146)"/><path class="c" d="M312.858,171.978s10.236-17.956,10.078-26.466-17.626-19.839-30.075-19.681-24.094,4.729-21.736,8.036a17.837,17.837,0,0,0,5.2,4.874s7.72,3.623,7.72,4.571-4.571,5.981-2.99,8.194,9.129,4.874,9.129,4.874-1.317,4.255.632,4.729,2.832-1.423,4.084-2.635,5.678-3,6.31,2.358a16.269,16.269,0,0,1-2.845,10.868c-.619.461,8.036,6.3,11.856,4.558.988-.448,2.147-1.041,3.307-1.66Z" transform="translate(-89.262 -121.146)"/><ellipse class="m" cx="1.107" cy="4.255" rx="1.107" ry="4.255" transform="translate(184.694 34.602)"/><line class="m" x2="18.575" y2="0.158" transform="translate(187.065 37.131)"/><path class="m" d="M272.68,146.828s1.765-2.819,3.531.7" transform="translate(-88.671 -114.821)"/><path class="m" d="M272.41,164.765a19.879,19.879,0,0,0,5.269-3.175" transform="translate(-88.757 -109.797)"/></g><g transform="translate(47.607 630.667)"><line class="x" x2="527.202" transform="translate(0 0)"/></g><g transform="translate(435.114 402.873)"><path class="d" d="M460.847,405.158a34.214,34.214,0,0,0-7.718,16.044l-15.481,8.675V388.856l.3.41,24.658-18.049c3.115.486,15.086,1.854,25.995-4.026C501.275,360.369,510.528,337,510.528,337s-30.2-3.418-40.428,9.252c-8.3,10.27-8.584,20.222-8.386,23.61l-24.065,17.608v-30.31a33.515,33.515,0,0,0,18.338-22.136c4.375-17.046-18.991-50.638-18.991-50.638S412.686,318.969,417.5,336.5c4.132,14.843,15.193,19.553,18.52,20.647v65.709L418.7,408.378c.4-3.464.714-14.3-8.933-25.144-11.7-13.157-42.859-12.154-42.859-12.154s13.142,26.3,24.308,35.065c9.784,7.6,23.291,4.558,26.542,3.631l18.231,15.193v19.979H408.872l11.076,69.218h33.227l11.106-69.2H437.648V431.745l17.016-9.541c4.132,1.155,15.694,3.525,26.633-1.945,13.674-6.822,24.84-21.437,24.84-21.437S473.518,390.542,460.847,405.158Z" transform="translate(-366.91 -284.39)"/><path class="y" d="M460.847,405.158a34.214,34.214,0,0,0-7.718,16.044l-15.481,8.675V388.856l.3.41,24.658-18.049c3.115.486,15.086,1.854,25.995-4.026C501.275,360.369,510.528,337,510.528,337s-30.2-3.418-40.428,9.252c-8.3,10.27-8.584,20.222-8.386,23.61l-24.065,17.608v-30.31a33.515,33.515,0,0,0,18.338-22.136c4.375-17.046-18.991-50.638-18.991-50.638S412.686,318.969,417.5,336.5c4.132,14.843,15.193,19.553,18.52,20.647v65.709L418.7,408.378c.4-3.464.714-14.3-8.933-25.144-11.7-13.157-42.859-12.154-42.859-12.154s13.142,26.3,24.308,35.065c9.784,7.6,23.291,4.558,26.542,3.631l18.231,15.193v19.979H408.872l11.076,69.218h33.227l11.106-69.2H437.648V431.745l17.016-9.541c4.132,1.155,15.694,3.525,26.633-1.945,13.674-6.822,24.84-21.437,24.84-21.437S473.518,390.542,460.847,405.158Z" transform="translate(-366.91 -284.39)"/></g></g></svg>