<svg xmlns="http://www.w3.org/2000/svg" xmlns:xlink="http://www.w3.org/1999/xlink" width="807.096" height="711.4" viewBox="0 0 807.096 711.4"><defs><style>.a,.c,.e,.h{fill:#fff;}.a,.j,.k,.m{stroke:#263238;}.a,.j,.k,.l,.m{stroke-linecap:round;stroke-linejoin:round;}.b{fill:#01ac61;}.c{opacity:0.5;}.d,.m{fill:#1c80c2;}.e{opacity:0.7;}.f,.j,.l{fill:none;}.f{stroke:#000;stroke-miterlimit:10;}.g,.k{fill:#263238;}.i{clip-path:url(#a);}.l{stroke:#fff;}</style><clipPath id="a"><rect class="a" width="450.417" height="582.534"/></clipPath></defs><g transform="translate(-51.11 -47.476)"><g transform="translate(51.11 683.027)"><ellipse class="b" cx="403.548" cy="37.925" rx="403.548" ry="37.925"/><ellipse class="c" cx="403.548" cy="37.925" rx="403.548" ry="37.925"/></g><g transform="translate(51.831 47.476)"><path class="d" d="M497.7,130.031c-7.946-4.295-11.575-.73-14.452-4.295s7.945-13.013-13.744-22.4c0,0-1.439-20.25-31.073-20.959s-21.667,20.229-29.613,25.275-10.114-2.878-18.06,2.147-4.295,15.182-10.844,16.621-15.182-6.442-23.128-1.439-7.945,9.384-11.553,9.384-10.844-2.878-15.182,0-9.384,6.442-9.384,6.442H503.48S505.649,134.347,497.7,130.031Z" transform="translate(269.528 -65.428)"/><path class="e" d="M497.7,130.031c-7.946-4.295-11.575-.73-14.452-4.295s7.945-13.013-13.744-22.4c0,0-1.439-20.25-31.073-20.959s-21.667,20.229-29.613,25.275-10.114-2.878-18.06,2.147-4.295,15.182-10.844,16.621-15.182-6.442-23.128-1.439-7.945,9.384-11.553,9.384-10.844-2.878-15.182,0-9.384,6.442-9.384,6.442H503.48S505.649,134.347,497.7,130.031Z" transform="translate(269.528 -65.428)"/><path class="d" d="M409.158,103.883c-4.918-2.684-7.151-.451-8.933-2.684s4.918-8.031-8.482-13.829c0,0-.88-12.5-19.2-12.885s-13.378,12.5-18.3,15.633-6.249-1.8-11.167,1.331-2.684,9.363-6.7,10.265-9.363-4.016-14.28-.9-4.918,5.82-7.151,5.82-6.678-1.782-9.363,0-5.8,4.016-5.8,4.016H412.723S414.054,106.567,409.158,103.883Z" transform="translate(245.57 -74.476)"/><path class="e" d="M409.158,103.883c-4.918-2.684-7.151-.451-8.933-2.684s4.918-8.031-8.482-13.829c0,0-.88-12.5-19.2-12.885s-13.378,12.5-18.3,15.633-6.249-1.8-11.167,1.331-2.684,9.363-6.7,10.265-9.363-4.016-14.28-.9-4.918,5.82-7.151,5.82-6.678-1.782-9.363,0-5.8,4.016-5.8,4.016H412.723S414.054,106.567,409.158,103.883Z" transform="translate(246.039 -74.476)"/><path class="d" d="M155.306,150.2c-4.9-2.684-7.129-.451-8.912-2.684s4.9-8.031-8.59-13.829c0,0-.9-12.5-19.2-12.885s-13.4,12.5-18.318,15.633-6.249-1.8-11.167,1.331-2.663,9.384-6.678,10.265-9.384-4.016-14.3-.88-4.9,5.8-7.129,5.8-6.7-1.782-9.384,0-5.8,4.016-5.8,4.016H158.785S160.223,152.887,155.306,150.2Z" transform="translate(-45.83 -21.327)"/><path class="e" d="M155.306,150.2c-4.9-2.684-7.129-.451-8.912-2.684s4.9-8.031-8.59-13.829c0,0-.9-12.5-19.2-12.885s-13.4,12.5-18.318,15.633-6.249-1.8-11.167,1.331-2.663,9.384-6.678,10.265-9.384-4.016-14.3-.88-4.9,5.8-7.129,5.8-6.7-1.782-9.384,0-5.8,4.016-5.8,4.016H158.785S160.223,152.887,155.306,150.2Z" transform="translate(-46.004 -21.327)"/></g><g transform="translate(55.298 209.555)"><path class="d" d="M408.107,626.546H536.8c-2.474-15.754-12.584-12.97-13.917-37.364-.677-12.294,10.689-27.487,9.665-43.627-.792-13.3-13.917-26.926-14.922-42.138-.928-13.724,10.264-28.994,9.181-43.743-1.024-13.975-14.323-27.409-15.464-41.926-1.14-14.188,9.819-29.574,8.524-43.9s-14.806-27.506-16.256-41.636c-1.469-14.536,9.143-30.173,7.519-44.071-1.72-14.768-15.657-27.506-17.532-41.114-2.107-15.135,7.732-31.295,5.451-44.458-2.841-16-17.745-27.6-20.876-39.413-5.8-22-5.1-43.221-12-44.593-7.384-1.488-9.046,19.33-14.633,42.525-2.8,11.6-17.4,23.5-19.774,39.529-1.933,12.97,8.35,28.762,6.669,43.839-1.508,13.531-15.077,26.481-16.411,41.153-1.237,13.8,9.781,28.994,8.7,43.453-1.063,14.033-14.227,27.409-15.135,41.655s10.457,29.188,9.665,43.26c-.792,14.42-13.724,28.028-14.381,41.906-.7,14.671,10.883,29.478,10.322,43.1-.638,15.077-13.376,28.994-13.859,42.08-.561,16,11.192,30.792,10.825,42.969-.773,26.462-12.893,20.973-13.318,42.274Z" transform="translate(260.971 -118.491)"/><path class="c" d="M408.107,626.546H536.8c-2.474-15.754-12.584-12.97-13.917-37.364-.677-12.294,10.689-27.487,9.665-43.627-.792-13.3-13.917-26.926-14.922-42.138-.928-13.724,10.264-28.994,9.181-43.743-1.024-13.975-14.323-27.409-15.464-41.926-1.14-14.188,9.819-29.574,8.524-43.9s-14.806-27.506-16.256-41.636c-1.469-14.536,9.143-30.173,7.519-44.071-1.72-14.768-15.657-27.506-17.532-41.114-2.107-15.135,7.732-31.295,5.451-44.458-2.841-16-17.745-27.6-20.876-39.413-5.8-22-5.1-43.221-12-44.593-7.384-1.488-9.046,19.33-14.633,42.525-2.8,11.6-17.4,23.5-19.774,39.529-1.933,12.97,8.35,28.762,6.669,43.839-1.508,13.531-15.077,26.481-16.411,41.153-1.237,13.8,9.781,28.994,8.7,43.453-1.063,14.033-14.227,27.409-15.135,41.655s10.457,29.188,9.665,43.26c-.792,14.42-13.724,28.028-14.381,41.906-.7,14.671,10.883,29.478,10.322,43.1-.638,15.077-13.376,28.994-13.859,42.08-.561,16,11.192,30.792,10.825,42.969-.773,26.462-12.893,20.973-13.318,42.274Z" transform="translate(262.52 -118.491)"/><line class="f" y2="459.676" transform="translate(724.322 42.446)"/><path class="f" d="M463.9,167.675l-20.953,18.092L425.8,162.92" transform="translate(280.526 -77.041)"/><path class="f" d="M463.9,209.065l-20.953,18.112L425.8,204.31" transform="translate(280.526 -38.426)"/><path class="f" d="M463.9,248l-20.953,18.092L425.8,243.24" transform="translate(280.526 -2.106)"/><path class="f" d="M463.9,294.315l-20.953,18.092L425.8,289.56" transform="translate(280.526 41.108)"/><path class="f" d="M463.9,341.125l-20.953,18.112L425.8,336.37" transform="translate(280.526 84.78)"/><path class="d" d="M53.109,601.418H168.642c-2.223-14.13-11.288-11.6-12.506-33.537-.6-11.037,9.665-24.684,8.718-39.162-.715-11.946-12.487-24.181-13.4-37.828-.831-12.313,9.2-26,8.234-39.258-.928-12.564-12.854-24.607-13.9-37.654-1.044-12.719,8.795-26.539,7.732-39.394s-13.3-24.7-14.574-37.383c-1.334-13.047,8.176-27.061,6.727-39.568-1.546-13.241-14.033-24.684-15.734-36.881-1.933-13.531,6.959-28.105,4.89-39.838-2.532-14.381-15.908-24.78-18.73-35.392-5.238-19.755-4.6-38.794-10.786-40.031-6.611-1.334-8.118,17.4-13.125,38.215C89.681,194.183,76.595,204.8,74.43,219.2c-1.74,11.6,7.519,25.8,5.992,39.336-1.353,12.12-13.531,23.775-14.71,36.939-1.121,12.39,8.756,26.056,7.732,39.026C72.5,347.08,60.687,359.1,59.913,371.88s9.394,26.191,8.7,38.833S56.279,435.841,55.68,448.328c-.619,13.183,9.781,26.462,9.259,38.659-.561,13.531-12,25.94-12.429,37.77-.5,14.381,10.051,27.641,9.665,38.659-.715,23.737-11.6,18.827-11.965,37.924Z" transform="translate(-50.21 -93.363)"/><path class="c" d="M53.109,601.418H168.642c-2.223-14.13-11.288-11.6-12.506-33.537-.6-11.037,9.665-24.684,8.718-39.162-.715-11.946-12.487-24.181-13.4-37.828-.831-12.313,9.2-26,8.234-39.258-.928-12.564-12.854-24.607-13.9-37.654-1.044-12.719,8.795-26.539,7.732-39.394s-13.3-24.7-14.574-37.383c-1.334-13.047,8.176-27.061,6.727-39.568-1.546-13.241-14.033-24.684-15.734-36.881-1.933-13.531,6.959-28.105,4.89-39.838-2.532-14.381-15.908-24.78-18.73-35.392-5.238-19.755-4.6-38.794-10.786-40.031-6.611-1.334-8.118,17.4-13.125,38.215C89.681,194.183,76.595,204.8,74.43,219.2c-1.74,11.6,7.519,25.8,5.992,39.336-1.353,12.12-13.531,23.775-14.71,36.939-1.121,12.39,8.756,26.056,7.732,39.026C72.5,347.08,60.687,359.1,59.913,371.88s9.394,26.191,8.7,38.833S56.279,435.841,55.68,448.328c-.619,13.183,9.781,26.462,9.259,38.659-.561,13.531-12,25.94-12.429,37.77-.5,14.381,10.051,27.641,9.665,38.659-.715,23.737-11.6,18.827-11.965,37.924Z" transform="translate(-50.282 -94.363)"/><line class="f" y2="412.627" transform="translate(52.48 90.093)"/><path class="f" d="M103.213,189.542,84.406,205.8,69,185.27" transform="translate(-32.68 -56.189)"/><path class="f" d="M103.213,226.7,84.406,242.939,69,222.43" transform="translate(-32.68 -21.521)"/><path class="f" d="M103.213,261.642,84.406,277.9,69,257.37" transform="translate(-32.68 11.076)"/><path class="f" d="M103.213,303.222,84.406,319.478,69,298.95" transform="translate(-32.68 49.869)"/><path class="f" d="M103.213,345.242,84.406,361.5,69,340.97" transform="translate(-32.68 89.071)"/></g><g transform="translate(575.281 175.497)"><path class="g" d="M450.033,645.623l-26.25-18.614a1.01,1.01,0,0,0-.309-.116c2.3-10.728,18.788-89.5,17.01-131.267-1.218-28.279-4.716-80.508-7.133-115.127A186.414,186.414,0,0,0,444.2,356.357c3.383-11,6.475-25.612,3.673-50.682-2.9-26.211-8.35-73.607-8.35-73.607a1.438,1.438,0,0,0-.1-.309h0a1,1,0,0,0-.329-.367h0l-16.256-11.1a68.321,68.321,0,0,0-.29-7.152c-.348-2.667-3.6-4.89-7.171-6.553l-.1-2.648c5.219-4.91,9.665-12.584,10.225-16.391a50.487,50.487,0,0,0,.232-7.036c1.7-1.121,3.189-2.493,3.189-3.866s-1.778-4.562-3.557-7.133c-.1-2.416-.213-4.89-.348-7.268a7.732,7.732,0,0,0,2.068-10.109,7.618,7.618,0,0,0,1.256-1.372c1.933-2.745,1.933-6.649-.116-11.946a10.921,10.921,0,0,0-5.8-6.611,12.97,12.97,0,0,0-8.795,0,10.786,10.786,0,0,0-10.825-4.233,13.529,13.529,0,0,0-4.484,1.6,7.268,7.268,0,0,0-5.8-2.841,6.939,6.939,0,0,0-7.113,6.553,4.736,4.736,0,0,0-3.6-1.8c-2.841,0-5.142,2.841-5.142,6.34h0a5.486,5.486,0,0,0-.812,0,7.365,7.365,0,0,0-7.133,7.539,7.732,7.732,0,0,0,1.933,5.142,6.088,6.088,0,0,0-1.16,3.576,5.8,5.8,0,0,0,5.451,5.934,6.2,6.2,0,0,0-1.3,3.866,5.8,5.8,0,0,0,5.567,5.954c-2.8,1.372-4.1,4.852-3.286,9.066s3.325,7.886,7,9.046a12.856,12.856,0,0,0,1.527,2.648c1.488,1.933,2.977,3.866,4.465,5.683l.464,7.944c-3.035.367-7.519,1.546-8.524,5.064a27.057,27.057,0,0,1-2.532,5.8l-3.17,1.933h0a1.082,1.082,0,0,0-.909.135l-5.567,3.711-18.556,10.9h0c-.309.193-7.6,4.7-9.1,16-.348,2.571-1.218,10.979-2.126,21.591-4.968,11.134-11.346,25.708-13.84,32.86-4.755,13.531-1.8,42.8-.792,51.455,1.218,10.245,4.736,24.065,21.378,25.728q1.778.174,3.6.174a43.165,43.165,0,0,0,8.582-.908c0,4.774.155,9.085.155,12.042,0,11.366,13.724,227.412,14.381,237.6l-1.933,17.764a6.2,6.2,0,0,0,6.185,6.862h71.055a3.866,3.866,0,0,0,2.455-6.881Zm-43.395-6.92-13.009-11.288c.387-7.558,4.774-94.579,4.774-117.369,0-16.643.928-61.565,1.488-86.983,2.281,23.679,5.8,62.937,5.8,70.765,0,11.385,1.933,132.929,1.933,134.166v.135Z" transform="translate(-322.441 -126.739)"/></g><g transform="translate(166.944 127.021)"><rect class="h" width="450.417" height="582.534" transform="translate(12.873)"/><g class="i" transform="translate(12.873)"><path class="b" d="M564.187,146.91,113.77,618.84v23.138H564.187Z" transform="translate(-113.77 -59.444)"/><path class="e" d="M564.187,146.91,113.77,618.84v23.138H564.187Z" transform="translate(-113.77 -59.444)"/></g><rect class="j" width="450.417" height="582.534" transform="translate(12.873)"/><rect class="g" width="450.417" height="25.824" transform="translate(12.873)"/><rect class="a" width="473.573" height="15.676" transform="translate(0)"/><rect class="k" width="473.573" height="15.676" transform="translate(0 576.561)"/></g><g transform="translate(627.892 182.924)"><path class="a" d="M410.954,392.2l24.626,17.4a2.61,2.61,0,0,1-1.72,4.6H400.516a4.813,4.813,0,0,1-4.794-5.316l1.74-16.759Z" transform="translate(-311.154 113.423)"/><line class="j" x1="39.857" y1="0.715" transform="translate(84.569 522.379)"/><path class="a" d="M375.234,201.115S359,236.527,354.571,249.053s-2.2,39.1-.735,51.648,5.915,23.6,20.663,25.128,30.927-6.63,36.881-14.014,1.469-86.306,1.469-98.832S383.256,179.718,375.234,201.115Z" transform="translate(-351.959 -73.407)"/><path class="a" d="M418.826,184.79s5.509,48,8.466,74.554-.735,41.307-3.692,50.895S410.321,339,410.321,339l-5.161-49.426Z" transform="translate(-302.325 -80.006)"/><path class="a" d="M395.908,176.753,366.16,194.227l7.519,116.325,72.795-.966,8.737-115.494-28.26-19.272Z" transform="translate(-338.71 -89.308)"/><path class="k" d="M386.157,181.542s19.175,44.245,19.175,53.833-41.462,82.479-41.462,82.479l3.054,10.187s48-91.835,48-94.715-22.132-56.056-22.132-56.056Z" transform="translate(-340.846 -87.022)"/><path class="a" d="M372.716,184.86s-7.229,4.349-8.7,15.464-7.384,75.984-3.692,84.837,11.076,2.938,16.971,0S389.8,215.768,389.8,215.768s-2.223-13.279-7.384-21.4" transform="translate(-345.266 -79.941)"/><path class="a" d="M395.094,170.759s-9.066,0-10.341,4.523a34.679,34.679,0,0,1-4.542,9.066l19.33,18.75L409.881,190.8l14.884,9.665s.638-16.159,0-21.262-16.159-9.046-16.159-9.046Z" transform="translate(-325.602 -93.655)"/><path class="a" d="M386.57,161.77l1.295,22.635,16.16,17.474,7.77-16.817L411.157,165Z" transform="translate(-319.668 -101.483)"/><path class="a" d="M408.7,136.013s17.822,4.7,17.822,16.894.135,28.376-4.678,34.793c-6.843,8.988-14.072,17.822-21.591,17.822s-17.126-14.652-18.073-20.277c-.754-4.5.561-25.8,1.005-35.1a12.815,12.815,0,0,1,4.214-8.911C391.091,137.849,397.7,134.428,408.7,136.013Z" transform="translate(-323.977 -125.886)"/><path class="j" d="M384,148.917a4.968,4.968,0,0,1,5.528,5.528c0,6.147-4.291,14.149-2.455,15.985a13.4,13.4,0,0,0,6.147,2.474v6.765s3.692,4.291,10.457-2.474" transform="translate(-322.066 -113.507)"/><path class="j" d="M390.38,152.009s1.933-6.166,10.457-1.237" transform="translate(-316.114 -113.526)"/><path class="g" d="M392.29,155.783c0,1.7.56,3.093,1.237,3.093s1.237-1.392,1.237-3.093-.561-3.073-1.237-3.073S392.29,154.1,392.29,155.783Z" transform="translate(-314.332 -109.935)"/><path class="g" d="M384.66,155.783c0,1.7.541,3.093,1.218,3.093s1.237-1.392,1.237-3.093-.561-3.073-1.237-3.073S384.66,154.1,384.66,155.783Z" transform="translate(-321.45 -109.935)"/><path class="k" d="M427.832,178.574s-5.18,2.59-6.456.657-.657-7.113-1.3-11-3.866-5.8-5.8-8.408,1.3-7.732,1.3-9.665-12.274,5.8-23.2,5.8-14.884-4.523-11-14.864,14.227-5.8,14.227-5.8a9.858,9.858,0,0,1,10.341-4.523c7.133,1.276,8.408,6.456,8.408,6.456s16.817,5.18,16.817,12.931S427.832,178.574,427.832,178.574Z" transform="translate(-325.866 -130.581)"/><path class="a" d="M402.379,162.924s-.657-12.931,5.8-10.361,2.59,16.817-5.18,16.817" transform="translate(-304.937 -110.388)"/><path class="k" d="M442.845,244.54s4.484,10.013,6.108,33.44c.232,3.189-2.783,13.531-2.552,17.01,2.32,33.672,5.084,76.2,6.147,100.958,1.933,45.618-17.4,133.934-17.4,133.934H421.621s-1.933-124.231-1.933-135.867-7.732-90.269-7.732-90.269-1.933,82.5-1.933,106.757-4.852,119.379-4.852,119.379h-19.6s-14.555-229.055-14.555-240.691-.967-43.685-.967-43.685Z" transform="translate(-335.081 -24.262)"/><path class="a" d="M389.069,209.615l10.3-4.291a4.5,4.5,0,0,1,6.031,5.8,5.064,5.064,0,0,1-1.527,1.933,4.484,4.484,0,0,0-1.8,4.465,13.048,13.048,0,0,1-5.065,13.241,11.268,11.268,0,0,1-3.035,1.45,60.368,60.368,0,0,0-11.869,4.91l-4.89-14.033Z" transform="translate(-328.392 -61.224)"/><path class="a" d="M394.467,214.28s-33.034,30.831-34.5,34.523-3.692,13.279,7.384,19.175,32.01-39.664,32.01-39.664Z" transform="translate(-345.638 -52.494)"/><path class="a" d="M398.429,392.2l21.746,18.885a2.822,2.822,0,0,1-1.933,4.948H382.289a5.18,5.18,0,0,1-5.161-5.8l1.933-18.112Z" transform="translate(-328.512 113.423)"/><line class="j" y1="0.425" x2="40.457" transform="translate(48.616 523.307)"/></g><g transform="translate(348.317 277.998)"><path class="k" d="M310.681,223.574c-1.372.445-11.791,4.079-23.582-5.9s-6.8-35.373,13.144-37.635,23.2,9.974,27.216,13.531,8.6-4.987,24.935-4.079,31.237,21.842,29.458,39.973-11.791,19.04-13.144,33.556,14.961,20.857,25.844,28.55,21.765,28.124,14.516,43.994-24.935,27.2-19.04,37.615,16.314,34.02.445,43.994-28.105,8.157-32.647-2.725-6.8-105.636-9.974-111.531-13.531-10.883-14.961-24.49,1.353-19.5-2.262-24.935-13.144-16.778-14.053-22.21a13.859,13.859,0,0,1,1.353-9.066Z" transform="translate(-130.383 -179.767)"/><path class="l" d="M287.14,192.485c2.687-5.316,7.5-10.013,15.985-8.118,18.924,4.194,12.874,18.034,27.061,24.471s32.2.657,40.592,10.322,1.933,15.464,1.933,15.464" transform="translate(-124.471 -175.875)"/><path class="l" d="M285.41,197.8a37.445,37.445,0,0,1,1.372-6.862" transform="translate(-126.085 -169.343)"/><path class="l" d="M306.74,204.16s1.3,9.008,16.759,10.3,20.605,13.531,16.1,21.9" transform="translate(-106.185 -157.009)"/><path class="l" d="M328.53,289.59a19.561,19.561,0,0,0,4.91,6.243" transform="translate(-85.856 -77.307)"/><path class="l" d="M325.656,215.16s-4.5,5.142-7.732,23.2c-2.938,16.469,11.6,38,25.766,48.962s11.6,23.2,1.3,34.793a38.1,38.1,0,0,0-8.756,27.815" transform="translate(-96.107 -146.747)"/><path class="l" d="M323.334,225.82s-2.32,11.482,2.59,21.262c9.665,19.33,42.525,21.263,41.23,39.316" transform="translate(-91.214 -136.801)"/><path class="a" d="M301.18,234.391a169.08,169.08,0,0,1,2.725,19.5c.464,8.157.464,13.531.464,13.531l23.2-9.066a189.051,189.051,0,0,1-7.4-23.969,87.593,87.593,0,0,1-1.8-11.791Z" transform="translate(-111.372 -139.805)"/><path class="a" d="M346.269,226.042c-2.725-5.9-9.529-6.34-12.7-1.817a61.507,61.507,0,0,0-4.078,6.359s-12.255-12.255-9.974-18.6,9.066-11.346,3.615-13.144-25.786,4.078-25.786,4.078-1.141,9.529-2.165,20.045c0,0-1.179,4.7-4.6,6.069s-2.416,4.137-.348,4.465c1.179.213,2.706.619,3.982.947-.29,4.1-.483,7.828-.483,10.631,0,12.236,5.432,19.04,9.974,19.04s24.993-6.475,27.7-11A64.663,64.663,0,0,0,336.353,241S348.976,231.937,346.269,226.042Z" transform="translate(-123.35 -162.287)"/><path class="j" d="M292.49,221.348a5.528,5.528,0,0,0,6.186-2.068" transform="translate(-119.479 -142.903)"/><path class="g" d="M296.669,212.818c0,1.624-.638,2.9-1.314,2.88s-1.14-1.353-1.082-2.957.638-2.9,1.3-2.88S296.727,211.213,296.669,212.818Z" transform="translate(-117.821 -151.691)"/><path class="j" d="M293.55,209.194s3.093-5.161,6.185,1.372" transform="translate(-118.49 -154.118)"/><path class="m" d="M336.385,238.3s-24.491,14.961-28.569,23.2-18.131,31.275-19.5,38.988,18.6,29.922,21.263,32.184,1.353,17.687.445,25.4-1.353,15.87-13.144,23.563-8.1,44.922,10.032,50.721,49.426.464,50.779-36.726-2.262-105.636-6.8-131.016S338.647,233.781,336.385,238.3Z" transform="translate(-123.44 -126.496)"/><path class="a" d="M301.209,304.624s-19.484-9.529-23.563,6.8S244.09,426.593,244.09,426.593s-20.857-2.725-30.386-6.359-13.531-2.725-8.6,4.078,19.948,16.778,30.367,22.674,10.883,7.732,12.236,5.9,9.974-33.092,21.262-53.04,21.263-39.452,28.994-52.19a77.031,77.031,0,0,0,9.529-26.752" transform="translate(-202.984 -65.859)"/><path class="a" d="M283.53,316.1s-26.752-1.817-32.648,5.432,18.131,105.191,20.393,120.152,3.634,27.661,1.817,29.922-18.131,21.263-24.935,25.844,2.262,6.34,9.974,3.634,24.027-11.791,30.386-13.531,9.51-3.634,8.6-9.529-7.249-1.353-12.7-42.158c-2.262-17.087-.889-58.936-1.8-76.178s-1.372-26.288-1.372-26.288l17.686-3.634Z" transform="translate(-163.076 -52.765)"/><path class="a" d="M247.379,320.368s35.818,39.9,37.19,37.171,1.353-47.145,1.353-47.145-35.122-10.322-38.852-8.08" transform="translate(-161.854 -65.734)"/><path class="m" d="M366.94,323.714,264.01,304.23l-3.17,51.223s57.119,24.027,82.054,22.229,37.19-16.778,38.543-33.556" transform="translate(-149.007 -63.649)"/><path class="m" d="M270.888,398.74c-5.084,5.934-17.126,19.5-22.732,23.2-6.8,4.523,2.262,6.34,9.974,3.634s24.027-11.791,30.386-13.531,9.51-3.634,8.6-9.529c-.367-2.4-1.662-3.054-3.46-5.8l-16.507,8.93Z" transform="translate(-163.076 22.631)"/><path class="m" d="M238.193,377.254l4.755-6.939c-4.426-.619-21.031-3.073-29.246-6.2-9.51-3.615-13.531-2.725-8.6,4.079s19.948,16.778,30.367,22.674,10.882,7.732,12.236,5.9c.541-.715,2.2-5.992,4.716-13.357Z" transform="translate(-202.982 -9.735)"/><path class="a" d="M354.327,264.846s.464-17.242-13.144-15.464-11.791,26.307-11.791,26.307l-1.585,66.764L277.26,360.469l24.027,4.523s44.883-.445,47.609-4.079S354.327,264.846,354.327,264.846Z" transform="translate(-133.688 -114.939)"/><path class="a" d="M297.26,305.578s-12.893-5.142-16.759-3.209-8.37,9.008-7.732,11.6S297.26,305.578,297.26,305.578Z" transform="translate(-137.935 -65.789)"/><path class="j" d="M272.74,313.758l12.236-11.6,7.094,1.933-10.535,8.176" transform="translate(-137.905 -65.58)"/><rect class="a" width="113.155" height="139.984" rx="3.45" transform="translate(137.831 308.583)"/></g><g transform="translate(134.058 270.867)"><rect class="a" width="113.155" height="139.984" rx="3.45" transform="translate(0 315.714)"/><path class="a" d="M199.86,271.414a126.29,126.29,0,0,1,14.053-9.974c6.359-3.615,37.19-6.34,37.19-6.34l1.353,17.223s-20.412,4.987-21.765,5.451-6.34,4.523-13.144,5.432a89.313,89.313,0,0,1-14.516.464Z" transform="translate(19.646 -102.354)"/><path class="a" d="M209.71,240.543,223.318,316.7l61.661-13.144L270.018,226.49Z" transform="translate(28.836 -129.046)"/><path class="m" d="M145.124,238.92,192.732,304.2l86.19-19.948,1.817,14.516-86.152,38.079-72.08-64.387S107.489,243.443,145.124,238.92Z" transform="translate(-55.28 -117.449)"/><path class="a" d="M137.569,214.206a129.735,129.735,0,0,1-6.8,17.687,43.029,43.029,0,0,0-3.615,7.732L147.1,256.847s5.432-8.621,10.419-12.236a67.957,67.957,0,0,1,8.621-5.451,50.14,50.14,0,0,1-10.438-22.21c-3.17-14.517-3.17-18.131-3.17-18.131Z" transform="translate(-48.189 -154.86)"/><path class="k" d="M196.41,202.776s9.066,2.281,9.529-5.8-11.288-17.764-32.551-20.489-37.19,8.621-40.36,19.5-.908,22.654-.908,29.458-2.706,9.529.908,13.531S150.27,240.8,150.27,240.8s14.5-1.817,15.464-5.8-1.353-9.529,2.725-12.7,10.883-6.34,10.419-11.327a34.312,34.312,0,0,0-.909-6.359s9.529,3.634,12.7,2.262a21.859,21.859,0,0,0,5.741-4.1Z" transform="translate(-44.46 -176.078)"/><path class="l" d="M166.727,187.84s-21.9-2.435-34.387,14.246" transform="translate(-43.347 -165.22)"/><path class="l" d="M162.84,191.1s-18.769,3.131-29.69,17.2" transform="translate(-42.591 -162.063)"/><path class="a" d="M189.666,218.722c2.919-12.989,4.794-26.81,4.794-26.81s-23.2-4.987-28.569-4.079-1.353,9.066-.445,14.961-8.157,8.157-10.438,9.974.464,6.359.464,9.066-3.634,3.634-6.8,3.189-.908-12.7-5.432-14.516-10.438,4.079-9.974,9.974,8.6,8.157,8.6,8.157.464,16.778,5.9,20.412,21.765,10.419,25.844,9.51S179.4,248.142,184.95,235c.387-.947.773-1.933,1.14-3.093,4.523.309,7.539-3.866,6.108-5.18C191.212,225.739,190.227,221.525,189.666,218.722Z" transform="translate(-42.51 -165.214)"/><path class="j" d="M164.476,202.248s-2.378-6.224-8.756-1.16" transform="translate(-21.534 -154.596)"/><path class="g" d="M159.306,205.944c-.348,1.624-1.179,2.841-1.933,2.706s-.947-1.585-.619-3.228,1.179-2.861,1.933-2.706S159.615,204.3,159.306,205.944Z" transform="translate(-20.713 -151.238)"/><path class="g" d="M153.271,212.62s-.116,5.528,1.933,6.553,6.475-4.117,6.475-4.117S155.783,214.63,153.271,212.62Z" transform="translate(-23.821 -141.986)"/><path class="k" d="M141.166,308s91.583,6.8,101.113,11.346,12.68,12.68,13.531,24.935,9.066,134.65,9.066,134.65l-12.68,4.542L217.305,350.7l-90.694,7.732s-11.772-1.817-14.961-17.687a29.767,29.767,0,0,1,6.8-25.844" transform="translate(-63.249 -53.001)"/><path class="k" d="M89.922,303.024S88.569,355.214,94,366.058s54.857,9.974,64.851,4.523,16.314-27.2,13.144-45.328.908-21.262-6.359-23.582S89.922,303.024,89.922,303.024Z" transform="translate(-83.06 -59.622)"/><path class="m" d="M154.778,218.619c1.7,1.121,27.661,28.994,29.478,35.818s.908,43.53-3.634,59.4-12.236,35.354-12.236,42.158,5.8,20.412,2.262,25.4-31.275,8.6-49.87,7.732-29.922-5.432-30.927-9.066,5.451-72.544,13.144-97.015,19.059-41.269,28.125-48.981S152.091,216.8,154.778,218.619Z" transform="translate(-83.085 -136.599)"/><path class="j" d="M107.21,268.846s7.384,2.223,32.532-16.256" transform="translate(-66.792 -104.695)"/><path class="j" d="M100.71,284.4s28.82-.735,47.319-30.309" transform="translate(-72.856 -103.296)"/><path class="m" d="M130.631,211.76l28.975,32.087-5.451,16.778L122.01,223.551Z" transform="translate(-52.984 -142.788)"/><path class="k" d="M144.261,314.69s79.251,1.566,105,7.461,25.128,13.859,15.464,38.388c-4.368,11.134-82.653,111.879-82.653,111.879l-11.327-5.9,50.779-104.283s-93.4,6.8-113.348.908-18.6-22.21-16.333-31.739" transform="translate(-82.29 -46.759)"/><path class="l" d="M180.689,342.65c-3.228,5.528-5.8,9.394-5.8,9.394" transform="translate(-3.65 -20.674)"/><path class="l" d="M121.05,315.2s99.064,6.127,110.294,9.182,14.3,11.23,9.2,24.51a123.344,123.344,0,0,1-6.823,14.362" transform="translate(-53.88 -46.283)"/><path class="l" d="M122.39,315.2s-19.33,14.285-22.48,27.564" transform="translate(-73.603 -46.283)"/><path class="l" d="M105.964,316.78s-13.279,18.382-11.23,27.583" transform="translate(-78.632 -44.809)"/><path class="m" d="M196.751,399.433s43.53-8.621,43.53-5.432-18.595,15.464-28.994,20.857-16.314,11.772-19.948,10.419-7.249-21.262-7.249-21.262Z" transform="translate(4.933 26.574)"/><path class="m" d="M151.063,399.136s8.621,12.68,12.236,16.778,19.5,14.961,14.961,15.87-25.38-2.725-36.262-6.359-17.242-8.6-18.131-11.327,15.87-20.857,15.87-20.857" transform="translate(-51.284 26.524)"/><path class="m" d="M201.009,305.662s-56.21-69.354-63.923-72.988-19.5,8.157-22.674,19.948,3.17,23.2,10.883,28.569c3.421,2.4,72.544,58.936,76.178,59.38s84.315-76.622,84.315-76.622l-8.157-7.732Z" transform="translate(-60.851 -123.902)"/><path class="a" d="M198.45,262.188s3.17-22.229,4.542-23.2,10.419-10.419,11.791-9.066,2.262,3.17.445,4.987a57.852,57.852,0,0,0-5.432,9.066s12.68-10.419,14.5-13.144,4.987-6.8,6.359-4.523-5.9,19.484-8.176,24.935-15.87,18.576-15.87,18.576Z" transform="translate(18.331 -129.834)"/><path class="a" d="M202,271.336s12.7-14.961,14.053-16.314S236,252.76,236,252.76s4.542,0,2.281,2.706-14.961,4.987-14.961,4.987-4.1,9.974-7.268,11.791a12.371,12.371,0,0,1-6.8,1.817" transform="translate(21.643 -104.537)"/></g></g></svg>