<svg width="24" height="24" xmlns="http://www.w3.org/2000/svg"><path d="m14.737 18.394 1.434 1.434a2.104 2.104 0 1 1-1.677 1.68l-1.435-1.436 1.678-1.678ZM16.562 0a2.104 2.104 0 1 1-.391 4.172L8.343 12l3.595 3.594 2.474-2.473 1.677 1.678-6.604 6.604a2.104 2.104 0 1 1-1.763-1.593l2.539-2.538-7.767-7.766A2.104 2.104 0 1 1 4.173 7.83l2.492 2.493 3.596-3.594L7.723 4.19a2.104 2.104 0 1 1 1.763-1.593l2.452 2.453 2.555-2.557A2.104 2.104 0 0 1 16.562 0Zm5.334 5.334a2.104 2.104 0 1 1-.493 4.15L18.888 12l2.516 2.515a2.104 2.104 0 1 1-1.594 1.763L13.06 9.527l1.678-1.678 2.473 2.473 2.6-2.6a2.104 2.104 0 0 1 2.085-2.388ZM3.866 13.12l1.678 1.678-1.372 1.372a2.104 2.104 0 1 1-1.68-1.676l1.375-1.374Z" fill="#4285F4" fill-rule="nonzero"/></svg>