<svg width="24" height="24" xmlns="http://www.w3.org/2000/svg"><path d="M12.416 0c.851 0 1.571.47 2.16 1.266.479.647.893 1.54 1.236 2.637.675 2.155 1.056 5.034 1.056 8.097 0 3.063-.381 5.942-1.056 8.097-.343 1.097-.757 1.99-1.236 2.637-.589.795-1.309 1.266-2.16 1.266-1.948 0-3.153-1.698-3.795-4.596a.836.836 0 0 1-.017-.26h1.956c.264 1.171.595 2.323.964 2.704.246.254.495.345.892.345a.1.1 0 0 0 .03-.006.454.454 0 0 0 .105-.053c.12-.08.26-.219.41-.42.345-.467.681-1.192.971-2.119.62-1.98.98-4.692.98-7.595 0-2.903-.36-5.616-.98-7.595-.29-.927-.626-1.652-.972-2.12-.148-.2-.289-.34-.41-.419a.454.454 0 0 0-.103-.053.1.1 0 0 0-.031-.006c-.319 0-.6.15-.908.555-.391.517-.733 1.36-.996 2.55H8.519c.318-1.596.774-2.778 1.386-3.586C10.563.458 11.426 0 12.415 0Zm.263 14.965v1.807H3.17a.905.905 0 1 1 0-1.807h9.51Zm6.082-1.92h4.333a.905.905 0 1 1 0 1.807h-4.492c.075-.588.128-1.192.159-1.808Zm-6.082-1.92v1.807H.906a.905.905 0 1 1 0-1.807h11.773Zm5.982-1.921h4.433a.905.905 0 0 1 .099 1.803l-.099.005h-4.313a24.56 24.56 0 0 0-.12-1.808Zm-5.982-1.92v1.808H3.17a.905.905 0 0 1-.098-1.802l.099-.005h9.51Z" fill="#4285F4" fill-rule="nonzero"/></svg>