<svg width="24" height="19" xmlns="http://www.w3.org/2000/svg"><g fill="none" fill-rule="evenodd"><path d="m14.76 8.563-1.464 1.447c.499.377.794.96.8 1.581a2.036 2.036 0 0 1-.621 1.446 2.085 2.085 0 0 1-1.475.586 2.048 2.048 0 0 1-1.6-.79l-1.464 1.446A4.109 4.109 0 0 0 12 15.663c1.095 0 2.145-.43 2.919-1.195a4.056 4.056 0 0 0 1.209-2.885 4.02 4.02 0 0 0-1.368-3.02Z" fill="#4285F4"/><path d="M12 4.167C8.964 4.164 6.226 5.969 5.062 8.74a7.353 7.353 0 0 0 1.621 8.085 7.569 7.569 0 0 0 8.179 1.611c2.805-1.147 4.634-3.852 4.634-6.853 0-4.093-3.355-7.412-7.496-7.416m0 12.65a5.337 5.337 0 0 1-4.93-3.257 5.229 5.229 0 0 1 1.16-5.748 5.382 5.382 0 0 1 5.818-1.138 5.273 5.273 0 0 1 1.734 8.622A5.368 5.368 0 0 1 12 16.85" fill="#AECBFA"/><path d="m23.544 10.864-3.072-.957A8.506 8.506 0 0 1 20.576 13h2.968c.272-.08.456-.246.456-.49v-1.155a.532.532 0 0 0-.456-.49M12 3.29a8.965 8.965 0 0 1 1.8.189L12.664.459A.542.542 0 0 0 12.16 0h-.464a.542.542 0 0 0-.504.459l-.952 3.004A8.9 8.9 0 0 1 12 3.29M3.328 11.726a8.506 8.506 0 0 1 .2-1.819l-3.072.957a.532.532 0 0 0-.456.49v1.154c0 .245.184.412.456.49h2.968a8.293 8.293 0 0 1-.096-1.272" fill="#669DF6"/><path d="M12 8.61c-1.657 0-3 1.328-3 2.965 0 1.638 1.343 2.965 3 2.965s3-1.327 3-2.965c0-1.637-1.343-2.965-3-2.965Zm0 4.452a1.504 1.504 0 0 1-1.395-.912 1.474 1.474 0 0 1 .32-1.623 1.517 1.517 0 0 1 1.64-.326c.564.23.931.772.931 1.374a1.47 1.47 0 0 1-.432 1.056c-.281.28-.664.439-1.064.439v-.008Z" fill="#AECBFA"/></g></svg>