<svg width="24" height="24" xmlns="http://www.w3.org/2000/svg"><g fill="none" fill-rule="evenodd"><path d="M0 0h24v24H0z"/><path fill="#5C85DE" fill-rule="nonzero" d="M6 2.356.75 5.387v13.706L6 22.125v-2.636l-3.001-1.731V6.73L6 4.993z"/><path fill="#3367D6" fill-rule="nonzero" d="M.75 8.034v8.427L3 17.758V6.73z"/><path fill="#3367D6" fill-rule="nonzero" d="M.75 8.034 3 7.526V6.73z"/><path fill="#5C85DE" fill-rule="nonzero" d="M18 2.356v2.637l3 1.737v11.028l-3 1.731v2.636l5.25-3.032V5.387z"/><path fill="#3367D6" fill-rule="nonzero" d="m21 17.758 2.25-1.298V8.035L21 6.73z"/><path fill="#3367D6" fill-rule="nonzero" d="m21 7.526 2.25.509L21 6.73zM21 17.115v.644l2.25-1.299z"/><g fill-rule="nonzero"><path fill="#5C85DE" d="M12 5.538 9 7.125l3 1.588 3-1.588z"/><path fill="#3367D6" d="m12.404 12.442 2.922-1.616V7.654l-2.922 1.62zM11.654 9.274l-2.922-1.62v3.173l2.922 1.614z"/><g><path fill="#5C85DE" d="m8.514 11.39-2.87 1.587 2.87 1.588 2.871-1.588z"/><path fill="#3367D6" d="m8.78 18.295 2.922-1.616v-3.172L8.78 15.126zM8.249 15.126l-2.922-1.619v3.172l2.922 1.614z"/></g><g><path fill="#5C85DE" d="m15.534 11.39-2.87 1.587 2.87 1.588 2.871-1.588z"/><path fill="#3367D6" d="m15.8 18.295 2.922-1.616v-3.172L15.8 15.126zM15.269 15.126l-2.922-1.619v3.172l2.922 1.614z"/></g></g></g></svg>