<svg width="24" height="24" xmlns="http://www.w3.org/2000/svg"><g fill-rule="nonzero" fill="none"><path d="M6.633 19.971V8.665h2.301V19.97H6.633Zm-4.62 0V8.665h2.228V19.97H2.014Zm9.313 0V8.665h2.211V19.97h-2.211Zm6.74-11.306v5.25l-2.137.986V8.665h2.137Z" fill="#4285F4"/><path d="m18.403 18.847-.535.542 1.554 1.583.731-.755.23-.23v3.668l-.23.345h-.065a4.936 4.936 0 0 1-1.241-.509 5.742 5.742 0 0 1-2.548-4.307v-3.25l3.945-1.788.23.46v4.282l-.23.238-.732.747-1.11-1.026Z" fill="#AECBFA"/><path d="M20.137 14.146v4.98l.23-.238 1.595-1.64.526.54-2.12 2.183-.231.23v3.783h.058c.44-.124.86-.31 1.249-.55a5.485 5.485 0 0 0 1.734-1.822A5.95 5.95 0 0 0 24 19.151v-3.216l-3.863-1.79ZM15.69 21.227h-5.654v-2.002h5.145v.082c.07.662.241 1.31.51 1.92Z" fill="#669DF6"/><path d="M8.655 5.26a1.38 1.38 0 0 0 1.38 1.378v2.404H.009v-2.01L10.036 0v3.873a1.388 1.388 0 0 0-1.381 1.386Z" fill="#AECBFA"/><path d="M20.071 7.032v2.01H10.036V6.638a1.388 1.388 0 0 0 0-2.765V0L20.07 7.032Z" fill="#669DF6"/><path fill="#AECBFA" d="M10.036 19.225v2.01H0v-1.994z"/></g></svg>