<svg width="23" height="24" xmlns="http://www.w3.org/2000/svg"><path d="M20.663 5.916a17.16 17.16 0 0 1-1.186 1.11 9.603 9.603 0 0 1-.633 12.17c-3.088 3.41-8.175 4.257-12.235 2.037h2.105a8.752 8.752 0 0 1-1.057-1.57H4.504a9.669 9.669 0 0 1-1.232-1.427h3.741a15.548 15.548 0 0 1-.487-1.57H2.39a10.3 10.3 0 0 1-.515-1.435H6.25a14.19 14.19 0 0 1-.165-1.571H1.59v-1.417h4.495a14.99 14.99 0 0 1 .092-1.57H1.765c.11-.489.258-.969.441-1.436H6.37c.11-.523.239-1.047.404-1.57h-3.76c.322-.514.691-.998 1.104-1.444h3.208c.247-.546.539-1.071.873-1.57H5.956a9.999 9.999 0 0 1 9.486-.831c.3 1.352.821 2.648 1.544 3.836 0 0 3.677-2.013 4.182-4.143.325-1.52-.62-3.024-2.15-3.419-1.53-.395-3.107.458-3.585 1.939v.063C10.718.412 5.435 1.923 2.379 5.831a11.128 11.128 0 0 0-.304 13.347c2.875 4.038 8.085 5.779 12.871 4.302 4.787-1.477 8.045-5.832 8.051-10.759a10.42 10.42 0 0 0-2.334-6.805Zm-3.677-3.502c.142-.538.6-.939 1.161-1.015a1.406 1.406 0 0 1 1.398.667c.285.48.248 1.082-.096 1.524a1.411 1.411 0 0 1-1.47.494 1.379 1.379 0 0 1-.993-1.67Z" fill="#4285F4" fill-rule="nonzero"/></svg>