<svg width="24" height="24" xmlns="http://www.w3.org/2000/svg"><g fill="none" fill-rule="evenodd"><path d="M5.69 10.594V13.8a5.897 5.897 0 0 0 2.045 2.088v-5.293H5.691Z" fill="#AECBFA"/><path d="M9.455 7.687v9.001c.432.065.868.098 1.305.1a8.585 8.585 0 0 0 1.19-.09V7.695l-2.495-.009Z" fill="#669DF6"/><path d="M13.966 11.837v3.942a5.933 5.933 0 0 0 2.035-2.187v-1.755h-2.035Z" fill="#AECBFA"/><path d="m18.883 17.174-1.702 1.71a.513.513 0 0 0 0 .72l4.25 4.25a.504.504 0 0 0 .711 0l1.711-1.711a.504.504 0 0 0 0-.711l-4.25-4.258a.531.531 0 0 0-.72 0" fill="#4285F4"/><path d="M10.806 0C4.838 0 0 4.836 0 10.801c0 5.966 4.838 10.802 10.806 10.802 5.967 0 10.805-4.836 10.805-10.802C21.611 4.836 16.773 0 10.806 0m0 18.822A8.013 8.013 0 0 1 2.79 10.81a8.013 8.013 0 0 1 8.015-8.01 8.013 8.013 0 0 1 5.669 13.678 8.007 8.007 0 0 1-5.67 2.344" fill="#669DF6"/></g></svg>