<svg width="15" height="24" xmlns="http://www.w3.org/2000/svg"><g fill-rule="nonzero" fill="none"><path d="M10.93 11.538h2.36v.065c0 7.274-4.133 9.859-5.51 10.514v1.846l.287-.092C8.355 23.769 15 21.314 15 11.575V9.73h-4.943l.873 1.81Z" fill="#669DF6"/><path d="m10.057 9.785.837-1.56V0l-1.35 1.07C6.6 3.269 3.565 7.32 3.754 12.075c.048 3.141 1.566 6.067 4.08 7.864l.125.084.9-1.496-.117-.064a7.499 7.499 0 0 1-.99-.868l3.178-1.846v-4.21l-.873-1.753Zm-.837 1.753v3.148L6.663 16.2A8.065 8.065 0 0 1 5.438 12c-.153-4.108 2.557-7.21 3.728-8.308v4.09l-2.017 3.756h2.07" fill="#4285F4"/><path d="M7.78 22.154c-1.144-.554-6.07-3.37-6.07-10.782V9.73H0v1.606c0 9.231 6.717 12.24 7.491 12.563l.288.102" fill="#AECBFA"/></g></svg>