<svg fill="none" height="512" viewBox="0 0 512 512" width="512" xmlns="http://www.w3.org/2000/svg"><g fill="#4285f4"><path clip-rule="evenodd" d="m440 178.107v219.481c0 23.539-18.873 42.412-42.412 42.412h-219.481c-23.326 0-42.412-18.873-42.412-42.412h261.893v-261.893c23.539 0 42.412 19.085 42.412 42.412z" fill-rule="evenodd"/><path clip-rule="evenodd" d="m333.893 72h-219.481c-23.3267 0-42.412 19.0853-42.412 42.412v219.481c0 23.539 19.0853 42.412 42.412 42.412h219.481c23.539 0 42.412-18.873 42.412-42.412v-219.481c0-23.3267-18.873-42.412-42.412-42.412zm0 261.893h-219.481v-219.481h219.481z" fill-rule="evenodd"/><path d="m278.933 180.963c-1.403-7.417-4.409-14.031-8.418-20.044-5.812-8.82-14.03-15.835-23.651-20.044-7.015-3.007-14.631-4.811-22.849-4.811-8.017 0-15.633 1.804-22.648 4.811-9.621 4.209-17.838 11.224-23.651 20.044-6.213 8.819-9.62 19.643-9.62 31.268 0 3.809.401 7.617 1.202 11.225 0 .2 0 .401.201.802.401 1.804.801 3.808 1.403 5.612 1.603 4.81 3.808 9.22 6.614 13.229 2.605 3.808 5.612 7.416 9.22 10.623v70.555l37.279-35.077 37.481 35.077v-70.555c7.215-6.414 12.627-14.632 15.834-23.852.601-1.804 1.002-3.808 1.403-5.612.2-.401.2-.602.2-.802.802-3.608 1.203-7.416 1.203-11.225 0-3.808-.401-7.616-1.203-11.224zm-28.862 11.224c0 14.231-11.625 25.857-26.056 25.857-14.23 0-25.855-11.626-25.855-25.857 0-4.009.802-7.817 2.606-11.224 4.008-8.82 13.028-14.833 23.249-14.833 10.423 0 19.442 6.013 23.451 14.833 1.804 3.407 2.605 7.215 2.605 11.224z"/></g></svg>