<svg width="19" height="24" xmlns="http://www.w3.org/2000/svg"><g fill-rule="nonzero" fill="none"><path d="M9.5 0 0 4.364v6.545C0 16.964 4.053 22.625 9.5 24c5.447-1.374 9.5-7.035 9.5-13.09V4.364L9.5 0Z" fill="#4285F4"/><path d="M18.955 12c-.075.847-.191 1.574-.35 2.182-.238.912-.463 1.6-.701 2.12-.122.268-.206.5-.32.744-.15.32-.33.643-.488.918a14.823 14.823 0 0 1-1.195 1.737 11.286 11.286 0 0 1-1.444 1.568c-.59.518-.697.662-1.346 1.072-.65.41-1.091.747-2.348 1.248-.252.103-.673.24-1.263.411l-3.167-4.364V6H14.085l4.87 6Z" fill="#2879EA"/><path d="M9.5 3.273c2.915 0 5.278 2.442 5.278 5.454 0 1.785-.83 3.37-2.111 4.364v6.545L9.5 16.582l-3.167 3.054v-6.545a5.509 5.509 0 0 1-2.11-4.364c0-3.012 2.362-5.454 5.277-5.454Zm0 8.182c1.457 0 2.639-1.222 2.639-2.728C12.139 7.221 10.957 6 9.5 6 8.043 6 6.861 7.221 6.861 8.727c0 1.506 1.182 2.728 2.639 2.728Z" fill="#FFF"/></g></svg>