<svg width="19" height="24" xmlns="http://www.w3.org/2000/svg"><g fill="none" fill-rule="evenodd"><path d="m9.5 24-.988-.918V5.606h1.977v17.476z" fill="#AECBFA"/><path d="M9.5 7.208c1.749-.005 3.165-1.436 3.17-3.204H6.33c.005 1.768 1.421 3.2 3.17 3.204ZM10.488 20.247H8.512v-1.844h1.976zM10.488 10.646H8.512V8.801h1.976z" fill="#4285F4" fill-rule="nonzero"/><ellipse fill="#AECBFA" fill-rule="nonzero" cx="9.5" cy="3.204" rx="3.17" ry="3.204"/><path d="M15.038 9.809H3.366a1.398 1.398 0 0 0-1.278 1.4c0 .73.556 1.34 1.278 1.398h3.757v1.998H3.366C1.506 14.605 0 13.082 0 11.204c0-1.879 1.507-3.402 3.366-3.402h11.672V6.407L19 8.801l-3.962 2.403V9.809ZM9.5 6.407c.84 0 1.647-.337 2.241-.938.595-.6.929-1.416.929-2.265H6.33c0 .85.334 1.664.929 2.265.594.6 1.4.938 2.241.938Z" fill="#669DF6" fill-rule="nonzero"/><path d="M11.12 17.404h.775c.365-.003.714-.152.97-.416.256-.263.397-.619.392-.988a1.396 1.396 0 0 0-1.38-1.395h-1.389v-1.998h1.39c1.788.094 3.192 1.587 3.192 3.397 0 1.811-1.404 3.304-3.193 3.398H7.123v1.403L3.17 18.403 7.123 16v1.404h3.997Z" fill="#669DF6" fill-rule="nonzero"/></g></svg>