<svg width="20" height="24" xmlns="http://www.w3.org/2000/svg"><g fill="none" fill-rule="evenodd"><path d="M9.148 18.068H7.481v1.683h1.667v.756h1.74v-8.29c1.89-.436 3.233-2.09 3.253-4.007 0-2.16-1.696-3.95-3.878-4.094C8.082 3.972 6.16 5.523 5.87 7.664c-.292 2.14 1.146 4.139 3.288 4.57v2.548H6.651v1.72h2.497v1.566ZM9.978 0 20 4.105v6.752C20 16.942 15.7 22.623 9.977 24 4.255 22.623 0 16.942 0 10.857V4.105L9.977 0Zm0 5.95c1.006 0 1.895.652 2.187 1.605a2.246 2.246 0 0 1-.918 2.534 2.31 2.31 0 0 1-2.721-.132 2.242 2.242 0 0 1-.663-2.611A2.287 2.287 0 0 1 9.977 5.95Z" fill="#669DF6"/><path d="M9.977 20.507h.911v-8.29c1.89-.436 3.233-2.09 3.253-4.007a4.08 4.08 0 0 0-1.22-2.906 4.18 4.18 0 0 0-2.944-1.199V0L20 4.105v6.752C20 16.942 15.7 22.623 9.977 24v-3.493Zm0-14.557a2.281 2.281 0 0 1 2.279 1.802 2.254 2.254 0 0 1-1.368 2.547 1.454 1.454 0 0 1-.91.18V5.95Z" fill="#4285F4"/></g></svg>