<svg width="24" height="24" xmlns="http://www.w3.org/2000/svg"><g fill="none" fill-rule="evenodd"><path d="M0 0h24v24H0z"/><g fill-rule="nonzero"><path d="M22.5 20.25h-21a1.5 1.5 0 0 1-1.5-1.5V5.25a1.5 1.5 0 0 1 1.5-1.5h21a1.5 1.5 0 0 1 1.5 1.5v13.5a1.5 1.5 0 0 1-1.5 1.5Z" fill="#85A4E6"/><path d="M22.5 20.25H12V3.75h10.5a1.5 1.5 0 0 1 1.5 1.5v13.5a1.5 1.5 0 0 1-1.5 1.5Z" fill="#5C85DE"/><path fill="#5C85DE" d="M0 6h24v3H0z"/><path fill="#3367D6" d="M12 6h12v3H12z"/><path fill="#FFF" d="M2.25 10.5h19.5v2.25H2.25z"/><path fill="#5C85DE" d="M2.25 15h4.5v3h-4.5z"/><path fill="#FFF" d="M13.5 15.75H15v1.5h-1.5zM16.5 15.75H18v1.5h-1.5zM19.5 15.75H21v1.5h-1.5z"/></g></g></svg>