<svg width="24" height="24" xmlns="http://www.w3.org/2000/svg"><g fill="none" fill-rule="evenodd"><path d="M0 0h24v24H0z"/><g fill-rule="nonzero"><path fill="#669DF6" d="M18 12h2.003v3.998H18zM11.002 12h2.002v3.998h-2.002zM3.998 12h2.001v3.998H3.998z"/><path fill="#4285F4" d="M12.997 11.002h-1.995V6.997h1.995z"/><path fill="#669DF6" d="M3.998 11.002h15.997v2.002H3.998z"/><path fill="#AECBFA" d="M6 2.002h12v5.004H6z"/><path fill="#669DF6" d="M12 2.002h6v5.004h-6z"/><path fill="#AECBFA" d="M15.997 15.997h6v6h-6zM2.002 15.997h6v6h-6z"/><path fill="#669DF6" d="M5.002 15.997h3v6h-3z"/><path fill="#AECBFA" d="M9 15.997h6v6H9z"/><path fill="#669DF6" d="M12 15.997h3v6h-3zM18.998 15.997h3v6h-3z"/></g></g></svg>