<svg width="24" height="16" xmlns="http://www.w3.org/2000/svg"><g fill-rule="nonzero" fill="none"><path fill="#669DF6" d="M10.587 12.528h2.79v3.11h-2.79z"/><path d="M19.73 10.213a.687.687 0 0 1-.476-.203l-4.89-4.992-3.284 3.41a.68.68 0 0 1-.897.054l-2.485-1.97L5.06 9.947a.658.658 0 0 1-.53.265H.046v2.014a.89.89 0 0 0 .897.884h22.16a.89.89 0 0 0 .898-.884v-2.014h-4.27Z" fill="#4285F4"/><path d="m4.199 8.888 2.844-3.71c.11-.141.27-.233.449-.257a.726.726 0 0 1 .502.141l2.54 2.059 3.346-3.534a.65.65 0 0 1 .475-.203.66.66 0 0 1 .485.203l5.212 5.3h3.921V.884A.89.89 0 0 0 23.076 0H.897A.89.89 0 0 0 0 .883v8.005h4.199Z" fill="#669DF6"/><rect fill="#4285F4" x="7.994" y="15.284" width="7.976" height="1" rx=".269"/></g></svg>