<svg width="22" height="24" xmlns="http://www.w3.org/2000/svg"><g fill-rule="nonzero" fill="none"><path fill="#669DF6" d="M14.36 11.136h5.121v1.647H14.36z"/><path fill="#669DF6" d="M18.295 4.942h1.682v14.053h-1.682z"/><rect fill="#4285F4" x="16.272" y="18.392" width="5.728" height="5.608" rx=".333"/><rect fill="#4285F4" x="16.272" width="5.728" height="5.608" rx=".333"/><path fill="#669DF6" d="M4.854 11.136h5.249v1.647H4.854z"/><rect fill="#4285F4" y="9.155" width="5.728" height="5.608" rx=".333"/><path d="M12.172 14.61a2.704 2.704 0 0 1-2.507-1.635 2.607 2.607 0 0 1 .597-2.892 2.745 2.745 0 0 1 2.959-.555A2.645 2.645 0 0 1 14.866 12c-.02 1.444-1.219 2.606-2.694 2.61Zm0-4.293c-.932-.005-1.692.729-1.7 1.641-.009.913.738 1.66 1.67 1.671.932.012 1.697-.717 1.713-1.629a1.63 1.63 0 0 0-.48-1.188 1.7 1.7 0 0 0-1.203-.495Z" fill="#4285F4"/></g></svg>