<svg width="24" height="22" xmlns="http://www.w3.org/2000/svg"><g fill="none" fill-rule="evenodd"><path fill="#669DF6" d="M13.591 11.903V6.72h-3.218v5.183l-4.521 2.6 1.609 2.761 4.521-2.591 4.521 2.591 1.609-2.761z"/><path fill="#4285F4" d="M13.591 11.903V6.72h-1.609v6.085l-5.321 3.074.8 1.385 4.521-2.591 4.521 2.591 1.609-2.761z"/><path fill="#AECBFA" d="M10.364 0 7.937 1.457v4.45l4.045 2.171V4.379l-1.618-.742z"/><path fill="#669DF6" d="m13.6 3.637-1.618.742v3.699l4.045-2.171v-4.45L13.6 0zM19.344 17.058l-.099 1.654 3.227 1.849L19.865 22l-3.874-2.225.126-4.575 3.955-2.413 3.874 2.225.054 2.967-3.227-1.859zM4.62 17.058l-1.393-.893L0 17.997l.054-2.967 3.838-2.243L7.847 15.2l.126 4.575L4.099 22l-2.607-1.439 3.227-1.849z"/><path fill="#AECBFA" d="m23.964 17.997-.054-2.967-3.874-2.225-3.919 2.395 3.227 1.858 1.393-.92zM0 17.997l3.227-1.859 1.393.92L7.847 15.2l-3.919-2.395L.054 15.03z"/></g></svg>