<?xml version="1.0" encoding="UTF-8" standalone="no"?>
<svg
   viewBox="0 0 512 512"
   version="1.1"
   id="svg527"
   sodipodi:docname="cloud-workstations.svg"
   inkscape:version="1.2.1 (9c6d41e410, 2022-07-14)"
   xmlns:inkscape="http://www.inkscape.org/namespaces/inkscape"
   xmlns:sodipodi="http://sodipodi.sourceforge.net/DTD/sodipodi-0.dtd"
   xmlns="http://www.w3.org/2000/svg"
   xmlns:svg="http://www.w3.org/2000/svg">
  <defs
     id="defs531" />
  <sodipodi:namedview
     id="namedview529"
     pagecolor="#ffffff"
     bordercolor="#666666"
     borderopacity="1.0"
     inkscape:showpageshadow="2"
     inkscape:pageopacity="0.0"
     inkscape:pagecheckerboard="0"
     inkscape:deskcolor="#d1d1d1"
     showgrid="false"
     inkscape:zoom="2.40625"
     inkscape:cx="256"
     inkscape:cy="256"
     inkscape:window-width="1694"
     inkscape:window-height="1483"
     inkscape:window-x="0"
     inkscape:window-y="0"
     inkscape:window-maximized="1"
     inkscape:current-layer="svg527" />
  <polygon
     points="389.423,318.156 306.141,401.417 276.729,372.005 330.577,318.156 276.729,264.308 306.141,234.895 "
     fill="#4285f4"
     id="polygon513"
     transform="translate(-46,-46)" />
  <polygon
     points="235.271,372.005 205.859,401.417 122.577,318.156 205.859,234.895 235.271,264.308 181.423,318.156 "
     fill="#4285f4"
     id="polygon515"
     transform="translate(-46,-46)" />
  <circle
     cx="334.04501"
     cy="85.175987"
     r="20.799999"
     fill="#669df6"
     id="circle517" />
  <rect
     x="30.925003"
     y="126.8"
     width="353.509"
     height="41.599998"
     fill="#aecbfa"
     id="rect519" />
  <path
     d="M 355.6,418 H 210 v -41.6 h 145.6 a 20.821,20.821 0 0 0 20.8,-20.8 V 168.4 H 418 V 355.6 A 62.469,62.469 0 0 1 355.6,418 Z"
     fill="#4285f4"
     id="path521" />
  <path
     d="M 210,418 H 64.4 A 62.469,62.469 0 0 1 2,355.6 V 168.4 h 41.6 v 187.2 a 20.821,20.821 0 0 0 20.8,20.8 H 210 Z"
     fill="#669df6"
     id="path523" />
  <path
     d="M 418,168.4 H 376.4 V 64.4 A 20.821,20.821 0 0 0 355.6,43.6 H 64.4 A 20.821,20.821 0 0 0 43.6,64.4 v 104 H 2 V 64.4 A 62.469,62.469 0 0 1 64.4,2 H 355.6 A 62.469,62.469 0 0 1 418,64.4 Z"
     fill="#aecbfa"
     id="path525" />
</svg>
