<svg width="24" height="23" xmlns="http://www.w3.org/2000/svg"><g fill="none" fill-rule="evenodd"><path fill="#4285F4" fill-rule="nonzero" d="M9.596 16.953h4.798v4.84H9.596z"/><path fill="#669DF6" d="M20.399 9.489 15.196 4.25 13.98 5.475l6.419 6.456z"/><path fill="#4285F4" d="M16.402 7.909 13.98 5.475l1.216-1.225 1.206 1.225z"/><path fill="#AECBFA" d="M10.731 11.187 9.506 9.961l5.681-5.711 1.215 1.225z"/><path fill="#669DF6" d="m10.731 11.187-3.43-3.451L8.516 6.52l3.421 3.441z"/><path fill="#4285F4" d="M9.695 10.152 7.301 7.736 8.516 6.52l1.179 1.171z"/><path fill="#AECBFA" d="m4.123 13.302 5.572-5.611L8.48 6.474l-4.879 4.912v1.916z"/><path d="M24 1.271A1.493 1.493 0 0 0 22.803 0H1.197A1.493 1.493 0 0 0 0 1.271v15.682a1.42 1.42 0 0 0 1.197 1.207h21.606A1.42 1.42 0 0 0 24 16.953V1.27Zm-2.395 14.465H2.395V2.424h19.21v13.312ZM7.202 23c0-.835.369-1.208 1.197-1.208h7.202c.828 0 1.197.373 1.197 1.208H7.202Z" fill="#669DF6"/></g></svg>