<svg width="24" height="24" xmlns="http://www.w3.org/2000/svg"><g fill-rule="nonzero" fill="none"><path fill="#669DF6" d="M0 16.273 3.601 19.2V4.791L0 7.709z"/><path fill="#4285F4" d="m0 9.591 3.601-2.395V4.791zM3.601 19.2v-2.404L0 14.4z"/><path fill="#AECBFA" d="M7.202 21.605 0 14.4v4.8L4.798 24zM4.789 0 0 4.791v4.8l7.184-7.186z"/><path fill="#669DF6" d="m24 7.727-3.6-2.918v14.409L24 16.3z"/><path fill="#4285F4" d="m24 14.409-3.6 2.405v2.404zM20.4 4.809v2.396L24 9.609z"/><path fill="#AECBFA" d="M16.798 2.405 24 9.609v-4.8L19.202 0zM19.22 24 24 19.218l-.009-4.809-7.175 7.186z"/><ellipse fill="#AECBFA" cx="7.202" cy="11.995" rx="1.197" ry="1.198"/><ellipse fill="#AECBFA" cx="12" cy="11.995" rx="1.197" ry="1.198"/><ellipse fill="#AECBFA" cx="16.789" cy="11.995" rx="1.197" ry="1.198"/></g></svg>