<svg width="24" height="24" xmlns="http://www.w3.org/2000/svg"><g fill-rule="nonzero" fill="none"><g transform="translate(3.557 3.466)" fill="#4285F4"><path d="M1.083 5.37a.507.507 0 0 1-.062-1.004l3.067-.418a.52.52 0 0 1 .133 1.03l-3.067.419-.07-.027ZM4.844 4.917l.309-.946 5.526 1.803-.309.946z"/><path d="M4.683 4.748h-.142a.498.498 0 0 1-.329-.614L5.323.34a.516.516 0 0 1 .622-.32.498.498 0 0 1 .338.604l-1.11 3.743a.507.507 0 0 1-.49.382ZM11.519 6.606a.516.516 0 0 1-.418-.214.533.533 0 0 1-.053-.462l2.24-5.653a.498.498 0 0 1 .924.364L12 6.294a.48.48 0 0 1-.48.312ZM0 14.674l5.244-4.188.621.777-5.244 4.188z"/><path d="m11.261 6.819.4-.916 4.844 2.107-.4.916zM11.101 11.992l.684-.729 4.312 4.054-.694.729zM4.16 4.685l.975-.198 1.076 5.296-.975.198z"/><path d="m5.732 10.668 5.458-4.8.667.746-5.467 4.809z"/><path d="m10.772 11.503.329-5.297.996.062-.329 5.298z"/><circle cx="5.794" cy="10.961" r="1.813"/><circle cx="11.599" cy="6.348" r="2.151"/><circle cx="11.581" cy="11.921" r="1.129"/><circle cx="4.505" cy="4.09" r="1.324"/></g><path fill="#669DF6" d="M13.333 0h-2.666v5.333h2.666V0zM18.667 0H16v5.333h2.667V0zM8 0H5.333v5.333H8V0zM13.333 18.667h-2.666V24h2.666v-5.333zM18.667 18.667H16V24h2.667v-5.333zM8 18.667H5.333V24H8v-5.333zM5.333 10.667H0v2.666h5.333v-2.666zM5.333 5.333H0V8h5.333V5.333zM5.333 16H0v2.667h5.333V16zM24 10.667h-5.333v2.666H24v-2.666zM24 5.333h-5.333V8H24V5.333zM24 16h-5.333v2.667H24V16z"/><path d="M20 2.667H4c-.736 0-1.333.597-1.333 1.333v16c0 .736.597 1.333 1.333 1.333h16c.736 0 1.333-.597 1.333-1.333V4c0-.736-.597-1.333-1.333-1.333Zm-1.333 15.289a.711.711 0 0 1-.711.71H6.044a.711.711 0 0 1-.71-.71V6.044c0-.392.318-.71.71-.71h11.912c.392 0 .71.318.71.71v11.912Z" fill="#669DF6"/></g></svg>