<svg width="24" height="22" xmlns="http://www.w3.org/2000/svg"><g fill-rule="nonzero" fill="none"><path d="M21.84 0H2.16A2.172 2.172 0 0 0 .63.62c-.405.397-.632.938-.63 1.501V14.85a2.095 2.095 0 0 0 .63 1.502c.406.399.957.622 1.53.62H9.6v2.67H7.2V22h9.6v-2.357h-2.4V16.97h7.44a2.172 2.172 0 0 0 1.53-.619c.405-.398.632-.939.63-1.502V2.121A2.095 2.095 0 0 0 23.37.62 2.172 2.172 0 0 0 21.84 0ZM17.6 14.143h-4.8v-2.357h4.8v2.357Zm0-5.343L6.72 13.279v-2.2l7.84-3.3L6.72 4.4V2.2L17.6 6.6v2.2Z" fill="#AECBFA"/><path fill="#4285F4" d="M9.6 16.971h4.8v2.672H9.6z"/><path fill="#669DF6" d="M7.2 19.643h9.6V22H7.2z"/></g></svg>