<svg width="24" height="24" xmlns="http://www.w3.org/2000/svg"><g fill="#4285F4" fill-rule="nonzero"><path d="M15.997 0v2.854h-2.602V0h-2.8v2.854H8.004V0H5.14v2.854A2.458 2.458 0 0 0 2.854 5.14H0v2.863h2.854v2.566H0v2.862h2.854v2.566H0v2.863h2.854a2.458 2.458 0 0 0 2.286 2.286V24h2.863v-2.854h2.593V24h2.8v-2.854h2.601V24h2.863v-2.854a2.458 2.458 0 0 0 2.286-2.286H24v-2.863h-2.854v-2.566H24V10.57h-2.854V8.003H24V5.14h-2.854a2.458 2.458 0 0 0-2.286-2.286V0h-2.863Zm1.8 18.284H6.095a.45.45 0 0 1-.45-.45V6.13a.45.45 0 0 1 .45-.45h11.702a.45.45 0 0 1 .45.45v11.702a.45.45 0 0 1-.414.469l-.036-.018Z"/><path d="M12.99 6.644v4.294h2.359l-4.204 5.833v-4.348H8.669z"/></g></svg>