<svg width="24" height="24" xmlns="http://www.w3.org/2000/svg"><g fill="none" fill-rule="evenodd"><path d="M0 0h24v24H0z"/><path fill="#669DF6" d="M11.996 0v2.889l3.752 3.86V3.852zM20.994 11.996l-3.752 3.752h3.005l3.744-3.752zM2.997 11.996l3.752 3.752H3.744L0 11.996zM11.996 23.991v-2.889l3.752-3.86v2.897z"/><path fill="#AECBFA" d="M11.996 0 8.243 3.852v2.897l3.753-3.86zM20.247 8.243h-3.005l3.752 3.753h2.997zM3.744 8.243h3.005l-3.752 3.753H0zM11.996 23.991l-3.753-3.852v-2.897l3.753 3.86zM15.748 15.748H8.243V8.243h7.505z"/><path fill="#669DF6" d="M15.748 8.243v7.505H8.243z"/><path fill="#4285F4" d="M15.748 8.243v7.505l-3.752-3.752z"/></g></svg>