<svg width="24" height="24" xmlns="http://www.w3.org/2000/svg"><g fill-rule="nonzero" fill="none"><path d="M15.952 11c0 .334.045.658.045 1 0 .342 0 .666-.045 1h5.401v-2h-5.401ZM9.434 4.672H5.995v1.999h4.727a12.162 12.162 0 0 0-1.288-1.999ZM10.73 17.33H6.726v1.998h2.7c.505-.618.943-1.288 1.306-1.999ZM12 12c0-.342 0-.675-.045-1H2.998v2H12v-1Z" fill="#4285F4"/><path d="M1.998 12.576a.576.576 0 1 1 0-1.152.576.576 0 0 1 0 1.152Zm0-2.575A1.999 1.999 0 1 0 3.997 12a1.99 1.99 0 0 0-1.999-1.999ZM4.996 18.905a.576.576 0 0 1-.567-.603c0-.314.254-.568.567-.568.315 0 .571.253.576.568a.576.576 0 0 1-.576.603Zm0-2.575a1.998 1.998 0 1 0 1.999 1.972 2.008 2.008 0 0 0-1.999-1.972ZM4.996 6.239a.567.567 0 0 1-.567-.54c0-.315.253-.572.567-.577.318 0 .576.258.576.576a.576.576 0 0 1-.576.54Zm0-2.566a1.999 1.999 0 1 0 0 3.997 1.999 1.999 0 0 0 0-3.997Z" fill="#669DF6"/><path fill="#4285F4" d="M20.003 14.998V9.002L24 12zM9.002 24l-1.044-1.8A12.9 12.9 0 0 0 12.999 12 13.071 13.071 0 0 0 7.958 1.8L8.993 0a15.007 15.007 0 0 1 6.005 12 14.98 14.98 0 0 1-5.996 12Z"/></g></svg>