<svg width="22" height="24" xmlns="http://www.w3.org/2000/svg"><g fill="none" fill-rule="evenodd"><path d="m16.166 5.321-5.168-3.018A3.396 3.396 0 0 1 9.437.275c0-.045.193-.378.46-.243l6.425 3.73c.772.451.294 2.38.294 2.38a.897.897 0 0 0-.45-.82Z" fill="#669DF6"/><path d="M17.718 12.818a.439.439 0 0 1-.193.397l-1.294.82V4.483c0-.324.21-.675-.065-.838l1.13.811c.27.17.43.468.422.784v7.578Z" fill="#AECBFA"/><path d="M10.998 13.909a.503.503 0 0 1-.248-.064l-4.232-2.487v1.082l4.48 2.63.358-.684s-.276-.477-.358-.477ZM11.246 16.08a.523.523 0 0 1-.496 0l-4.232-2.487v.802c-.002.17.09.328.238.415l4.003 2.351c.146.09.331.09.477 0a2.29 2.29 0 0 0 .248-.621l-.238-.46Z" fill="#669DF6"/><path d="m10.998 12.89 4.48-2.63v-.523a.476.476 0 0 0-.239-.415L11.236 6.97a.495.495 0 0 0-.477 0L6.756 9.286a.476.476 0 0 0-.238.415v.504l4.48 2.685Z" fill="#AECBFA"/><path d="M10.998 11.782 6.756 9.286a.476.476 0 0 0-.238.415v.504l4.48 2.685.34-.675-.34-.433Z" fill="#669DF6"/><path d="M10.998 13.909v1.162l4.48-2.631v-1.082l-4.232 2.487a.876.876 0 0 1-.248.064ZM11.246 16.08a.503.503 0 0 1-.248.063c0 .343-.046 1.081 0 1.081a.466.466 0 0 0 .266-.063l4.003-2.351a.476.476 0 0 0 .238-.415v-.802l-4.232 2.487h-.027ZM15.24 9.286l-4.242 2.496v1.108l4.48-2.63v-.523a.476.476 0 0 0-.239-.415v-.036Z" fill="#4285F4"/><path d="m5.83 18.63 5.085 2.956a3.328 3.328 0 0 1 1.57 2.171.215.215 0 0 1-.102.21.224.224 0 0 1-.238-.003c-.165-.08-4.59-2.649-6.683-3.865-.652-.379-.083-2.253-.083-2.253a.898.898 0 0 0 .45.784Z" fill="#669DF6"/><path d="M4.278 18.873v-7.875a.467.467 0 0 1 .23-.396l1.266-.712v9.497c0 .324 0 .829.257.991l-1.304-.775a.899.899 0 0 1-.45-.73Z" fill="#AECBFA"/><path d="M8.748 4.132a.933.933 0 0 0-.918 0L2.735 7.123a3.293 3.293 0 0 1-2.589.36A.27.27 0 0 1 0 7.246c0-.1.056-.192.146-.239l7.73-4.505c.285-.162.918 1.676.918 1.676l-.046-.045Z" fill="#669DF6"/><path d="m8.74 2.483 6.508 3.775a.432.432 0 0 1 .239.37v1.415l-8.161-4.75a.933.933 0 0 0-.919 0l1.442-.837a.933.933 0 0 1 .918 0l-.028.027Z" fill="#AECBFA"/><path d="M13.229 19.793a.933.933 0 0 0 .918 0l5.113-2.983a3.285 3.285 0 0 1 2.59-.315c.091.04.15.13.15.23a.252.252 0 0 1-.15.23l-7.75 4.504c-.284.163-.917-1.676-.917-1.676l.046.01Z" fill="#669DF6"/><path d="M6.72 17.693a.725.725 0 0 1-.202-.387V15.9l8.152 4.73a.933.933 0 0 0 .918 0l-1.441.838a.933.933 0 0 1-.918 0l-6.51-3.775Z" fill="#AECBFA"/><path d="M3.975 9.35a.898.898 0 0 0-.45.792v5.983c-.001.92-.386 1.8-1.065 2.433a.223.223 0 0 1-.24.047.216.216 0 0 1-.137-.2V9.286c0-.324 1.892.045 1.892.045v.018Z" fill="#669DF6"/><path d="M8.244 5.411a.42.42 0 0 1 .431 0l1.221.703-7.436 4.307a.898.898 0 0 0-.45.793V9.511a.899.899 0 0 1 .468-.775l5.766-3.325Z" fill="#AECBFA"/><path d="M18.544 13.72V7.762a3.357 3.357 0 0 1 1.028-2.406s.413-.126.386.253c-.028.378 0 8.857 0 8.857-.386.442-1.974 0-1.974 0a.975.975 0 0 0 .56-.748Z" fill="#669DF6"/><path d="m19.536 15.125-5.784 3.424a.41.41 0 0 1-.45 0l-1.212-.685 7.455-4.415a.898.898 0 0 0 .459-.784v1.676c-.01.351-.468.784-.468.784Z" fill="#AECBFA"/></g></svg>