<svg width="21" height="24" xmlns="http://www.w3.org/2000/svg"><g fill="none" fill-rule="evenodd"><path d="M0 5.941 10.505 0 21 5.941v11.703l-4.044-3.195H4.044L0 17.599V5.941Zm15.348 2.062c0-2.65-2.169-4.798-4.843-4.798-2.675 0-4.844 2.148-4.844 4.798s2.169 4.798 4.844 4.798c2.674 0 4.843-2.148 4.843-4.798Zm-1.608 0c0 1.77-1.449 3.205-3.235 3.205-1.787 0-3.235-1.435-3.235-3.205s1.448-3.205 3.235-3.205c1.786 0 3.235 1.435 3.235 3.205Z" fill="#669DF6"/><path d="M10.505 12.801c2.595-.111 4.642-2.228 4.642-4.803 0-2.574-2.047-4.69-4.642-4.802V0L21 5.941v11.703l-4.044-3.204h-6.451V12.8Zm3.225-4.816c-.005 1.761-1.447 3.187-3.225 3.187V4.798a3.232 3.232 0 0 1 2.28.93c.605.598.945 1.41.945 2.257Z" fill="#4285F4"/><path fill="#669DF6" d="M.809 19.202 10.505 24l9.695-4.798-4.043-3.205H4.852z"/><path fill="#4285F4" d="m10.505 24 9.695-4.798-4.043-3.205h-5.652z"/></g></svg>