<svg width="24" height="24" xmlns="http://www.w3.org/2000/svg"><g fill="none" fill-rule="evenodd"><path d="M12.75 12.75a1.08 1.08 0 0 1-1.5 0l-1.5-1.5.75-.75 1.5 1.432 4.207-4.2.81.75-4.267 4.268Z" fill="#4285F4" fill-rule="nonzero"/><path d="M15.975 11.588a.908.908 0 0 0-.81.817 3.21 3.21 0 1 1-3.502-3.592c.406-.038.817.005 1.207.127a.908.908 0 0 0 .982-.285.915.915 0 0 0-.412-1.447 4.793 4.793 0 0 0-1.973-.196 5.01 5.01 0 1 0 5.49 5.633.922.922 0 0 0-.997-1.05l.015-.008Z" fill="#669DF6" fill-rule="nonzero"/><path d="M12 18a2.003 2.003 0 1 1 0 4.005A2.003 2.003 0 0 1 12 18M12 2.002a2.002 2.002 0 1 1 0 4.005 2.002 2.002 0 0 1 0-4.005" fill="#AECBFA" fill-rule="nonzero"/><path d="M0 0h24v24H0z"/><path d="M18 20.01a1.005 1.005 0 0 1-.75-1.703l2.692-2.714V8.415L17.31 5.7a1.008 1.008 0 0 1 1.44-1.41l3 3c.182.19.284.442.285.705v8.003a.99.99 0 0 1-.285.705l-3 3a.997.997 0 0 1-.75.307Z" fill="#4285F4" fill-rule="nonzero"/><path d="M6 20.01a.975.975 0 0 1-.75-.3l-3-3a1.028 1.028 0 0 1-.285-.705V8.003a.99.99 0 0 1 .292-.705l3-3A1.005 1.005 0 0 1 6.697 5.7l-2.7 2.715v7.17l2.693 2.723A.997.997 0 0 1 6 20.01Z" fill="#669DF6" fill-rule="nonzero"/></g></svg>