<svg width="24" height="24" xmlns="http://www.w3.org/2000/svg"><g fill="none" fill-rule="evenodd"><path d="M20 20.987a.993.993 0 0 1-.72-.32l-2-2a1 1 0 1 1 1.433-1.334l2 2c.324.393.304.965-.046 1.334a1.02 1.02 0 0 1-.667.32ZM4 21.02a1 1 0 0 1-.713-1.687l2-2a.993.993 0 0 1 1.413 0 1.007 1.007 0 0 1 0 1.414l-2 2a.993.993 0 0 1-.7.273Z" fill="#669DF6" fill-rule="nonzero"/><path d="m5.473 17.127-1.22 1.22c.426.514.902.985 1.42 1.406l1.214-1.213-1.414-1.413ZM19.727 18.313l-1.014-.98a.827.827 0 0 0-.233-.153l-1.333 1.333c.037.086.089.165.153.234l1.013 1.013c.519-.434.992-.918 1.414-1.447Z" fill="#4285F4" fill-rule="nonzero"/><path d="M0 0h24v24H0z"/><g fill-rule="nonzero"><path d="M12 21a9 9 0 1 1-.053-18A9 9 0 0 1 12 21Zm0-2a7 7 0 1 0-.054-14A7 7 0 0 0 12 19Z" fill="#669DF6"/><path d="M12 17.013a5.013 5.013 0 1 0 0-10V12l-4.08 2.907A5.007 5.007 0 0 0 12 17.013Z" fill="#4285F4"/></g><path d="M4 6.067a1.007 1.007 0 0 1-1.002-1c0-.266.106-.52.295-.707l2-2a1 1 0 0 1 1.414 1.413l-2 2A1.007 1.007 0 0 1 4 6.067ZM20 6.067a.993.993 0 0 1-.667-.294l-2-2a.993.993 0 0 1 0-1.413 1.007 1.007 0 0 1 1.414 0l2 2a1.007 1.007 0 0 1 0 1.413 1.02 1.02 0 0 1-.747.294Z" fill="#AECBFA" fill-rule="nonzero"/></g></svg>