<svg width="24" height="18" xmlns="http://www.w3.org/2000/svg"><g fill-rule="nonzero" fill="none"><path d="M15.429 1.027a6.499 6.499 0 0 0-8.47 1.28 6.508 6.508 0 0 0-1.603 4.4 6.686 6.686 0 0 0 2.89 5.486l-.208.338-.675.192c-1.07 1.903-1.458 2.433-2.466 4.244L6.697 18c1.026-1.829 1.413-2.36 2.476-4.243l-.207-.741.18-.31c3.14 1.44 6.842.18 8.494-2.892 1.652-3.071.696-6.917-2.193-8.823l-.018.036ZM13.124 11.15c-2.427.669-4.929-.789-5.587-3.255-.658-2.466.776-5.007 3.204-5.677 2.427-.669 4.929.788 5.588 3.254a4.692 4.692 0 0 1-.444 3.514 4.566 4.566 0 0 1-2.76 2.164Z" fill="#4285F4"/><path d="m.063 5.097.144-1.308h1.422v.43H.621l-.063.548a.8.8 0 0 1 .378-.091.67.67 0 0 1 .567.229.85.85 0 0 1 .207.63.862.862 0 0 1-.099.449.817.817 0 0 1-.297.31c-.142.073-.3.11-.459.11a.961.961 0 0 1-.423-.128A.721.721 0 0 1 0 5.618h.495a.415.415 0 0 0 .108.256c.07.06.16.093.252.091a.331.331 0 0 0 .261-.128.546.546 0 0 0 .09-.356.48.48 0 0 0-.099-.33.384.384 0 0 0-.306-.118.41.41 0 0 0-.288.091L.46 5.17l-.396-.073Z" fill="#669DF6"/><path fill="#AECBFA" d="M4.141 6.368h-.504V4.392l-.594.192v-.411l1.044-.384h.054zM1.197 9.824H.702V7.858l-.594.192v-.42l1.089-.384z"/><path d="M4.627 8.764c.02.288-.056.575-.216.814a.89.89 0 0 1-1.233.045 1.258 1.258 0 0 1-.225-.795v-.476c-.02-.29.056-.58.216-.823a.89.89 0 0 1 1.233 0c.163.231.242.512.225.796v.439Zm-.504-.522a1.02 1.02 0 0 0-.081-.466.287.287 0 0 0-.27-.146.278.278 0 0 0-.261.137.825.825 0 0 0-.09.439v.622c-.01.16.017.32.08.466.053.101.159.162.27.156.111.01.217-.048.27-.147a.927.927 0 0 0 .082-.448v-.613Z" fill="#669DF6"/><path fill="#AECBFA" d="M20.56 6.276h-.459V4.292l-.594.192v-.421l1.044-.384h.054z"/><path d="m22.351 4.996.144-1.308h1.422v.42H22.91l-.063.559a.782.782 0 0 1 .378-.1.723.723 0 0 1 .567.228c.147.179.221.408.207.64 0 .155-.034.308-.099.448a.818.818 0 0 1-.756.412.888.888 0 0 1-.423-.092.74.74 0 0 1-.315-.265.768.768 0 0 1-.117-.393h.513a.406.406 0 0 0 .108.256c.071.058.161.087.252.082.102.008.2-.036.261-.119a.62.62 0 0 0 .09-.356.48.48 0 0 0-.108-.339.357.357 0 0 0-.297-.11.41.41 0 0 0-.288.092l-.054.046-.414-.101ZM21.046 8.764c.02.288-.056.575-.216.814a.89.89 0 0 1-1.233.045 1.258 1.258 0 0 1-.225-.795v-.476a1.277 1.277 0 0 1 .216-.823.89.89 0 0 1 1.233 0c.163.231.242.512.225.796v.439Zm-.504-.522a1.02 1.02 0 0 0-.081-.466.287.287 0 0 0-.27-.146.278.278 0 0 0-.261.137.825.825 0 0 0-.09.439v.622c-.01.16.017.32.08.466.053.101.159.162.27.156.111.01.217-.048.27-.147a.927.927 0 0 0 .082-.448v-.613Z" fill="#669DF6"/><path d="m22.351 8.562.144-1.307h1.422v.42H22.91l-.063.558a.782.782 0 0 1 .378-.1.723.723 0 0 1 .567.228c.147.18.221.408.207.64 0 .155-.034.308-.099.449a.818.818 0 0 1-.756.412.95.95 0 0 1-.423-.092.813.813 0 0 1-.315-.266.768.768 0 0 1-.117-.393h.513a.368.368 0 0 0 .108.247.33.33 0 0 0 .252.092c.102.008.2-.037.261-.12a.62.62 0 0 0 .09-.356.462.462 0 0 0-.108-.338.393.393 0 0 0-.297-.12.463.463 0 0 0-.288.101h-.054l-.414-.055Z" fill="#AECBFA"/><path d="M9.299 9.148V8.005a1.01 1.01 0 0 1 .405-.75 3.017 3.017 0 0 1 .999-.53 3.4 3.4 0 0 1 2.907.338c.116.072.224.154.325.247.26.226.395.568.36.914v.915l-4.996.009ZM11.774 5.974a1.309 1.309 0 0 1-1.188-1.312c0-.685.516-1.255 1.188-1.312.342-.003.671.134.913.38s.377.58.374.928c.003.348-.132.683-.373.93-.242.247-.57.386-.914.386Z" fill="#669DF6"/></g></svg>