<svg width="24" height="22" xmlns="http://www.w3.org/2000/svg"><g fill-rule="nonzero" fill="none"><path d="M21.839 0H2.16A2.163 2.163 0 0 0 .615.628a2.082 2.082 0 0 0-.614 1.528v12.723a2.092 2.092 0 0 0 .63 1.502c.405.398.956.62 1.53.618h7.436v2.65H7.202V22h9.596v-2.368h-2.395v-2.65h7.436a2.172 2.172 0 0 0 1.53-.619c.406-.398.633-.939.63-1.502V2.156a2.082 2.082 0 0 0-.614-1.528A2.163 2.163 0 0 0 21.839 0Zm-4.24 14.137h-4.798v-2.36H17.6v2.36Zm0-5.302L6.716 13.271v-2.2l7.84-3.296-7.84-3.384V2.156l10.883 4.418v2.261Z" fill="#AECBFA"/><path fill="#4285F4" d="M9.597 16.964h4.806v2.668H9.597z"/><path fill="#669DF6" d="M7.202 19.632h9.605v2.359H7.202z"/></g></svg>