<svg width="24" height="22" xmlns="http://www.w3.org/2000/svg"><g fill="none" fill-rule="evenodd"><path d="M19.094 8.8h-2.188L12 22h2.179l1.233-3.3h5.185l1.224 3.3H24L19.094 8.8Zm-2.863 7.7 1.8-4.767 1.801 4.767h-3.6Z" fill="#4285F4" fill-rule="nonzero"/><path d="m12.945 14.383-2.763-2.75a19.338 19.338 0 0 0 4.05-7.178h3.196V2.2H9.821V0H7.634v2.2H0v2.19h12.189a17.428 17.428 0 0 1-3.466 5.895 17.525 17.525 0 0 1-2.52-3.667H4.024a19.284 19.284 0 0 0 3.25 5.014l-5.546 5.5 1.54 1.568 5.455-5.5 3.394 3.42.828-2.238Z" fill="#669DF6"/></g></svg>