<svg width="24" height="23" xmlns="http://www.w3.org/2000/svg"><g fill-rule="nonzero" fill="none"><path d="M4.79 12.852C2.11 12.972 0 15.208 0 17.926 0 20.645 2.111 22.881 4.79 23c2.678-.119 4.79-2.355 4.79-5.074 0-2.718-2.112-4.955-4.79-5.074Zm-.538 5.254-.796 2.724-1.065.555.796-3.279-.796-3.269 1.055.555.806 2.714Zm0 3.279 1.056-3.279-1.056-3.269 4.242 3.27-4.242 3.278Z" fill="#AECBFA"/><path d="M12.888 0 6.171 12.035a6.198 6.198 0 0 1 1.613.662l5.104-9.165 5.518 9.826-5.518-5.682-4.97 5.128c.488.319.928.709 1.305 1.158l3.665-3.775 5.854 6.022-5.854-2.676-3.003 1.372c.29.514.503 1.068.633 1.644l2.37-1.08 5.575 2.54h-7.782a6.266 6.266 0 0 1-.287 1.77H24L12.888 0Z" fill="#4285F4"/></g></svg>