<svg width="24" height="24" xmlns="http://www.w3.org/2000/svg"><g fill-rule="nonzero" fill="none"><path d="M4.797 7.205h4.797V2.4H1.197a1.17 1.17 0 0 0-1.17 1.17v19.234c-.038.324.06.65.27.9l4.5-4.5V7.205Z" fill="#AECBFA"/><path d="m16.794 19.203 4.5 4.5c.217-.221.34-.518.343-.828v-8.47h-4.843v4.798Z" fill="#4285F4"/><path d="m23.698.302-4.5 4.5V9.6h4.797V1.202a1.18 1.18 0 0 0-.297-.9Z" fill="#669DF6"/><path d="m19.198 4.802 4.5-4.5a1.188 1.188 0 0 0-.9-.297H14.4v4.797h4.798Z" fill="#AECBFA"/><path fill="#669DF6" d="m0 24 4.797-4.797h11.997L21.601 24z"/></g></svg>