<svg width="20" height="24" xmlns="http://www.w3.org/2000/svg"><g fill-rule="nonzero" fill="none"><path fill="#669DF6" d="M4.822 0h9.634v2.404H4.822zM15.097 6.509l-.153.162 1.914 1.917.135-.135a9.501 9.501 0 0 0-1.896-1.944ZM20 5.464l-1.923-1.917-2.899 2.89 3.016.828z"/><path d="m15.178 6.437-.08.072a9.502 9.502 0 0 1 1.904 1.944l1.192-1.188-3.016-.828Z" fill="#4285F4"/><ellipse fill="#669DF6" cx="9.634" cy="14.404" rx="4.813" ry="4.798"/><path d="M9.634 19.202a4.814 4.814 0 0 0 4.613-4.803 4.814 4.814 0 0 0-4.613-4.803v4.808l-3.927 2.781a4.817 4.817 0 0 0 3.927 2.017Z" fill="#AECBFA"/><path d="M9.634 24a9.634 9.634 0 0 1-8.901-5.932A9.584 9.584 0 0 1 2.825 7.6a9.655 9.655 0 0 1 10.503-2.076 9.605 9.605 0 0 1 5.94 8.88C19.265 19.706 14.953 24 9.635 24Zm0-2.395c3.99 0 7.224-3.224 7.224-7.201 0-3.978-3.234-7.202-7.224-7.202-3.989 0-7.223 3.224-7.223 7.202 0 3.977 3.234 7.201 7.223 7.201Z" fill="#669DF6"/></g></svg>