<svg width="24" height="24" xmlns="http://www.w3.org/2000/svg"><g fill-rule="nonzero" fill="none"><path fill="#AECBFA" d="M8.405 8.399h7.199v7.202H8.405z"/><path fill="#669DF6" d="M10.808 0h2.403v4.798h-2.403zM6.002 0h2.403v4.798H6.002zM15.604 0h2.403v4.798h-2.403z"/><path fill="#4285F4" d="M10.808 19.202h2.403V24h-2.403zM6.002 19.202h2.403V24H6.002zM15.604 19.202h2.403V24h-2.403zM19.203 13.206v-2.404H24v2.404zM19.204 18.005V15.6H24v2.404zM19.204 8.4V5.994H24V8.4z"/><path fill="#669DF6" d="M0 13.198v-2.404h4.797v2.404zM.01 18.005V15.6h4.795v2.404zM.009 8.4V5.994h4.796V8.4z"/><path d="M3.609 3.6v16.8H20.4V3.6H3.61Zm14.398 14.405H6.002V5.995h12.005v12.01Z" fill="#AECBFA"/><path fill="#669DF6" d="M8.405 15.601h7.199L12.004 12z"/><path fill="#4285F4" d="m12.004 12 3.6 3.601V8.399z"/></g></svg>