<svg width="24" height="22" xmlns="http://www.w3.org/2000/svg"><g fill="none" fill-rule="evenodd"><path fill="#AECBFA" d="M5.599 0 0 3.373v15.254L5.599 22v-2.933l-3.204-1.925V4.868l3.204-1.935zM8.804 7.498 12 9.433l3.205-1.935v-3.85L12 1.723 8.804 3.648z"/><path fill="#669DF6" d="M8.804 3.648v3.85L12 9.433l3.205-1.935v-3.85L12 5.573z"/><path fill="#4285F4" d="m12 9.433 3.205-1.925v-3.86L12 5.573z"/><path fill="#AECBFA" d="m12.801 15.428 3.205 1.934 3.196-1.934v-3.85l-3.196-1.925-3.205 1.925z"/><path fill="#669DF6" d="M12.801 11.578v3.859l3.205 1.925 3.196-1.925v-3.859l-3.196 1.925z"/><path fill="#4285F4" d="m16.006 17.362 3.196-1.925v-3.859l-3.196 1.925z"/><path fill="#AECBFA" d="m4.798 15.428 3.205 1.934 3.196-1.934v-3.85L8.003 9.653l-3.205 1.925z"/><path fill="#669DF6" d="M4.798 11.578v3.859l3.205 1.925 3.196-1.925v-3.859l-3.196 1.925z"/><path fill="#4285F4" d="m8.003 17.362 3.196-1.925v-3.859l-3.196 1.925z"/><path fill="#669DF6" d="M0 6.316v9.377l2.395 1.449V4.868z"/><path fill="#4285F4" d="m0 6.316 2.395-.559v-.889zM2.395 17.142v-.715L0 15.693z"/><path fill="#AECBFA" d="M18.401 0v2.933l3.204 1.935v12.274l-3.204 1.925V22L24 18.627V3.373z"/><path fill="#669DF6" d="M21.605 17.142 24 15.693V6.316l-2.395-1.448z"/><path fill="#4285F4" d="M21.605 5.757 24 6.316l-2.395-1.448zM21.605 16.427v.715L24 15.693z"/></g></svg>