<svg width="24" height="24" xmlns="http://www.w3.org/2000/svg"><g fill="none" fill-rule="evenodd"><path d="M0 0h24v24H0z"/><path fill="#AECBFA" d="m19.014 14.633-12.22 7.055-1.17-2.016 12.22-7.064z"/><path fill="#AECBFA" d="M6.75 19.393V5.283h2.24l.008 12.409z"/><path fill="#AECBFA" d="M9.07 9.233 8.756 6.39l12.22 7.046-1.16 2.024z"/><path d="m14.866 9.917-6.11-3.528.315 2.835 1.8 1.035a4.823 4.823 0 0 0 3.986-.342h.01Z" fill="#4285F4"/><path d="M7.352 7.541A4.5 4.5 0 0 1 11.276.747a4.571 4.571 0 0 1 3.932 2.25 4.527 4.527 0 0 1-7.856 4.5v.044Zm5.831-3.357A2.196 2.196 0 0 0 9.08 5.282a2.205 2.205 0 0 0 4.4 0 2.196 2.196 0 0 0-.297-1.089v-.009Z" fill="#AECBFA"/><path d="M6.75 13.12v6.3l2.249-1.701v-1.98a3.942 3.942 0 0 0-2.25-2.619ZM13.588 17.764l5.4-3.132-2.655-1.17-1.494.9a5.138 5.138 0 0 0-1.278 3.429l.027-.027Z" fill="#4285F4"/><path d="M.603 20.031a4.5 4.5 0 1 1 7.823-4.446A4.5 4.5 0 0 1 .603 20.03Zm5.831-3.365a2.196 2.196 0 0 0-1.34-1.026 2.16 2.16 0 0 0-1.665.225 2.205 2.205 0 0 0-.81 3.006 2.205 2.205 0 0 0 3.815-2.205ZM14.794 19.636a4.5 4.5 0 0 1 2.745-6.65 4.544 4.544 0 0 1 5.102 2.105 4.58 4.58 0 0 1 0 4.5 4.5 4.5 0 0 1-6.146 1.7 4.562 4.562 0 0 1-1.656-1.655h-.045Zm5.822-3.375a2.142 2.142 0 0 0-.8-.8 2.196 2.196 0 0 0-3.006 3.005c.19.334.467.61.8.8a2.223 2.223 0 0 0 1.675.226 2.205 2.205 0 0 0 1.331-3.231Z" fill="#AECBFA"/><path d="M8.99 16.972s-2.817 2.385-3.366 2.7l3.429-1.98a4.86 4.86 0 0 0-.063-.72ZM9.773 9.548S9.07 5.696 9.07 5.282v3.942c.225.126.46.234.702.324ZM15.955 13.795s3.312 1.386 3.86 1.701l-3.428-1.98a2.7 2.7 0 0 0-.432.28Z" fill="#669DF6"/></g></svg>