<svg width="17" height="24" xmlns="http://www.w3.org/2000/svg"><g fill="none" fill-rule="evenodd"><path fill="#669DF6" d="m10.599 3.637-.316-1.125-1.66-.072-2.002 1.152 1.782 1.791-.026 2.08 1.186.018.026-2.08 4.97 3.079-.018 1.278 2.073.027V7.328z"/><path fill="#AECBFA" d="m8.623 2.44-1.668.405-.334.747L.448 7.103.421 9.569l2.09.027.009-1.287 5.058-2.935-.026 2.08 1.009.009z"/><path fill="#669DF6" d="M8.623 2.44 4.628 0 2.59 1.134l4.031 2.458L8.623 2.44zM14.462 15.682l-5.04 2.935.026-2.071-2.01-.027-.027 2.071.966 2.97 1.66-.135.342-1.017 6.164-3.52.036-2.511-2.099-.027zM8.377 21.56l-4.066 2.332h-.052l-1.95-1.188 4.092-2.35 1.976 1.206z"/><path fill="#4285F4" d="m10.599 3.637 4.083-2.341-1.95-1.188h-.052L8.623 2.44zM10.379 20.408l4.031 2.458L12.434 24h-.062l-3.995-2.44z"/><path fill="#AECBFA" d="m8.377 21.56-1.976-1.206-6.015-3.682v-2.403H2.45l-.018 1.251 4.979 3.079.027-2.08 1.001.018z"/><ellipse fill="#AECBFA" fill-rule="nonzero" cx="15.665" cy="12.045" rx="1.335" ry="1.368"/><ellipse fill="#AECBFA" fill-rule="nonzero" cx="1.335" cy="11.847" rx="1.335" ry="1.368"/><ellipse fill="#AECBFA" fill-rule="nonzero" cx="8.579" cy="9.587" rx="1.335" ry="1.368"/><ellipse fill="#AECBFA" fill-rule="nonzero" cx="8.465" cy="14.404" rx="1.335" ry="1.368"/></g></svg>