<svg width="24" height="17" xmlns="http://www.w3.org/2000/svg"><g fill-rule="nonzero" fill="none"><path fill="#AECBFA" d="M6 1.214 7.2 0H0l1.2 1.214z"/><path fill="#669DF6" d="M6 1.214v4.857l1.2 1.215V0z"/><path fill="#AECBFA" d="M1.2 1.214 0 0v7.286l1.2-1.215z"/><path fill="#4285F4" d="M1.2 6.071 0 7.286h7.2L6 6.071z"/><path fill="#AECBFA" d="M1.2 1.214H6v4.857H1.2z"/><path fill="#4285F4" d="M14.4 1.214 15.6 0H8.4l1.2 1.214z"/><path fill="#669DF6" d="M14.4 1.214v4.857l1.2 1.215V0z"/><path fill="#4285F4" d="M9.6 1.214 8.4 0v7.286l1.2-1.215z"/><path fill="#669DF6" d="M9.6 6.071 8.4 7.286h7.2l-1.2-1.215z"/><path fill="#FFF" d="M9.6 1.214h4.8v4.857H9.6z"/><path fill="#4285F4" d="M22.8 1.214 24 0h-7.2L18 1.214z"/><path fill="#669DF6" d="M22.8 1.214v4.857L24 7.286V0z"/><path fill="#4285F4" d="M18 1.214 16.8 0v7.286L18 6.071z"/><path fill="#669DF6" d="m18 6.071-1.2 1.215H24l-1.2-1.215z"/><path fill="#FFF" d="M18 1.214h4.8v4.857H18z"/><path fill="#4285F4" d="m6 10.929 1.2-1.215H0l1.2 1.215z"/><path fill="#669DF6" d="M6 10.929v4.857L7.2 17V9.714z"/><path fill="#4285F4" d="M1.2 10.929 0 9.714V17l1.2-1.214z"/><path fill="#669DF6" d="M1.2 15.786 0 17h7.2L6 15.786z"/><path fill="#FFF" d="M1.2 10.929H6v4.857H1.2z"/><path fill="#AECBFA" d="m14.4 10.929 1.2-1.215H8.4l1.2 1.215z"/><path fill="#669DF6" d="M14.4 10.929v4.857L15.6 17V9.714z"/><path fill="#AECBFA" d="M9.6 10.929 8.4 9.714V17l1.2-1.214z"/><path fill="#4285F4" d="M9.6 15.786 8.4 17h7.2l-1.2-1.214z"/><path fill="#AECBFA" d="M9.6 10.929h4.8v4.857H9.6zM22.8 10.929 24 9.714h-7.2l1.2 1.215z"/><path fill="#669DF6" d="M22.8 10.929v4.857L24 17V9.714z"/><path fill="#AECBFA" d="m18 10.929-1.2-1.215V17l1.2-1.214z"/><path fill="#4285F4" d="M18 15.786 16.8 17H24l-1.2-1.214z"/><path fill="#AECBFA" d="M18 10.929h4.8v4.857H18z"/></g></svg>