<svg width="24" height="24" xmlns="http://www.w3.org/2000/svg"><g fill="none" fill-rule="evenodd"><path fill="#4285F4" fill-rule="nonzero" d="m3 6.682 5.778-3.337V0L0 5.064l.48.592 2.003 1.072z"/><path d="M8.778 18.594 0 13.52v-3.188l8.778 5.073v3.189Zm0 2.18L0 15.684v3.197L8.778 24v-3.225Zm0-10.738L3.01 6.682 0 5.064v3.087l8.778 5.083" fill="#AECBFA"/><path d="m8.778 24 8.594-4.963v-3.234l-8.594 4.972m0-5.37 8.594-4.971h2.557v2.874H17.88l-9.102 5.286v-3.189Zm0-2.171L17.89 7.92h3.01v1.673L24 6.506l-3.083-3.087v1.627h-3.545l-1.523.924-1.292.749-3.36 1.95-2.419 1.404v3.16ZM8.778 3.345 12.674 5.6l2.898-1.672L8.778 0z" fill="#669DF6"/></g></svg>