<svg width="24" height="23" xmlns="http://www.w3.org/2000/svg"><g fill-rule="nonzero" fill="none"><path fill="#4285F4" d="m0 8.13 3.113-5.544h3.993v2.449H4.512L2.79 8.101l1.057 1.773-2.085 1.205z"/><path fill="#AECBFA" d="m15.259 12.969 3.27-1.88 3.259 1.88v3.772l-3.259 1.88-3.27-1.88zM2.212 12.969l3.259-1.88 3.27 1.88v3.772l-3.27 1.88-3.259-1.88zM8.741 1.891 12 0l3.259 1.891v3.771L12 7.543 8.741 5.662z"/><path fill="#4285F4" d="m18.529 11.089 3.259 1.88v3.772l-3.259 1.88zM5.471 11.089l3.27 1.88v3.772l-3.27 1.88zM12 0l3.259 1.891v3.771L12 7.543zM20.153 9.874l1.057-1.773-1.722-3.066h-2.594V2.586h4.003L24 8.14l-1.772 2.939zM8.878 23l-1.919-3.223 2.075-1.205 1.214 1.979h3.465l1.223-1.988 2.085 1.204L15.073 23z"/></g></svg>