<svg width="15" height="24" xmlns="http://www.w3.org/2000/svg"><path d="M10.889 8.214c.079 0 .145.055.165.13l.006.047v.97c0 .081-.053.15-.126.17l-.045.007h-.687v1.739c0 .05.01.1.026.148l.03.068 4.63 8.185a.888.888 0 0 1 .049.763l-.05.103-1.679 3.023a.841.841 0 0 1-.63.427L12.48 24H2.521a.834.834 0 0 1-.675-.347l-.054-.086-1.68-3.023a.888.888 0 0 1-.049-.763l.05-.103 4.616-8.185a.573.573 0 0 0 .059-.141l.01-.075v-1.74H4.11a.173.173 0 0 1-.165-.129l-.007-.047v-.97c0-.082.054-.15.126-.17l.046-.007h6.778ZM8.916 9.538H6.084v2.008a.888.888 0 0 1-.064.332l-.048.101-4.425 7.93a.444.444 0 0 0-.032.364l.032.069L2.69 22.38c.062.112.17.188.29.21l.074.007 1.41-.001-1.246-2.22a.444.444 0 0 1-.031-.365l.031-.069 1.086-1.934h8.087l-.643-1.152H8.757l-.487-.866h2.996l-.902-1.616-3.02.001-.487-.867H9.88l-.853-1.529a.883.883 0 0 1-.105-.32l-.007-.113V9.538Zm4.017 9.44H9.945l.487.883h2.994l-.493-.883ZM5.788 4.528c.465 0 .842.387.842.865a.854.854 0 0 1-.842.866.854.854 0 0 1-.842-.866c0-.478.377-.866.842-.866ZM8.965 2.67c.697 0 1.262.581 1.262 1.298 0 .717-.565 1.299-1.262 1.299-.698 0-1.263-.582-1.263-1.299S8.267 2.67 8.965 2.67ZM7.05 0c.465 0 .842.388.842.866a.854.854 0 0 1-.842.866.854.854 0 0 1-.842-.866c0-.478.377-.866.842-.866Z" fill="#4285F4" fill-rule="nonzero"/></svg>