<svg width="22" height="24" xmlns="http://www.w3.org/2000/svg"><g fill="none" fill-rule="evenodd"><path d="M9.165 10.808a1.1 1.1 0 0 1 1.023.673c.172.41.078.883-.237 1.198a1.104 1.104 0 0 1-1.203.236 1.096 1.096 0 0 1 .417-2.107Zm0-.952a2.056 2.056 0 0 0-1.885 1.266 2.042 2.042 0 0 0 .439 2.222c.657.65 1.67.78 2.47.317.801-.463 1.19-1.403.95-2.294a2.047 2.047 0 0 0-1.974-1.511ZM2.04 10.808a1.1 1.1 0 0 1 1.023.673c.173.41.079.883-.237 1.198a1.104 1.104 0 0 1-1.203.236 1.096 1.096 0 0 1 .417-2.107Zm0-.952a2.056 2.056 0 0 0-1.884 1.266 2.042 2.042 0 0 0 .438 2.222c.657.65 1.67.78 2.47.317.801-.463 1.191-1.403.951-2.294A2.047 2.047 0 0 0 2.04 9.856ZM5.703 17.176a1.1 1.1 0 0 1 1.022.671c.173.41.08.882-.233 1.197-.314.315-.788.41-1.2.241a1.096 1.096 0 0 1 .41-2.109Zm0-.944a2.03 2.03 0 0 0-.77 3.911c.9.369 1.936.053 2.475-.754a2.026 2.026 0 0 0-.26-2.565 2.02 2.02 0 0 0-1.445-.592ZM5.703 4.552a1.09 1.09 0 0 1 1.052 1.114A1.09 1.09 0 0 1 5.65 6.727 1.09 1.09 0 0 1 4.57 5.64a1.11 1.11 0 0 1 .33-.8c.214-.206.505-.316.803-.304v.016Zm0-.96a2.046 2.046 0 0 0-.8 3.938 2.06 2.06 0 0 0 2.5-.75 2.042 2.042 0 0 0-.255-2.588 2.028 2.028 0 0 0-1.445-.6Z" fill="#669DF6"/><path fill="#4285F4" fill-rule="nonzero" d="M9.381 0h2.024v24H9.381z"/><path d="M16.12 3.448h-5.437a.44.44 0 0 0-.362.472v3.384a.432.432 0 0 0 .362.472h5.437a.424.424 0 0 0 .362-.472V3.928a.432.432 0 0 0-.362-.48ZM21.325 9.792H11.301c-.37 0-.675.216-.675.472v3.384c0 .264.306.472.675.472h10.024c.37 0 .675-.216.675-.472v-3.384c0-.264-.305-.472-.675-.472ZM14.209 16.12H9.952c-.16 0-.29.224-.29.48V20c0 .264.13.48.29.48h4.257c.16 0 .289-.224.289-.48v-3.4c-.016-.264-.145-.48-.29-.48Z" fill="#4285F4"/></g></svg>