<svg width="24" height="24" xmlns="http://www.w3.org/2000/svg"><path d="M5.138 13.733a5.136 5.136 0 0 1 5.138 5.134c0 2.835-2.3 5.133-5.138 5.133A5.136 5.136 0 0 1 0 18.867c0-2.835 2.3-5.134 5.138-5.134Zm-.04 2.24-.783.784 1.658 1.665H2.241v1.11h3.731l-1.657 1.662.782.785 2.993-3.002-2.993-3.005ZM24 0v15.028h-5.184v5.178h-7.531a6.292 6.292 0 0 0 .099-2.195h5.235v-5.178h5.184V2.194H11.155v5.18L5.97 7.372v5.231a6.347 6.347 0 0 0-2.196.1V5.177h5.182V0H24Zm-4.338 4.334v6.36h-5.183v5.178h-3.781a6.307 6.307 0 0 0-2.585-2.583V9.512h5.182V4.334h6.367Z" fill="#4285F4" fill-rule="evenodd"/></svg>