<svg width="24" height="24" xmlns="http://www.w3.org/2000/svg"><g fill="none" fill-rule="evenodd"><g fill="#4285F4" fill-rule="nonzero"><path d="M11.999 0v2.4H3v19.2h8.999V24H2.861C1.336 24 .09 22.996.005 21.74L0 21.6V2.4C0 1.08 1.294 0 2.875 0h9.124Z"/><path d="M6 16.8h6v2.4H6zM6 12h6v2.4H6zM6 7.2h6v2.4H6z"/><ellipse transform="matrix(1 0 0 -1 0 44)" cx="19.5" cy="22" rx="2" ry="1.6"/><ellipse transform="matrix(1 0 0 -1 0 20)" cx="21.5" cy="10" rx="2" ry="1.6"/><ellipse cx="17.5" cy="2.8" rx="2" ry="1.6"/></g><path d="M14 8.4h1.14c2.682 0 2.347-.985 2.347-5.6M14 13.19h1.108c5.151 0 6.455.355 6.39-3.19M14 18.013h.813c4.37-.01 4.731-.354 4.683 3.187" stroke="#4285F4"/></g></svg>