<svg width="24" height="24" xmlns="http://www.w3.org/2000/svg"><g fill="none" fill-rule="evenodd"><path fill="#669DF6" d="M5.995 0 0 5.995v12.01L5.995 24H12l-2.998-3.43H7.499l-4.078-4.069V7.499L7.499 3.43h1.503L12 0zM14.998 0 12 3.43h4.501l4.069 4.069v9.002l-4.069 4.069H12L14.998 24h3.007L24 18.005V5.995L18.005 0z"/><path fill="#4285F4" d="m12 18.005-2.998-3.007L12 12 9.002 8.993 12 5.995H9.002L5.995 9.002v5.996l3.007 3.007zM14.998 5.995 12 9.002 15.007 12 12 15.007l2.998 2.998 3.007-3.007V9.002z"/></g></svg>