<svg width="24" height="24" xmlns="http://www.w3.org/2000/svg"><g fill="none" fill-rule="evenodd"><path fill="#4285F4" fill-rule="nonzero" d="M19.366 5.917 6.175 19.08 5.04 17.954 18.231 4.791z"/><circle fill="#669DF6" fill-rule="nonzero" transform="rotate(-43.97 12 12.069)" cx="11.999" cy="12.069" r="3.471"/><path d="M24 12a12 12 0 0 1-2.345 7.135 1.91 1.91 0 0 0-1.283-.97 10.393 10.393 0 0 0 1.579-9.23c.51-.2.986-.477 1.412-.821A11.87 11.87 0 0 1 24 12Zm-4.874 9.655a12 12 0 0 1-10.984 1.708 5.39 5.39 0 0 0 .821-1.413c3.153.969 6.579.383 9.23-1.578a1.93 1.93 0 0 0 .933 1.283ZM15.858.637a5.39 5.39 0 0 0-.821 1.413h-.055A10.634 10.634 0 0 0 12 1.597c-2.22-.002-4.382.71-6.166 2.031a1.93 1.93 0 0 0-.923-1.283A12 12 0 0 1 15.895.637h-.037ZM3.628 5.834a10.393 10.393 0 0 0-1.579 9.23c-.51.201-.986.478-1.412.822A11.87 11.87 0 0 1 0 12a12 12 0 0 1 2.345-7.135c.264.496.733.85 1.283.97Z" fill="#4285F4" fill-rule="nonzero"/><path d="M21.23 4.016a1.255 1.255 0 1 0-2.51 0 1.255 1.255 0 0 0 2.51 0Zm1.671 0a2.926 2.926 0 1 1-2.916-2.936 2.917 2.917 0 0 1 2.935 2.936H22.9ZM21.23 20.058a1.255 1.255 0 1 0-1.245 1.255 1.246 1.246 0 0 0 1.246-1.255Zm1.671 0a2.926 2.926 0 1 1-2.916-2.935 2.917 2.917 0 0 1 2.935 2.935H22.9ZM5.188 20.058a1.255 1.255 0 1 0-2.511 0 1.255 1.255 0 0 0 2.51 0Zm1.67 0a2.926 2.926 0 1 1-5.852-.018 2.926 2.926 0 0 1 5.853.018ZM5.188 4.016a1.255 1.255 0 1 0-2.511 0 1.255 1.255 0 0 0 2.51 0Zm1.67 0a2.926 2.926 0 1 1-5.852-.019 2.926 2.926 0 0 1 5.853.019Z" fill="#AECBFA"/></g></svg>