<svg width="24" height="24" xmlns="http://www.w3.org/2000/svg"><g fill="none" fill-rule="evenodd"><path d="M0 0h24v24H0z"/><g transform="translate(3 2)" fill-rule="nonzero"><path fill="#AECBFA" d="m6.554 19.572-1.138-1.105 5.957-5.769 1.137 1.105zM3.575 17.165 2.438 16.06l8.027-7.766 1.137 1.097zM1.735 13.653.597 12.548l5.318-5.153 1.138 1.104z"/><path d="m9 1.697 7.364 3.156v4.799c0 4.514-3.167 8.68-7.364 9.793-4.23-1.112-7.364-5.28-7.364-9.793V4.877L9 1.72M9 .024 0 3.867v5.785C0 14.932 3.796 19.816 8.836 21H9.172C14.204 19.816 18 14.931 18 9.652V3.867L9 0v.024Z" fill="#669DF6"/><ellipse fill="#669DF6" cx="11.929" cy="13.274" rx="1.546" ry="1.492"/><ellipse fill="#669DF6" cx="11.021" cy="8.886" rx="1.546" ry="1.492"/><ellipse fill="#669DF6" cx="6.48" cy="7.994" rx="1.546" ry="1.492"/></g></g></svg>