<svg width="17" height="24" xmlns="http://www.w3.org/2000/svg"><g fill-rule="nonzero" fill="none"><path d="M11.07.386A8.692 8.692 0 0 0 8.5 0a8.515 8.515 0 0 0-6.509 2.988l4.016 3.32L11.069.386Z" fill="#1A73E8"/><path d="M1.991 2.988a8.206 8.206 0 0 0-1.99 5.373 9.301 9.301 0 0 0 .84 3.991l5.166-6.044-4.016-3.32Z" fill="#EA4335"/><path d="M8.5 5.163a3.262 3.262 0 0 1 2.946 1.855 3.164 3.164 0 0 1-.46 3.41s2.57-3.002 5.09-5.895A8.493 8.493 0 0 0 11.07.386L6.007 6.308A3.28 3.28 0 0 1 8.5 5.163Z" fill="#4285F4"/><path d="M8.5 11.56a3.255 3.255 0 0 1-2.946-1.845 3.157 3.157 0 0 1 .453-3.407L.841 12.352c.882 1.925 2.349 3.476 3.864 5.421l6.282-7.345A3.28 3.28 0 0 1 8.5 11.56Z" fill="#FBBC04"/><path d="M10.856 19.779C13.694 15.415 17 13.436 17 8.36a8.204 8.204 0 0 0-.923-3.828L4.705 17.773c.475.623.964 1.28 1.44 2.033C7.867 22.428 7.385 24 8.5 24c1.116 0 .634-1.6 2.356-4.221Z" fill="#34A853"/></g></svg>