<svg width="24" height="12" xmlns="http://www.w3.org/2000/svg"><g fill-rule="nonzero" fill="none"><path d="M11.824.246c-3.38 0-6.12 2.631-6.12 5.877S8.444 12 11.824 12s6.12-2.631 6.12-5.877C17.94 2.879 15.202.25 11.824.246Zm0 10.463c-2.651 0-4.8-2.063-4.8-4.61 0-2.545 2.149-4.609 4.8-4.609s4.8 2.064 4.8 4.61a4.519 4.519 0 0 1-1.406 3.26 4.903 4.903 0 0 1-3.394 1.35Z" fill="#4285F4"/><path d="M14.128 6.822a1.786 1.786 0 0 0-.344-.253 3.846 3.846 0 0 0-3.128-.33c-.382.114-.74.293-1.056.53a1.05 1.05 0 0 0-.448.767v1.168h5.376V7.76a1.063 1.063 0 0 0-.4-.937ZM11.816 5.455c.768-.013 1.38-.62 1.368-1.357-.012-.738-.643-1.326-1.41-1.317-.768.01-1.383.615-1.374 1.352.002.357.153.698.42.946.266.248.625.384.996.376Z" fill="#669DF6"/><path fill="#AECBFA" d="M22.536 4.525h-1.248l.928.891h-2.664v1.037h2.664l-.928.891h1.248L24 5.939z"/><path fill="#669DF6" d="m18.656 1.967.76.737 1.168-1.121v1.26l.888-.853V0h-2.08l-.88.845h1.312zM20.584 10.417l-1.168-1.129-.76.738 1.168 1.121h-1.312l.88.853h2.08v-1.997l-.888-.846zM1.6 4.464C.716 4.464 0 5.15 0 6s.716 1.536 1.6 1.536c.884 0 1.6-.687 1.6-1.536s-.716-1.536-1.6-1.536Zm0 2.42C1.106 6.87.714 6.48.72 6.004c.006-.474.407-.856.901-.857.494-.002.898.378.907.852a.86.86 0 0 1-.276.62.933.933 0 0 1-.652.248v.015Z"/></g></svg>