<svg width="20" height="24" xmlns="http://www.w3.org/2000/svg"><g fill="none" fill-rule="evenodd"><path d="M9.955 0 0 4.105v6.752C0 16.942 4.245 22.623 10 24c5.71-1.377 10-7.058 10-13.143V4.105L9.955 0Zm0 4.546a3.192 3.192 0 0 1 2.955 1.947 3.137 3.137 0 0 1-.69 3.447 3.214 3.214 0 0 1-3.482.683 3.16 3.16 0 0 1-1.965-2.926 3.09 3.09 0 0 1 .909-2.224 3.198 3.198 0 0 1 2.254-.9l.019-.027Zm4.981 13.377a10.352 10.352 0 0 1-4.981 3.52 10.352 10.352 0 0 1-4.982-3.52v-2.7c0-2.017 3.318-3.025 4.982-3.025 1.663 0 4.981 1.008 4.981 3.025v2.7Z" fill="#669DF6"/><path d="M9.955 0v4.546c1.664.125 2.95 1.498 2.95 3.15 0 1.654-1.286 3.027-2.95 3.152v1.35c1.663 0 4.981 1.008 4.981 3.025v2.7a10.352 10.352 0 0 1-4.981 3.52V24c5.709-1.377 10-7.058 10-13.143V4.105L9.955 0Z" fill="#4285F4"/></g></svg>