<svg width="24" height="24" xmlns="http://www.w3.org/2000/svg"><g fill="none" fill-rule="evenodd"><path d="M12.602 12.536V7.21c.566-.291.857-.927.705-1.54a1.382 1.382 0 0 0-1.345-1.043c-.639 0-1.194.43-1.346 1.043-.152.613.14 1.249.706 1.54v5.317H6.194V9.133c.56-.294.846-.927.695-1.535a1.382 1.382 0 0 0-1.335-1.043 1.382 1.382 0 0 0-1.336 1.043 1.364 1.364 0 0 0 .696 1.535v3.403h-.26a4.651 4.651 0 0 1-4.289-2.81 4.557 4.557 0 0 1 .959-4.998 4.69 4.69 0 0 1 5.032-1.064C7.383 1.446 9.618.017 12.086 0c2.468-.017 4.722 1.38 5.781 3.584a4.913 4.913 0 0 1 1.483-.24c2.568 0 4.65 2.058 4.65 4.596 0 2.538-2.082 4.596-4.65 4.596h-.308V9.133c.56-.294.847-.927.695-1.535a1.382 1.382 0 0 0-1.335-1.043 1.374 1.374 0 0 0-1.354 1.04 1.356 1.356 0 0 0 .722 1.538v3.403h-5.168Z" fill="#4285F4"/><path d="M6.202 16.083a2.407 2.407 0 0 1 1.863 2.402 2.494 2.494 0 0 1-2.297 2.471c-1.299.11-2.466-.78-2.689-2.05a2.482 2.482 0 0 1 1.835-2.823v-3.547h1.288v3.547Zm-.648 3.571c.672 0 1.218-.537 1.223-1.201a1.216 1.216 0 0 0-1.207-1.217 1.217 1.217 0 0 0-1.24 1.185 1.21 1.21 0 0 0 .352.868c.23.232.544.363.872.365ZM19.01 16.02a2.483 2.483 0 0 1 1.855 2.718 2.502 2.502 0 0 1-2.491 2.165 2.502 2.502 0 0 1-2.491-2.165 2.483 2.483 0 0 1 1.855-2.718v-3.475h1.272v3.475Zm-.64 3.611a1.22 1.22 0 0 0 1.211-.973 1.206 1.206 0 0 0-.741-1.357 1.234 1.234 0 0 0-1.329.264c-.35.345-.456.864-.268 1.316.188.453.632.748 1.127.75Zm-5.768-.512a2.483 2.483 0 0 1 1.85 2.719A2.502 2.502 0 0 1 11.962 24a2.502 2.502 0 0 1-2.49-2.163 2.483 2.483 0 0 1 1.85-2.72v-6.59h1.288l-.008 6.59Zm-.657 3.635c.539 0 1.013-.349 1.17-.858a1.202 1.202 0 0 0-.489-1.355 1.235 1.235 0 0 0-1.454.066 1.2 1.2 0 0 0-.36 1.394c.189.454.636.751 1.133.753Z" fill="#669DF6"/></g></svg>