<svg width="22" height="24" xmlns="http://www.w3.org/2000/svg"><g fill-rule="nonzero" fill="none"><path fill="#669DF6" d="M9.778 0v24L22 14.4z"/><path fill="#4285F4" d="m9.778 0-1.19 1.408 10.805 12.72-10.756 8.464L9.786 24 22 14.384z"/><g fill="#669DF6"><path d="m9.778 0-4.89 5.704A3.61 3.61 0 0 1 6.25 6.928l3.528-4.12V0ZM6.535 19.2a3.569 3.569 0 0 1-1.116 1.424L9.778 24v-2.304L6.535 19.2Z"/></g><path d="M3.667 9.6a1.211 1.211 0 0 1-1.223-1.2c0-.663.548-1.2 1.223-1.2s1.222.537 1.222 1.2c0 .663-.547 1.2-1.222 1.2m0-4.8C1.642 4.8 0 6.412 0 8.4S1.642 12 3.667 12s3.666-1.612 3.666-3.6a3.56 3.56 0 0 0-1.071-2.548A3.693 3.693 0 0 0 3.667 4.8M3.667 19.2A1.211 1.211 0 0 1 2.444 18c0-.663.548-1.2 1.223-1.2s1.222.537 1.222 1.2c0 .663-.547 1.2-1.222 1.2m0-4.8C1.642 14.4 0 16.012 0 18s1.642 3.6 3.667 3.6 3.666-1.612 3.666-3.6a3.56 3.56 0 0 0-1.071-2.548A3.693 3.693 0 0 0 3.667 14.4" fill="#AECBFA"/></g></svg>