<svg width="24" height="23" xmlns="http://www.w3.org/2000/svg"><g fill-rule="nonzero" fill="none"><path d="M20.127.91c.252 0 .456.202.46.455v5.102a.462.462 0 0 1-.46.455.47.47 0 0 1-.468-.455V1.365a.47.47 0 0 1 .468-.455ZM24 2.663v1.935a.47.47 0 0 1-.93 0V2.663a.47.47 0 0 1 .93 0Zm-2.631-2.2V7.13c0 .256.206.463.46.463.255 0 .46-.207.46-.463V.463A.462.462 0 0 0 21.83 0a.462.462 0 0 0-.46.463Zm-3.396 1.894v2.746c0 .256.207.463.46.463a.47.47 0 0 0 .47-.463V2.357a.47.47 0 0 0-.47-.463.462.462 0 0 0-.46.463Z" fill="#AECBFA"/><path d="M0 23V3.771a2.34 2.34 0 0 1 .665-1.676 2.312 2.312 0 0 1 1.654-.697h14.52v1.86H2.319a.467.467 0 0 0-.469.513V18.51l1.316-1.323h17.266c.254 0 .46-.207.46-.463v-7.99h1.85v7.957a2.317 2.317 0 0 1-2.31 2.324H3.93L0 23Z" fill="#669DF6"/><path d="M14.2 5.425v1.49h-1.867a11.174 11.174 0 0 1-2.27 4.027l1.563 1.555-.559 1.53-1.998-1.985-3.14 3.15-1.053-1.074 3.198-3.176a11.386 11.386 0 0 1-1.8-2.746l-.107-.24H7.67v.066a9.687 9.687 0 0 0 1.349 1.985 9.83 9.83 0 0 0 1.825-3.085H3.93V5.425h4.39V4.168h1.49v1.257h4.39Zm-1.645 10.851h1.587l.633-1.836h2.919l.633 1.836h1.587L17.053 8.61h-1.645l-2.853 7.667Zm2.68-3.16.7-1.901.27-.918h.091l.271.918.675 1.927-2.007-.025Z" fill="#4285F4"/></g></svg>