<svg width="24" height="24" xmlns="http://www.w3.org/2000/svg"><g fill="none" fill-rule="evenodd"><path fill="#669DF6" fill-rule="nonzero" d="M0 2.323h3.997V5.42H0zM0 7.742h3.997v3.097H0zM0 13.161h3.997v3.097H0zM0 18.581h3.997v3.097H0zM20.003 2.323H24V5.42h-3.997zM20.003 7.742H24v3.097h-3.997zM20.003 13.161H24v3.097h-3.997zM20.003 18.581H24v3.097h-3.997z"/><path fill="#4285F4" d="M23.199 5.419h-3.196V2.323zM23.199 10.839h-3.196V7.742zM23.199 16.258h-3.196v-3.097zM23.199 21.677h-3.196v-3.096z"/><path d="M3.997 24h16.006V0H3.997v24Zm7.202-10.803H7.202l5.6-9.299v6.968h3.996l-5.6 9.236v-6.905Z" fill="#AECBFA"/><path fill="#669DF6" d="M11.199 24v-3.871l5.599-9.29h-3.997V0h7.202v24z"/></g></svg>