<svg width="24" height="24" xmlns="http://www.w3.org/2000/svg"><g fill="none" fill-rule="evenodd"><path d="M7.514 6.83a5.41 5.41 0 0 0-.656.647l-.286-.286L5.483 6.1l.655-.646 1.08 1.08.296.296ZM18.545 17.862l-.656.646-1.338-1.348c.236-.196.455-.413.655-.646l1.339 1.348ZM5.326 11.51c-.01.164-.01.327 0 .49-.01.144-.01.29 0 .434H3.222v-.923h2.104ZM20.77 11.51v.924h-2.04c.009-.145.009-.29 0-.434.009-.163.009-.326 0-.49h2.04ZM6.822 16.486c.193.239.41.458.646.656l-1.366 1.366-.656-.646 1.376-1.376ZM16.79 6.517l1.062-1.062.656.647-1.339 1.347a4.818 4.818 0 0 0-.655-.646l.277-.286ZM12 18.73c.157.008.314.008.47 0v2.04h-.922v-2.068c.15.018.3.027.452.027ZM12.49 3.23v2.078a3.277 3.277 0 0 0-.425 0 4.348 4.348 0 0 0-.49 0V3.23h.914Z" fill="#4285F4" fill-rule="nonzero"/><path d="M19.283 11.51a7.32 7.32 0 0 0-6.794-6.775H11.548A7.246 7.246 0 0 0 7.2 6.526a6.185 6.185 0 0 0-.646.656 7.218 7.218 0 0 0-1.846 4.32v.489c-.01.144-.01.29 0 .434a7.292 7.292 0 0 0 2.418 4.993 7.32 7.32 0 0 0 4.385 1.847h.923a7.228 7.228 0 0 0 4.338-1.847 7.154 7.154 0 0 0 2.455-5.012c.01-.144.01-.29 0-.434.075-.138.065-.304.056-.461ZM12 18.35a6.35 6.35 0 1 1 0-12.7 6.35 6.35 0 0 1 0 12.7Zm0-11.187A4.837 4.837 0 1 0 16.855 12 4.846 4.846 0 0 0 12 7.163Z" fill="#669DF6"/><path d="M12 3.434A1.717 1.717 0 1 1 12 0v.923a.794.794 0 0 0 0 1.588v.923Z" fill="#AECBFA"/><path d="M12 3.434V2.51a.794.794 0 0 0 0-1.588V0a1.717 1.717 0 0 1 0 3.434Z" fill="#669DF6"/><path d="M12 24a1.717 1.717 0 0 1 0-3.434v.923a.794.794 0 1 0 0 1.588V24Z" fill="#AECBFA"/><path d="M12 24v-.923a.794.794 0 0 0 0-1.588v-.923A1.717 1.717 0 0 1 12 24Z" fill="#669DF6"/><path d="M4.726 6.462a1.717 1.717 0 1 1 0-3.434v.923a.794.794 0 1 0 0 1.587v.924Z" fill="#AECBFA"/><path d="M4.726 6.462v-.924a.794.794 0 0 0 0-1.587v-.923a1.717 1.717 0 1 1 0 3.434Z" fill="#669DF6"/><path d="M19.274 20.982a1.717 1.717 0 1 1 0-3.425v.923a.794.794 0 1 0 0 1.578v.924Z" fill="#AECBFA"/><path d="M19.274 20.982v-.924a.785.785 0 0 0 .784-.784.794.794 0 0 0-.784-.794v-.942a1.717 1.717 0 0 1 0 3.425v.019Z" fill="#669DF6"/><path d="M1.717 13.717a1.717 1.717 0 0 1 0-3.434v.923a.794.794 0 0 0 0 1.588v.923Z" fill="#AECBFA"/><path d="M1.717 13.717v-.923a.794.794 0 0 0 0-1.588v-.923a1.717 1.717 0 0 1 0 3.434Z" fill="#669DF6"/><path d="M22.283 13.717A1.735 1.735 0 0 1 20.566 12a1.726 1.726 0 0 1 1.717-1.717v.923a.803.803 0 0 0-.794.794c0 .212.087.416.24.563a.775.775 0 0 0 .554.23v.924Z" fill="#AECBFA"/><path d="M22.283 13.717v-.923a.794.794 0 0 0 0-1.588v-.923a1.717 1.717 0 1 1 0 3.434Z" fill="#669DF6"/><path d="M4.69 20.982a1.736 1.736 0 0 1-1.247-.517 1.634 1.634 0 0 1-.461-1.21c.03-.96.82-1.722 1.781-1.717v.924a.85.85 0 0 0-.858.803.71.71 0 0 0 .203.535.794.794 0 0 0 .581.24v.942Z" fill="#AECBFA"/><path d="M4.69 20.982v-.924a.858.858 0 0 0 .848-.803.775.775 0 0 0-.775-.793v-.924c.469-.004.919.182 1.246.517.31.332.473.775.453 1.228a1.782 1.782 0 0 1-1.773 1.699Z" fill="#669DF6"/><path d="M19.274 6.462a1.717 1.717 0 1 1 0-3.425v.923a.794.794 0 1 0 0 1.578v.924Z" fill="#AECBFA"/><path d="M19.274 6.462v-.924a.794.794 0 0 0 0-1.578v-.923a1.717 1.717 0 0 1 0 3.425Z" fill="#669DF6"/><path d="M12 7.163v9.665a4.837 4.837 0 1 1 0-9.665Z" fill="#AECBFA"/><path d="M16.855 12A4.828 4.828 0 0 1 12 16.828V7.163A4.837 4.837 0 0 1 16.855 12Z" fill="#669DF6"/><path fill="#AECBFA" fill-rule="nonzero" d="M12.028 13.274h2.603v1h-2.603zM12.028 11.594h2.603v1h-2.603zM12.028 9.923h2.603v1h-2.603z"/><path fill="#FFF" fill-rule="nonzero" d="M9.425 13.274h2.603v1H9.425zM9.425 11.594h2.603v1H9.425zM9.425 9.923h2.603v1H9.425z"/></g></svg>