<svg width="24" height="22" xmlns="http://www.w3.org/2000/svg"><path d="M11.846 17.59c1.214 0 2.198.987 2.198 2.205A2.202 2.202 0 0 1 11.846 22a2.202 2.202 0 0 1-2.199-2.205c0-1.218.985-2.205 2.199-2.205ZM14.9 14.73l1.083 1.89h1.257a2.2 2.2 0 0 1 2.08-1.49c1.214 0 2.198.987 2.198 2.205a2.202 2.202 0 0 1-2.198 2.205 2.2 2.2 0 0 1-2.066-1.447l-1.422-.001a1.234 1.234 0 0 1-1.059-.633l-1.2-2.093h-3.456L8.92 17.46a1.235 1.235 0 0 1-1.059.633H6.437a2.2 2.2 0 0 1-2.065 1.448 2.202 2.202 0 0 1-2.199-2.205c0-1.218.985-2.205 2.199-2.205a2.2 2.2 0 0 1 2.08 1.49h1.257l1.12-1.956-1.732-3.01H4.27a2.201 2.201 0 0 1-1.892 1.462l-.18.007A2.202 2.202 0 0 1 0 10.92c0-1.218.984-2.205 2.199-2.205a2.2 2.2 0 0 1 2.072 1.469H6.99l1.778-3.04-1.06-1.85-1.264.002a2.2 2.2 0 0 1-2.072 1.467 2.202 2.202 0 0 1-2.199-2.205c0-1.218.985-2.205 2.199-2.205A2.2 2.2 0 0 1 6.445 3.82l1.415.001c.44.007.843.247 1.058.632l1.155 2.017h3.542l1.157-2.016a1.235 1.235 0 0 1 1.06-.633h1.415a2.2 2.2 0 0 1 2.073-1.469c1.214 0 2.198.987 2.198 2.205a2.202 2.202 0 0 1-2.198 2.205 2.2 2.2 0 0 1-2.073-1.467l-1.264-.001-1.098 1.916 1.709 2.972h3.135a2.201 2.201 0 0 1 1.892-1.46l.18-.008c1.215 0 2.199.987 2.199 2.205a2.202 2.202 0 0 1-2.199 2.205 2.2 2.2 0 0 1-2.072-1.468H16.7l-1.8 3.075ZM11.846 0c1.214 0 2.198.987 2.198 2.205a2.202 2.202 0 0 1-2.198 2.205 2.202 2.202 0 0 1-2.199-2.205C9.647.987 10.632 0 11.846 0Z" fill="#4285F4" fill-rule="nonzero"/></svg>