<svg width="24" height="24" viewBox="0 0 24 24" fill="none" xmlns="http://www.w3.org/2000/svg">
  <path d="M12 9.23077c-1.5268 0-2.76923 1.24243-2.76923 2.76923S10.4732 14.7692 12 14.7692 14.7692 13.5268 14.7692 12c0-1.5268-1.2424-2.76923-2.7692-2.76923Z" fill="#669DF6"/>
  <path d="M19.3846 24H4.61539v-1.8461H17.5385V1.84616h1.8461V24Z" fill="#669DF6"/>
  <path d="M6.46154 19.3846H4.61539v2.7692h1.84615v-2.7692ZM6.46154 4.61538H4.61539V0H19.3846v1.84615H6.46154v2.76923Z" fill="#AECBFA"/>
  <path d="M17.5385 19.3846H0V4.61539h17.5385v1.84615H1.84615V17.5385H17.5385v1.8461ZM24 19.3846h-4.6154v-1.8461h2.7692V6.46154h-2.7692V4.61539H24V19.3846Z" fill="#4285F4"/>
</svg>