<svg width="24" height="22" xmlns="http://www.w3.org/2000/svg"><g fill="none" fill-rule="evenodd"><path d="m1.522 11.477 2.179-2.659a.124.124 0 0 1 .118-.017c.04.014.07.049.08.09v5.776a.128.128 0 0 1-.076.11.124.124 0 0 1-.131-.019l-.946-1.008a4.113 4.113 0 0 0 .333 4.354 3.587 3.587 0 0 0 2.485 1.44 3.556 3.556 0 0 0 2.7-.826c.335-.292.615-.643.828-1.035l.145-.248.153.238c.37.575.805 1.104 1.296 1.577l.117.11-.1.137A5.811 5.811 0 0 1 5.97 22C2.614 21.93-.054 19.11 0 15.693a6.534 6.534 0 0 1 1.521-4.216Z" fill="#669DF6"/><path d="m22.478 11.477-2.179-2.659a.124.124 0 0 0-.13-.033.128.128 0 0 0-.086.107v5.775a.128.128 0 0 0 .076.11c.044.02.095.013.131-.019l.964-1.008a4.113 4.113 0 0 1-.333 4.354 3.587 3.587 0 0 1-2.485 1.44 3.556 3.556 0 0 1-2.7-.826 3.755 3.755 0 0 1-.828-1.035l-.145-.248-.153.238a8.819 8.819 0 0 1-1.296 1.577l-.117.11.1.137A5.811 5.811 0 0 0 18.03 22c3.355-.07 6.023-2.89 5.968-6.307a6.534 6.534 0 0 0-1.521-4.216Z" fill="#4285F4"/><path d="M10.803 3.667a1.221 1.221 0 0 1 .348-.865c.225-.23.53-.357.849-.355V0c-1.989 0-3.6 1.642-3.6 3.667S10.01 7.333 12 7.333V4.886a1.177 1.177 0 0 1-.85-.355c-.224-.229-.35-.54-.347-.864" fill="#669DF6"/><path d="M15.6 3.667C15.6 1.642 13.99 0 12 0v2.447c.661 0 1.197.546 1.197 1.22 0 .673-.536 1.219-1.197 1.219v2.447c1.989 0 3.6-1.641 3.6-3.666" fill="#4285F4"/><path d="M12 17.114c-1.422 0-3.6-2.75-3.6-5.087V8.553l3.6-1.22V4.886L5.996 7.333v4.694c0 3.309 2.916 7.525 6.004 7.525v-2.438Z" fill="#AECBFA"/><path d="M18.004 12.027V7.333L12 4.886v2.447l3.6 1.22v3.474c0 2.383-2.178 5.087-3.6 5.087v2.438c3.079 0 5.977-4.225 5.977-7.525" fill="#669DF6"/><path d="M12.46 13.924a1.28 1.28 0 0 1-1.801 0l-1.8-1.833.9-.917 1.8 1.834 5.122-5.216.9.916-5.122 5.216Z" fill="#4285F4"/></g></svg>