<svg width="24" height="24" xmlns="http://www.w3.org/2000/svg"><g fill="none" fill-rule="evenodd"><path d="M11.983 16.745c-1.426 0-3.595-2.606-3.595-4.916V8.454l3.595-1.185V4.9L5.99 7.27v4.536c0 3.221 2.9 7.308 5.992 7.308v-2.37Z" fill="#669DF6" fill-rule="nonzero"/><path d="M17.974 7.27 11.983 4.9v2.37l3.595 1.184v3.364c0 2.368-2.17 4.927-3.595 4.927v2.369c3.08 0 5.991-4.146 5.991-7.344v-4.5Z" fill="#AECBFA" fill-rule="nonzero"/><path d="M12.894 13.002a1.305 1.305 0 0 1-1.81 0l-1.797-1.777.91-.888 1.786 1.812 4.793-4.738.91.9-4.792 4.691Z" fill="#4285F4" fill-rule="nonzero"/><path d="M.144 13.618H2.54C1.791 9.477 3.855 5.336 7.633 3.4c3.778-1.937 8.391-1.218 11.384 1.773l.875.912 1.677-1.718-.85-.852-.348-.356-.204-.201A12.052 12.052 0 0 0 13.385.056a12.374 12.374 0 0 0-3.907.249h-.095c-.372.095-.731.19-1.09.308l-.264.095c-.288.118-.564.26-.84.402l-.335.154c-.275.13-.527.273-.79.415l-.372.225c-.252.154-.503.331-.743.51-.24.177-.228.153-.324.236-.335.272-.67.557-.982.865-.33.32-.638.66-.923 1.018l-.275.296c-.192.273-.396.545-.564.818l-.191.296c-.18.296-.336.592-.48.888-.047.084-.087.17-.12.26-.167.368-.311.735-.443 1.114v.06a11.913 11.913 0 0 0-.467 5.353" fill="#2683FB"/><path d="m18.286 5.836 3.127-3.08a.12.12 0 0 1 .168 0l.78 3.85a.13.13 0 0 1-.085.142h-.06l-3.858-.663a.133.133 0 0 1-.1-.02.13.13 0 0 1-.056-.087.118.118 0 0 1 .084-.142Z" fill="#2683FB"/><path d="m5.92 5.966-3.128-3.08a.117.117 0 0 1 0-.165l3.906-.77a.109.109 0 0 1 .092.008.107.107 0 0 1 .052.075l-.719 3.873a.132.132 0 0 1-.132.095l-.071-.036Z" fill="#559CFC"/><path d="M4.577 21.376c.156.13.336.249.504.367l.539.38.671.378.395.213c.27.141.545.267.827.38l.204.082c1.948.743 4.054.988 6.123.711v-2.369c-4.206.768-8.429-1.26-10.418-5.003A9.57 9.57 0 0 1 5.165 5.197L3.523 3.562A11.785 11.785 0 0 0 0 11.166v2.168l.072.45c.02.268.065.533.132.793l.108.427c.071.272.143.533.24.793.036.138.084.273.143.403.096.272.204.545.324.805l.18.356c.131.284.287.545.443.817l.191.308c.185.29.385.571.6.841l.167.225c.28.348.58.68.899.995l.096.083c.3.284.599.545.91.793" fill="#559CFC"/><path d="m5.991 18.143-3.103 3.08a.12.12 0 0 1-.168 0l-.767-3.921a.118.118 0 0 1 .084-.143l3.93.77a.13.13 0 0 1 0 .178l.024.036Z" fill="#A6CAFD"/><path d="M22.983 13.44a1.21 1.21 0 0 0-.9.173c-.266.173-.45.443-.514.751a9.365 9.365 0 0 1-2.528 4.454c-3.81 3.724-9.94 3.73-13.757.011l-1.69 1.682a12.257 12.257 0 0 0 9.587 3.447h.156c.323-.023.643-.07.959-.142h.24l.934-.225.24-.071c.3-.095.61-.201.91-.32l.228-.083c.3-.13.6-.26.887-.414l.203-.107c.3-.154.588-.332.875-.51l.144-.106c.644-.43 1.245-.917 1.797-1.457.132-.13.252-.26.372-.402.12-.143.347-.368.503-.557.156-.19.192-.26.288-.391.193-.236.37-.486.527-.746l.18-.296c.191-.32.36-.64.515-.96l.072-.154a11.6 11.6 0 0 0 .755-2.132c.075-.306.024-.63-.142-.899a1.198 1.198 0 0 0-.745-.534h-.096v-.012Z" fill="#A6CAFD"/></g></svg>