<svg width="24" height="24" xmlns="http://www.w3.org/2000/svg"><g fill-rule="nonzero" fill="none"><path d="M12 0h12v12H12V0Zm5.36 8.112 3.44-3.4-.96-.96L17.36 6.2 16.2 5.04l-.952.96 2.112 2.112Z" fill="#AECBFA"/><path d="M0 14.4V24h9.6v-9.6H0Zm7.2 7.2H2.4v-4.8h4.8v4.8ZM12 12h12V9.64l-9.6-.04z" fill="#4285F4"/><path fill="#669DF6" d="M21.6 2.4v7.232L24 12V0z"/><path fill="#AECBFA" d="m9.6 24-2.4-2.4v-4.8l2.4-2.4z"/><path fill="#669DF6" d="m0 24 2.4-2.4h4.8L9.6 24z"/><path d="M0 2.4V12h9.6V2.4H0Zm7.2 7.2H2.4V4.8h4.8v4.8Z" fill="#4285F4"/><path fill="#AECBFA" d="M9.6 12 7.2 9.6V4.8l2.4-2.4z"/><path fill="#669DF6" d="m0 12 2.4-2.4h4.8L9.6 12z"/><g fill="#4285F4"><path d="M12 14.4V24h9.6v-9.6H12Zm7.2 7.2h-4.8v-4.8h4.8v4.8Z"/></g><path fill="#AECBFA" d="m21.6 24-2.4-2.4v-4.8l2.4-2.4z"/><path fill="#669DF6" d="m12 24 2.4-2.4h4.8l2.4 2.4z"/></g></svg>