<?xml version="1.0" encoding="UTF-8"?>
<svg width="20px" height="24px" viewBox="0 0 20 24" version="1.1" xmlns="http://www.w3.org/2000/svg" xmlns:xlink="http://www.w3.org/1999/xlink">
    <title>Resource Manager</title>
    <g id="Page-1" stroke="none" stroke-width="1" fill="none" fill-rule="evenodd">
        <g id="Artboard" transform="translate(-29.000000, -91.000000)">
            <g id="Resource-Manager" transform="translate(29.000000, 91.000000)">
                <path d="M9.95454545,0 L0,4.10502626 L0,10.8567142 C0,16.9422356 4.24545455,22.6226557 10,24 C15.7090909,22.6226557 20,16.9422356 20,10.8567142 L20,4.10502626 L9.95454545,0 Z M9.95454545,4.54612366 C11.2467949,4.54249598 12.4136768,5.31101653 12.9098991,6.49256306 C13.4061213,7.67410959 13.1336989,9.03537197 12.2199369,9.94022259 C11.3061749,10.8450732 9.93150612,11.1148388 8.73832315,10.6234559 C7.54514018,10.1320731 6.76905087,8.97657108 6.77272727,7.69692423 C6.7628007,6.86508641 7.09028986,6.06407692 7.68181818,5.47336834 C8.28339195,4.88963427 9.09414767,4.56590489 9.93636364,4.57314329 L9.95454545,4.54612366 Z M14.9363636,17.9234809 C13.6718303,19.5670275 11.9353627,20.7939204 9.95454545,21.4433608 C7.97372818,20.7939204 6.23726063,19.5670275 4.97272727,17.9234809 L4.97272727,15.2228057 C4.97272727,13.2063016 8.29090909,12.1980495 9.95454545,12.1980495 C11.6181818,12.1980495 14.9363636,13.2063016 14.9363636,15.2228057 L14.9363636,17.9234809 L14.9363636,17.9234809 Z" id="Shape" fill="#669DF6"></path>
                <path d="M9.95454545,0 L9.95454545,4.54613653 C11.6187136,4.67079792 12.90476,6.04427741 12.90476,7.69692423 C12.90476,9.34957106 11.6187136,10.7230505 9.95454545,10.8477119 L9.95454545,12.1980495 C11.6181818,12.1980495 14.9363636,13.2063016 14.9363636,15.2228057 L14.9363636,17.9234809 C13.6718303,19.5670275 11.9353627,20.7939204 9.95454545,21.4433608 L9.95454545,24 C15.6636364,22.6226557 19.9545455,16.9422356 19.9545455,10.8567142 L19.9545455,4.10502626 L9.95454545,0 Z" id="Path" fill="#4285F4"></path>
            </g>
        </g>
    </g>
</svg>