<svg width="23" height="24" xmlns="http://www.w3.org/2000/svg"><path d="M10.755 0c5.94 0 10.755 4.905 10.755 10.955 0 .257-.009.512-.026.764l1.516.688v3.865c0 3.574-2.423 6.917-5.679 7.728-1.481-.37-2.79-1.262-3.777-2.463-.889.244-1.824.374-2.789.374C4.815 21.91 0 17.006 0 10.955 0 4.905 4.815 0 10.755 0Zm.905 16.8H8.07c.154.536.33 1.037.524 1.496.37.87.792 1.544 1.225 1.975.353.351.67.506.952.51l.032-.002.075-.004c.26-.03.549-.188.866-.504.197-.196.392-.443.58-.735a8.297 8.297 0 0 1-.665-2.736Zm-4.82.001H2.985a9.645 9.645 0 0 0 5.506 3.712c-.672-.894-1.24-2.173-1.651-3.712ZM18.069 13.6h-1.571l-.001 2.4h-2.356v1.6h2.356V20h1.572v-2.4h2.357V16h-2.358v-2.4Zm-3.823-2.4H7.32l.002.156c.026 1.663.217 3.249.543 4.645L11.642 16v-3.593l2.604-1.18v-.026Zm-8.118 0H1.096A9.91 9.91 0 0 0 2.46 16h4.186a23.596 23.596 0 0 1-.518-4.8Zm-5.02-.8h5.024c.03-1.421.175-2.772.412-4H2.357v-.31A9.903 9.903 0 0 0 1.11 10.4Zm12.7-4H7.758a22.61 22.61 0 0 0-.433 4h6.917a22.61 22.61 0 0 0-.432-4Zm5.48 0h-4.321c.237 1.228.382 2.579.412 4h.688l1.254-.569 1.254.569h1.796a9.909 9.909 0 0 0-1.082-4ZM8.492 1.398l-.058.014C6.023 2.015 3.968 3.54 2.65 5.6h4.065c.417-1.757 1.033-3.215 1.775-4.202Zm2.284-.269h.008c-.285 0-.606.155-.963.51-.433.432-.856 1.105-1.225 1.976A13.71 13.71 0 0 0 7.939 5.6h5.687a13.71 13.71 0 0 0-.655-1.984c-.37-.87-.793-1.544-1.226-1.975-.352-.35-.668-.506-.95-.51h-.02Zm2.251.278.032.042c.725.986 1.327 2.424 1.737 4.151h4.034c-1.321-2.065-3.383-3.594-5.803-4.193Z" fill="#4285F4" fill-rule="nonzero"/></svg>