<svg width="24" height="14" xmlns="http://www.w3.org/2000/svg"><path d="M24 0v14h-4.755a.224.224 0 0 1-.226-.222v-1.334c0-.122.101-.222.226-.222h2.943V1.778h-2.943a.224.224 0 0 1-.226-.222V.222c0-.123.101-.222.226-.222H24ZM5.17 0c.126 0 .227.1.227.222v1.334a.224.224 0 0 1-.226.222H1.81v10.444h3.34c.125 0 .226.1.226.222v1.334a.224.224 0 0 1-.226.222H0V0h5.17Zm13.343 4.556V6.27l.073.028 1.62-.562.336.966-1.635.548-.044.115 1.124 1.484-.847.606-1.095-1.485h-.102l-1.095 1.485-.846-.606 1.11-1.484-.03-.115-1.635-.548.336-.966 1.606.562.087-.028V4.556h1.037Zm-12.278 0v1.698l.073.028 1.62-.556.336.956-1.635.542-.043.114 1.123 1.47-.846.599-1.095-1.47h-.102L4.57 9.407l-.847-.6 1.11-1.469-.03-.114-1.634-.542.336-.956 1.605.556.088-.028V4.556h1.036Zm6.113 0v1.698l.073.028 1.62-.556.336.956-1.635.542-.043.114 1.124 1.47-.847.599-1.095-1.47h-.102l-1.095 1.47-.846-.6 1.11-1.469-.03-.114-1.635-.542.336-.956 1.605.556.088-.028V4.556h1.036Z" fill="#4285F4" fill-rule="nonzero"/></svg>