<svg width="21" height="24" xmlns="http://www.w3.org/2000/svg"><g fill-rule="nonzero" fill="none"><path d="M12.109 5.815c2.243.577 3.996 2.298 4.583 4.502H21V3.898L12.109.018v5.797ZM4.308 10.326c.587-2.204 2.34-3.925 4.583-4.502V0L0 3.898v6.446l4.308-.018ZM8.9 18.005c-2.243-.577-3.996-2.298-4.583-4.502H.275C1.201 18.19 4.432 22.121 8.9 24v-5.995ZM16.701 13.503c-.587 2.204-2.34 3.925-4.583 4.502V24c4.472-1.872 7.702-5.807 8.616-10.497h-4.033Z" fill="#4285F4"/><ellipse fill="#669DF6" cx="10.505" cy="11.901" rx="3.208" ry="3.151"/></g></svg>