<svg width="24" height="20" xmlns="http://www.w3.org/2000/svg"><g fill-rule="nonzero" fill="none"><path fill="#669DF6" d="M.009 3.978h7.967v1.999H.009zM11 13.983H0v1.999h11zM3.016 8.985H0v1.99h12l-1.999-1.99z"/><path d="M12 6.481a.504.504 0 0 1 1 0l-.001 11.014c.001.775.36 1.506.972 1.981.609.476 1.405.64 2.151.442a2.594 2.594 0 0 0 1.882-2.549V2.492a.495.495 0 0 1 .765-.487.513.513 0 0 1 .234.487v10.987a2.504 2.504 0 0 0 3.124 2.431 2.594 2.594 0 0 0 1.872-2.558V9.993h-1.998v3.504a.504.504 0 1 1-1 0V2.492A2.513 2.513 0 0 0 20.03.51a2.466 2.466 0 0 0-2.151-.423 2.594 2.594 0 0 0-1.882 2.549v14.859a.495.495 0 0 1-.765.486.513.513 0 0 1-.234-.486V6.49a2.485 2.485 0 0 0-4.933-.432 3.667 3.667 0 0 0-.063.55v2.368L12 10.975V6.472v.01Z" fill="#4285F4"/></g></svg>