<svg width="24" height="14" xmlns="http://www.w3.org/2000/svg"><g fill="none" fill-rule="evenodd"><path fill="#669DF6" d="M5.616 12.306 2.72 7.033 5.616 1.76h-2.72L0 7.033l2.896 5.273z"/><path fill="#4285F4" d="m3.08 7.678-.36-.645H0l1.336 2.446z"/><path d="M15.576 0H8.544l-4 6.934 4 6.926h7.032l4-6.926-4-6.934Zm-3.512 10.364c-1.298 0-2.467-.81-2.96-2.05a3.385 3.385 0 0 1 .712-3.608 3.125 3.125 0 0 1 3.5-.69c1.195.524 1.964 1.742 1.948 3.083-.022 1.81-1.448 3.265-3.2 3.265ZM2.72 7.058 5.616 1.76h-2.72L0 7.058l1.336 2.446z" fill="#AECBFA"/><path d="M15.576.107 13.552 4.24c1.049.577 1.702 1.706 1.696 2.934 0 1.825-1.433 3.305-3.2 3.305a3.116 3.116 0 0 1-1.424-.339L8.528 14h7.032l4-6.934-4-6.926.016-.033Z" fill="#669DF6"/><path fill="#669DF6" d="m18.384 1.76 2.896 5.273-2.896 5.273h2.72L24 7.033 21.104 1.76z"/><path fill="#4285F4" d="m20.92 6.397.36.636H24l-1.328-2.438z"/><path fill="#AECBFA" d="m21.28 7.017-2.896 5.289h2.72L24 7.017 22.672 4.57z"/></g></svg>