<svg width="24" height="13" xmlns="http://www.w3.org/2000/svg"><g fill="none" fill-rule="evenodd"><path fill="#669DF6" d="M5.617 11.482 2.719 6.556l2.898-4.917H2.899L0 6.556l2.899 4.926z"/><path fill="#4285F4" d="m3.079 7.155-.36-.599H0l1.332 2.281z"/><path d="M15.6 0H8.544l-3.97 6.513 3.97 6.461h7.058l3.952-6.461L15.6 0Zm-3.537 9.661C10.322 9.647 8.92 8.278 8.93 6.6c.01-1.678 1.427-3.032 3.169-3.027 1.742.005 3.15 1.366 3.15 3.044a2.998 2.998 0 0 1-.937 2.16 3.232 3.232 0 0 1-2.249.884ZM2.719 6.582l2.898-4.943H2.899L0 6.582l1.332 2.281z" fill="#AECBFA"/><path d="m15.6.095-2.043 3.816c1.043.542 1.693 1.591 1.693 2.732-.005 1.694-1.429 3.065-3.187 3.07a3.241 3.241 0 0 1-1.422-.312L8.543 13h7.058l3.97-6.47L15.6.095Z" fill="#669DF6"/><path fill="#669DF6" d="m18.383 1.639 2.898 4.917-2.898 4.926h2.718L24 6.556l-2.899-4.917z"/><path fill="#4285F4" d="m20.921 5.967.36.589H24l-1.332-2.272z"/><path fill="#AECBFA" d="m21.281 6.539-2.898 4.943h2.718L24 6.539l-1.332-2.281z"/></g></svg>