<svg width="24" height="24" xmlns="http://www.w3.org/2000/svg"><g fill-rule="nonzero" fill="none"><path d="M8.376 15.608A7.464 7.464 0 0 0 3.6 9.6V7.2a9.864 9.864 0 0 1 7.2 8.424l-2.424-.016ZM3.6 5.992v4.8L0 8.392l3.6-2.4Zm7.2 10.064V19.2H8.4v-3.144" fill="#4285F4"/><path fill="#669DF6" d="M8.4 3.6H7.2L9.6 0 12 3.6h-1.2v15.6H8.4z"/><path d="M20.4 18.008v-4.8l3.6 2.4-3.6 2.4ZM13.2 7.944V4.8h2.4v3.144" fill="#AECBFA"/><path fill="#669DF6" d="M15.6 20.4h1.2L14.4 24 12 20.4h1.2V4.8h2.4z"/><path d="M13.2 4.8h2.4v2.92a7.352 7.352 0 0 0 4.8 6.68v2.4c-4.176-1.272-7.2-4.912-7.2-9.088" fill="#AECBFA"/></g></svg>