<svg width="24" height="13" xmlns="http://www.w3.org/2000/svg"><g fill-rule="nonzero" fill="none"><path d="M23.56 0H8.69a.392.392 0 0 0-.384.383v2.588c0 .213.17.386.385.39h14.868a.385.385 0 0 0 .385-.39V.39A.383.383 0 0 0 23.559 0ZM10.164 2.563a.848.848 0 0 1-.85-.844.848.848 0 0 1 .844-.849.848.848 0 0 1 .855.839c0 .467-.38.846-.85.846v.008ZM23.56 4.831H8.69a.392.392 0 0 0-.384.391v2.564c0 .213.17.387.385.39h14.868a.385.385 0 0 0 .385-.39V5.214a.392.392 0 0 0-.385-.383ZM10.164 7.402a.844.844 0 0 1-.598-1.448.851.851 0 0 1 1.447.61.837.837 0 0 1-.85.838ZM23.615 9.638H8.78a.385.385 0 0 0-.385.391v2.588c0 .211.172.383.385.383h14.836a.392.392 0 0 0 .385-.383V10.02a.392.392 0 0 0-.385-.383Zm-13.378 2.548a.844.844 0 0 1-.611-1.442.851.851 0 0 1 1.452.595.837.837 0 0 1-.841.847Z" fill="#4285F4"/><path d="M5.662 3.937H3.1a.975.975 0 0 1-.248-1.932h2.811a.985.985 0 0 1 1.098.846.975.975 0 0 1-.85 1.086.651.651 0 0 1-.248 0Z" fill="#669DF6"/><path d="M5.662 7.466H1.064a.975.975 0 0 1-.24-1.932.61.61 0 0 1 .24 0h4.598a.979.979 0 0 1 .912.37.972.972 0 0 1-.663 1.562h-.249Z" fill="#AECBFA"/><path d="M5.662 10.996H3.1a.977.977 0 0 1-1.09-.847.959.959 0 0 1 .801-1.086.651.651 0 0 1 .249 0h2.563a.979.979 0 0 1 .912.37.972.972 0 0 1-.872 1.563Z" fill="#669DF6"/></g></svg>