<svg width="21" height="24" xmlns="http://www.w3.org/2000/svg"><g fill-rule="nonzero" fill="none"><path d="M20.83 14.489a.997.997 0 0 0-1.292-.206l-9.04 6.615v.283a.931.931 0 0 1 .895.426.924.924 0 0 1 0 .99.931.931 0 0 1-.896.425c.21 0 .414-.067.581-.193l9.571-7.04a.976.976 0 0 0 .18-1.3Z" fill="#669DF6"/><path d="M10.497 23.022a.928.928 0 0 1-.82-.92c0-.47.352-.865.82-.92v-.284l-9.041-6.615a.984.984 0 0 0-1.292.206.95.95 0 0 0 .207 1.287l9.57 7.04a.945.945 0 0 0 .569.193l-.013.013Z" fill="#AECBFA"/><path d="M10.497 20.216a1.895 1.895 0 0 0-1.899 1.892c0 1.045.85 1.892 1.9 1.892a1.895 1.895 0 0 0 1.898-1.892c0-1.045-.85-1.892-1.899-1.892Zm0 2.806a.924.924 0 0 1-.653-1.587.932.932 0 0 1 1.018-.192c.347.147.57.49.565.865a.912.912 0 0 1-.93.914Z" fill="#4285F4"/><path d="M2.747 4.475a.98.98 0 0 1-.968-.965V1.09A.977.977 0 0 1 2.23.15c.32-.2.726-.2 1.046 0 .32.2.495.566.452.94v2.42a.98.98 0 0 1-.982.965Z" fill="#AECBFA"/><circle fill="#AECBFA" cx="2.722" cy="12.056" r="1"/><circle fill="#AECBFA" cx="2.722" cy="9.212" r="1"/><circle fill="#AECBFA" cx="2.722" cy="6.354" r="1"/><path d="M18.247 7.307a.98.98 0 0 1-.97-.978v-2.42c0-.533.435-.965.97-.965.535 0 .968.432.968.965v2.42a.964.964 0 0 1-.968.978Z" fill="#4285F4"/><circle fill="#4285F4" cx="18.272" cy="12.069" r="1"/><circle fill="#4285F4" cx="18.272" cy="9.173" r="1"/><circle fill="#4285F4" cx="18.272" cy="1.09" r="1"/><path d="M10.497 15.917a.98.98 0 0 1-.969-.965v-2.458a.98.98 0 0 1 .976-.867.98.98 0 0 1 .975.867v2.432a.976.976 0 0 1-.982.991Z" fill="#669DF6"/><circle fill="#669DF6" cx="10.497" cy="17.783" r="1"/><circle fill="#669DF6" cx="10.497" cy="9.662" r="1"/><circle fill="#669DF6" cx="10.497" cy="6.805" r="1"/><path d="M14.372 10.177a.98.98 0 0 1-.969-.965v-2.42a.977.977 0 0 1 .452-.94c.32-.2.727-.2 1.046 0 .32.2.496.566.452.94v2.42a.98.98 0 0 1-.981.965Z" fill="#4285F4"/><circle fill="#4285F4" cx="14.385" cy="3.935" r="1"/><circle fill="#4285F4" cx="14.385" cy="14.875" r="1"/><circle fill="#4285F4" cx="14.385" cy="12.017" r="1"/><circle fill="#AECBFA" cx="6.609" cy="14.875" r="1"/><circle fill="#AECBFA" cx="6.609" cy="6.805" r="1"/><circle fill="#AECBFA" cx="6.609" cy="3.935" r="1"/><path d="M6.622 12.996a.98.98 0 0 1-.981-.94V9.611c0-.534.433-.966.968-.966.535 0 .97.432.97.966v2.445a.967.967 0 0 1-.957.94Z" fill="#AECBFA"/></g></svg>