<svg width="24" height="17" xmlns="http://www.w3.org/2000/svg"><g fill-rule="nonzero" fill="none"><path fill="#669DF6" d="M17.203 0h-6.636l1.769 2.833h2.466v1.619h-3.514L8.502 0H0v5.262h2.394l1.513-2.833h3.09l1.024 1.619H4.939L3.426 6.881H0v3.133h3.426l1.513 2.938h3.082l-1.024 1.619h-3.09l-1.513-2.833H0V17h8.502l2.786-4.452h3.514v1.619h-2.466L10.567 17h6.636V9.31H9.502l-.992 1.619H6.3L7.813 8.5 6.3 6.071h2.21l.96 1.619h7.733z"/><path fill="#4285F4" d="m24 1.344-4.795 3.529v7.407L24 15.859z"/></g></svg>