<svg width="24" height="24" xmlns="http://www.w3.org/2000/svg"><g fill="none" fill-rule="evenodd"><path d="M0 0h24v24H0z"/><path d="M0 0h24v24H0z"/><g fill-rule="nonzero"><path d="M3.998 18V6H12V3.998H3a.998.998 0 0 0-.998 1.004v13.995A.998.998 0 0 0 3 20.002h9V18H3.998Z" fill="#4285F4"/><path d="M21 3.998h-9V6h8.003v12H12v2.002h9a.998.998 0 0 0 .998-1.005V5.002A.998.998 0 0 0 21 3.998M9 12v-1.988L12 9V6.998L7.013 9v3c0 2.385 3 5.003 4.987 5.003V15c-.892 0-3-1.387-3-3" fill="#669DF6"/><path d="M15 12c0 1.613-2.1 3-3 3v2.003c2.003 0 4.988-2.618 4.988-5.003V9L12 6.998V9l3 .998V12" fill="#AECBFA"/><path d="M12.585 12.795a.832.832 0 0 1-1.185 0l-.997-1.215.592-.592L12 12.083l3-3 .593.592-3.008 3.12Z" fill="#4285F4"/></g></g></svg>