<svg width="24" height="24" xmlns="http://www.w3.org/2000/svg"><g fill="none" fill-rule="evenodd"><path d="M0 0h24v24H0z"/><path d="M20.695 21h-.714v-1.532h.714a.767.767 0 0 0 .769-.766v-4.404a.767.767 0 0 0-.769-.766H17V12h3.695A2.301 2.301 0 0 1 23 14.298v4.404A2.301 2.301 0 0 1 20.695 21ZM12 21H7v-2h5z" fill="#4285F4" fill-rule="nonzero"/><path d="M8 13H4.299A2.298 2.298 0 0 1 2 10.702V6.298C2 5.028 3.03 4 4.299 4h.996v1.532h-.996a.766.766 0 0 0-.766.766v4.404c0 .423.343.766.766.766H8V13Z" fill="#669DF6"/><path fill="#4285F4" fill-rule="nonzero" d="M18 6h-6V4h6z"/><path d="M9 3.667V2H6.09C5.489 2 5 2.56 5 3.25v2.5C5 6.44 5.488 7 6.09 7H9V5.333H6.455V3.667H9Z" fill="#AECBFA" fill-rule="nonzero"/><path d="M13 3.25v2.5C13 6.44 12.512 7 11.91 7H9V5.333h2.545V3.667H9V2h2.91c.602 0 1.09.56 1.09 1.25Z" fill="#669DF6"/><path d="M20.5 7a2.5 2.5 0 1 1 0-5 2.5 2.5 0 0 1 0 5Zm0-3.462a.962.962 0 1 0 0 1.924.962.962 0 0 0 0-1.924Z" fill="#AECBFA" fill-rule="nonzero"/><path d="M4.5 23A2.5 2.5 0 1 1 7 20.5 2.508 2.508 0 0 1 4.5 23Zm0-3.462a.962.962 0 1 0 0 1.924.962.962 0 0 0 0-1.924Z" fill="#9AA0A6" fill-rule="nonzero"/><path d="M4.5 23A2.5 2.5 0 1 1 7 20.5 2.508 2.508 0 0 1 4.5 23Zm0-3.462a.962.962 0 1 0 0 1.924.962.962 0 0 0 0-1.924ZM16 19.667V18h-2.91c-.602 0-1.09.56-1.09 1.25v2.5c0 .69.488 1.25 1.09 1.25H16v-1.667h-2.538v-1.666H16Z" fill="#AECBFA" fill-rule="nonzero"/><path d="M20 19.25v2.5c0 .69-.488 1.25-1.09 1.25H16v-1.667h2.545v-1.666H16V18h2.91c.602 0 1.09.56 1.09 1.25Z" fill="#669DF6"/><path d="M12 11.667V10H9.09C8.489 10 8 10.56 8 11.25v2.5c0 .69.488 1.25 1.09 1.25H12v-1.667H9.455v-1.666H12Z" fill="#AECBFA" fill-rule="nonzero"/><path d="M17 11.25v2.5c0 .69-.488 1.25-1.09 1.25H13v-1.667h2.545v-1.666H13V10h2.91c.602 0 1.09.56 1.09 1.25Z" fill="#669DF6"/></g></svg>