<svg width="32" height="33" xmlns="http://www.w3.org/2000/svg"><path d="M16 32.712c-8.837 0-16-7.163-16-16s7.163-16 16-16h.356C24.996.712 32 7.716 32 16.356v16.356H16zM16 30h13V16.711C29 9.691 23.309 4 16.289 4H16C8.82 4 3 9.82 3 17s5.82 13 13 13zm-.021-5.331a10.974 10.974 0 01-7.429-2.903 1.675 1.675 0 01-.132-2.32 1.567 1.567 0 012.255-.135 7.829 7.829 0 005.306 2.072 7.832 7.832 0 005.364-2.126 1.567 1.567 0 012.257.113 1.675 1.675 0 01-.11 2.32c-2.043 1.904-4.698 2.979-7.511 2.979z" fill="#FFF" fill-rule="evenodd"/></svg>